{
copyright = "Copyright (c) 2015, Cadson Demak (info@cadsondemak.com)";
customParameters = (
{
name = vendorID;
value = CDK;
},
{
name = description;
value = "Copyright (c) 2015, Cadson Demak (info@cadsondemak.com)";
},
{
name = license;

glyphs = (
{
glyphname = A;
lastChange = "2015-11-29 14:55:12 +0000";
layers = (
{
layerId = "097E1CCD-D4DB-46B5-97AF-AA821C3DB512";
name = "Bold Italic";
paths = (
{
closed = 1;
nodes = (
"182 0 LINE",
"184 14 LINE",
"163 24 OFFCURVE",
"140 32 OFFCURVE",
"110 36 CURVE",
"407 576 LINE",
"479 37 LINE",
"458 34 OFFCURVE",
"432 29 OFFCURVE",
"398 17 CURVE",
"395 0 LINE",
"676 0 LINE",
"678 16 LINE",
"655 25 OFFCURVE",
"630 32 OFFCURVE",
"607 37 CURVE",
"507 704 LINE",
"414 704 LINE",
"43 39 LINE",
"30 37 OFFCURVE",
"-11 27 OFFCURVE",
"-38 18 CURVE",
"-41 0 LINE"
);
},
{
closed = 1;
nodes = (
"496 179 LINE",
"505 224 LINE",
"176 224 LINE",
"168 179 LINE"
);
}
);
width = 729;
}
);
leftKerningGroup = A;
note = A;
rightKerningGroup = A;
unicode = 0041;
},
{
glyphname = Aacute;
lastChange = "2015-11-29 14:55:11 +0000";
layers = (
{
layerId = "097E1CCD-D4DB-46B5-97AF-AA821C3DB512";
name = "Bold Italic";
paths = (
{
closed = 1;
nodes = (
"182 0 LINE",
"184 14 LINE",
"163 24 OFFCURVE",
"140 32 OFFCURVE",
"110 36 CURVE",
"407 576 LINE",
"479 37 LINE",
"458 34 OFFCURVE",
"432 29 OFFCURVE",
"398 17 CURVE",
"395 0 LINE",
"676 0 LINE",
"678 16 LINE",
"655 25 OFFCURVE",
"630 32 OFFCURVE",
"607 37 CURVE",
"507 704 LINE",
"414 704 LINE",
"43 39 LINE",
"30 37 OFFCURVE",
"-11 27 OFFCURVE",
"-38 18 CURVE",
"-41 0 LINE"
);
},
{
closed = 1;
nodes = (
"496 179 LINE",
"505 224 LINE",
"176 224 LINE",
"168 179 LINE"
);
},
{
closed = 1;
nodes = (
"581 875 LINE SMOOTH",
"612 892 OFFCURVE",
"630 909 OFFCURVE",
"634 930 CURVE",
"638 947 OFFCURVE",
"631 967 OFFCURVE",
"603 967 CURVE SMOOTH",
"574 967 OFFCURVE",
"547 943 OFFCURVE",
"540 936 CURVE",
"400 817 LINE",
"415 786 LINE"
);
}
);
width = 729;
}
);
leftKerningGroup = A;
note = Aacute;
rightKerningGroup = A;
unicode = 00C1;
},
{
glyphname = Abreve;
lastChange = "2015-11-29 14:55:12 +0000";
layers = (
{
layerId = "097E1CCD-D4DB-46B5-97AF-AA821C3DB512";
name = "Bold Italic";
paths = (
{
closed = 1;
nodes = (
"182 0 LINE",
"184 14 LINE",
"163 24 OFFCURVE",
"140 32 OFFCURVE",
"110 36 CURVE",
"407 576 LINE",
"479 37 LINE",
"458 34 OFFCURVE",
"432 29 OFFCURVE",
"398 17 CURVE",
"395 0 LINE",
"676 0 LINE",
"678 16 LINE",
"655 25 OFFCURVE",
"630 32 OFFCURVE",
"607 37 CURVE",
"507 704 LINE",
"414 704 LINE",
"43 39 LINE",
"30 37 OFFCURVE",
"-11 27 OFFCURVE",
"-38 18 CURVE",
"-41 0 LINE"
);
},
{
closed = 1;
nodes = (
"496 179 LINE",
"505 224 LINE",
"176 224 LINE",
"168 179 LINE"
);
},
{
closed = 1;
nodes = (
"564 779 OFFCURVE",
"636 821 OFFCURVE",
"667 910 CURVE",
"594 910 LINE",
"571 836 OFFCURVE",
"524 826 OFFCURVE",
"484 826 CURVE SMOOTH",
"445 826 OFFCURVE",
"401 836 OFFCURVE",
"409 910 CURVE",
"337 910 LINE",
"332 821 OFFCURVE",
"385 779 OFFCURVE",
"475 779 CURVE SMOOTH"
);
}
);
width = 729;
}
);
leftKerningGroup = A;
note = Abreve;
rightKerningGroup = A;
unicode = 0102;
},
{
glyphname = Abreveacute;
lastChange = "2015-11-29 14:55:12 +0000";
layers = (
{
layerId = "097E1CCD-D4DB-46B5-97AF-AA821C3DB512";
name = "Bold Italic";
paths = (
{
closed = 1;
nodes = (
"182 0 LINE",
"184 14 LINE",
"163 24 OFFCURVE",
"140 32 OFFCURVE",
"110 36 CURVE",
"407 576 LINE",
"479 37 LINE",
"458 34 OFFCURVE",
"432 29 OFFCURVE",
"398 17 CURVE",
"395 0 LINE",
"676 0 LINE",
"678 16 LINE",
"655 25 OFFCURVE",
"630 32 OFFCURVE",
"607 37 CURVE",
"507 704 LINE",
"414 704 LINE",
"43 39 LINE",
"30 37 OFFCURVE",
"-11 27 OFFCURVE",
"-38 18 CURVE",
"-41 0 LINE"
);
},
{
closed = 1;
nodes = (
"496 179 LINE",
"505 224 LINE",
"176 224 LINE",
"168 179 LINE"
);
},
{
closed = 1;
nodes = (
"565 779 OFFCURVE",
"635 821 OFFCURVE",
"667 910 CURVE",
"595 910 LINE",
"571 836 OFFCURVE",
"523 826 OFFCURVE",
"484 826 CURVE SMOOTH",
"445 826 OFFCURVE",
"401 836 OFFCURVE",
"409 910 CURVE",
"336 910 LINE",
"331 821 OFFCURVE",
"385 779 OFFCURVE",
"475 779 CURVE SMOOTH"
);
},
{
closed = 1;
nodes = (
"591 966 LINE SMOOTH",
"632 986 OFFCURVE",
"655 1011 OFFCURVE",
"659 1032 CURVE",
"663 1049 OFFCURVE",
"653 1065 OFFCURVE",
"630 1065 CURVE SMOOTH",
"610 1065 OFFCURVE",
"583 1050 OFFCURVE",
"554 1023 CURVE SMOOTH",
"467 941 LINE",
"481 914 LINE"
);
}
);
width = 729;
}
);
leftKerningGroup = A;
note = Abreveacute;
rightKerningGroup = A;
unicode = 1EAE;
},
{
glyphname = Abrevedotbelow;
lastChange = "2015-11-29 14:55:11 +0000";
layers = (
{
layerId = "097E1CCD-D4DB-46B5-97AF-AA821C3DB512";
name = "Bold Italic";
paths = (
{
closed = 1;
nodes = (
"182 0 LINE",
"184 14 LINE",
"163 24 OFFCURVE",
"140 32 OFFCURVE",
"110 36 CURVE",
"407 576 LINE",
"479 37 LINE",
"458 34 OFFCURVE",
"432 29 OFFCURVE",
"398 17 CURVE",
"395 0 LINE",
"676 0 LINE",
"678 16 LINE",
"655 25 OFFCURVE",
"630 32 OFFCURVE",
"607 37 CURVE",
"507 704 LINE",
"414 704 LINE",
"43 39 LINE",
"30 37 OFFCURVE",
"-11 27 OFFCURVE",
"-38 18 CURVE",
"-41 0 LINE"
);
},
{
closed = 1;
nodes = (
"312 -169 OFFCURVE",
"338 -145 OFFCURVE",
"343 -113 CURVE SMOOTH",
"350 -80 OFFCURVE",
"335 -56 OFFCURVE",
"302 -56 CURVE SMOOTH",
"269 -56 OFFCURVE",
"243 -80 OFFCURVE",
"236 -113 CURVE SMOOTH",
"230 -145 OFFCURVE",
"246 -169 OFFCURVE",
"279 -169 CURVE SMOOTH"
);
},
{
closed = 1;
nodes = (
"496 179 LINE",
"505 224 LINE",
"176 224 LINE",
"168 179 LINE"
);
},
{
closed = 1;
nodes = (
"564 778 OFFCURVE",
"636 820 OFFCURVE",
"667 909 CURVE",
"594 909 LINE",
"571 835 OFFCURVE",
"524 825 OFFCURVE",
"485 825 CURVE SMOOTH",
"445 825 OFFCURVE",
"401 835 OFFCURVE",
"409 909 CURVE",
"337 909 LINE",
"332 820 OFFCURVE",
"385 778 OFFCURVE",
"475 778 CURVE SMOOTH"
);
}
);
width = 729;
}
);
leftKerningGroup = A;
note = Abrevedotbelow;
rightKerningGroup = A;
unicode = 1EB6;
},
{
glyphname = Abrevegrave;
lastChange = "2015-11-29 14:55:11 +0000";
layers = (
{
layerId = "097E1CCD-D4DB-46B5-97AF-AA821C3DB512";
name = "Bold Italic";
paths = (
{
closed = 1;
nodes = (
"182 0 LINE",
"184 14 LINE",
"163 24 OFFCURVE",
"140 32 OFFCURVE",
"110 36 CURVE",
"407 576 LINE",
"479 37 LINE",
"458 34 OFFCURVE",
"432 29 OFFCURVE",
"398 17 CURVE",
"395 0 LINE",
"676 0 LINE",
"678 16 LINE",
"655 25 OFFCURVE",
"630 32 OFFCURVE",
"607 37 CURVE",
"507 704 LINE",
"414 704 LINE",
"43 39 LINE",
"30 37 OFFCURVE",
"-11 27 OFFCURVE",
"-38 18 CURVE",
"-41 0 LINE"
);
},
{
closed = 1;
nodes = (
"496 179 LINE",
"505 224 LINE",
"176 224 LINE",
"168 179 LINE"
);
},
{
closed = 1;
nodes = (
"566 779 OFFCURVE",
"636 821 OFFCURVE",
"667 910 CURVE",
"595 910 LINE",
"572 836 OFFCURVE",
"524 826 OFFCURVE",
"485 826 CURVE SMOOTH",
"446 826 OFFCURVE",
"402 836 OFFCURVE",
"410 910 CURVE",
"337 910 LINE",
"331 821 OFFCURVE",
"386 779 OFFCURVE",
"475 779 CURVE SMOOTH"
);
},
{
closed = 1;
nodes = (
"557 941 LINE",
"502 1023 LINE SMOOTH",
"485 1050 OFFCURVE",
"464 1065 OFFCURVE",
"443 1065 CURVE SMOOTH",
"420 1065 OFFCURVE",
"404 1049 OFFCURVE",
"401 1032 CURVE",
"397 1011 OFFCURVE",
"408 986 OFFCURVE",
"443 966 CURVE SMOOTH",
"531 914 LINE"
);
}
);
width = 729;
}
);
leftKerningGroup = A;
note = Abrevegrave;
rightKerningGroup = A;
unicode = 1EB0;
},
{
glyphname = Abrevehookabove;
lastChange = "2015-11-29 14:55:11 +0000";
layers = (
{
layerId = "097E1CCD-D4DB-46B5-97AF-AA821C3DB512";
name = "Bold Italic";
paths = (
{
closed = 1;
nodes = (
"182 0 LINE",
"184 14 LINE",
"163 24 OFFCURVE",
"140 32 OFFCURVE",
"110 36 CURVE",
"407 576 LINE",
"479 37 LINE",
"458 34 OFFCURVE",
"432 29 OFFCURVE",
"398 17 CURVE",
"395 0 LINE",
"676 0 LINE",
"678 16 LINE",
"655 25 OFFCURVE",
"630 32 OFFCURVE",
"607 37 CURVE",
"507 704 LINE",
"414 704 LINE",
"43 39 LINE",
"30 37 OFFCURVE",
"-11 27 OFFCURVE",
"-38 18 CURVE",
"-41 0 LINE"
);
},
{
closed = 1;
nodes = (
"496 179 LINE",
"505 224 LINE",
"176 224 LINE",
"168 179 LINE"
);
},
{
closed = 1;
nodes = (
"565 780 OFFCURVE",
"635 822 OFFCURVE",
"667 911 CURVE",
"595 911 LINE",
"571 837 OFFCURVE",
"523 827 OFFCURVE",
"484 827 CURVE SMOOTH",
"445 827 OFFCURVE",
"401 837 OFFCURVE",
"409 911 CURVE",
"336 911 LINE",
"331 822 OFFCURVE",
"385 780 OFFCURVE",
"475 780 CURVE SMOOTH"
);
},
{
closed = 1;
nodes = (
"523 918 LINE",
"543 969 LINE",
"588 973 OFFCURVE",
"622 992 OFFCURVE",
"633 1040 CURVE SMOOTH",
"643 1093 OFFCURVE",
"601 1114 OFFCURVE",
"553 1114 CURVE SMOOTH",
"526 1114 OFFCURVE",
"499 1107 OFFCURVE",
"480 1100 CURVE",
"479 1067 LINE",
"499 1075 OFFCURVE",
"519 1079 OFFCURVE",
"533 1079 CURVE SMOOTH",
"568 1079 OFFCURVE",
"580 1062 OFFCURVE",
"576 1041 CURVE SMOOTH",
"570 1010 OFFCURVE",
"545 997 OFFCURVE",
"517 997 CURVE SMOOTH",
"489 997 LINE",
"477 918 LINE"
);
}
);
width = 729;
}
);
leftKerningGroup = A;
note = Abrevehookabove;
rightKerningGroup = A;
unicode = 1EB2;
},
{
glyphname = Abrevetilde;
lastChange = "2015-11-29 14:55:11 +0000";
layers = (
{
layerId = "097E1CCD-D4DB-46B5-97AF-AA821C3DB512";
name = "Bold Italic";
paths = (
{
closed = 1;
nodes = (
"182 0 LINE",
"184 14 LINE",
"163 24 OFFCURVE",
"140 32 OFFCURVE",
"110 36 CURVE",
"407 576 LINE",
"479 37 LINE",
"458 34 OFFCURVE",
"432 29 OFFCURVE",
"398 17 CURVE",
"395 0 LINE",
"676 0 LINE",
"678 16 LINE",
"655 25 OFFCURVE",
"630 32 OFFCURVE",
"607 37 CURVE",
"507 704 LINE",
"414 704 LINE",
"43 39 LINE",
"30 37 OFFCURVE",
"-11 27 OFFCURVE",
"-38 18 CURVE",
"-41 0 LINE"
);
},
{
closed = 1;
nodes = (
"496 179 LINE",
"505 224 LINE",
"176 224 LINE",
"168 179 LINE"
);
},
{
closed = 1;
nodes = (
"565 780 OFFCURVE",
"635 822 OFFCURVE",
"667 911 CURVE",
"595 911 LINE",
"571 837 OFFCURVE",
"523 827 OFFCURVE",
"484 827 CURVE SMOOTH",
"445 827 OFFCURVE",
"401 837 OFFCURVE",
"409 911 CURVE",
"336 911 LINE",
"331 822 OFFCURVE",
"385 780 OFFCURVE",
"475 780 CURVE SMOOTH"
);
},
{
closed = 1;
nodes = (
"383 975 LINE",
"397 1008 OFFCURVE",
"425 1029 OFFCURVE",
"454 1029 CURVE SMOOTH",
"495 1029 OFFCURVE",
"525 976 OFFCURVE",
"579 976 CURVE SMOOTH",
"645 976 OFFCURVE",
"690 1021 OFFCURVE",
"711 1089 CURVE",
"668 1089 LINE",
"648 1044 OFFCURVE",
"616 1033 OFFCURVE",
"591 1033 CURVE SMOOTH",
"551 1033 OFFCURVE",
"533 1085 OFFCURVE",
"470 1085 CURVE SMOOTH",
"409 1085 OFFCURVE",
"364 1049 OFFCURVE",
"339 975 CURVE"
);
}
);
width = 729;
}
);
leftKerningGroup = A;
note = Abrevetilde;
rightKerningGroup = A;
unicode = 1EB4;
},
{
glyphname = Acaron;
lastChange = "2015-11-29 14:55:12 +0000";
layers = (
{
layerId = "097E1CCD-D4DB-46B5-97AF-AA821C3DB512";
name = "Bold Italic";
paths = (
{
closed = 1;
nodes = (
"182 0 LINE",
"184 14 LINE",
"163 24 OFFCURVE",
"140 32 OFFCURVE",
"110 36 CURVE",
"407 576 LINE",
"479 37 LINE",
"458 34 OFFCURVE",
"432 29 OFFCURVE",
"398 17 CURVE",
"395 0 LINE",
"676 0 LINE",
"678 16 LINE",
"655 25 OFFCURVE",
"630 32 OFFCURVE",
"607 37 CURVE",
"507 704 LINE",
"414 704 LINE",
"43 39 LINE",
"30 37 OFFCURVE",
"-11 27 OFFCURVE",
"-38 18 CURVE",
"-41 0 LINE"
);
},
{
closed = 1;
nodes = (
"496 179 LINE",
"505 224 LINE",
"176 224 LINE",
"168 179 LINE"
);
},
{
closed = 1;
nodes = (
"507 786 LINE",
"539 824 OFFCURVE",
"628 894 OFFCURVE",
"676 922 CURVE",
"631 963 LINE",
"587 932 OFFCURVE",
"521 877 OFFCURVE",
"489 841 CURVE",
"485 841 LINE",
"470 877 OFFCURVE",
"426 932 OFFCURVE",
"393 963 CURVE",
"335 922 LINE",
"369 894 OFFCURVE",
"430 824 OFFCURVE",
"447 786 CURVE"
);
}
);
width = 729;
}
);
leftKerningGroup = A;
note = Acaron;
rightKerningGroup = A;
unicode = 01CD;
},
{
glyphname = Acircumflex;
lastChange = "2015-11-29 14:55:11 +0000";
layers = (
{
layerId = "097E1CCD-D4DB-46B5-97AF-AA821C3DB512";
name = "Bold Italic";
paths = (
{
closed = 1;
nodes = (
"182 0 LINE",
"184 14 LINE",
"163 24 OFFCURVE",
"140 32 OFFCURVE",
"110 36 CURVE",
"407 576 LINE",
"479 37 LINE",
"458 34 OFFCURVE",
"432 29 OFFCURVE",
"398 17 CURVE",
"395 0 LINE",
"676 0 LINE",
"678 16 LINE",
"655 25 OFFCURVE",
"630 32 OFFCURVE",
"607 37 CURVE",
"507 704 LINE",
"414 704 LINE",
"43 39 LINE",
"30 37 OFFCURVE",
"-11 27 OFFCURVE",
"-38 18 CURVE",
"-41 0 LINE"
);
},
{
closed = 1;
nodes = (
"496 179 LINE",
"505 224 LINE",
"176 224 LINE",
"168 179 LINE"
);
},
{
closed = 1;
nodes = (
"401 813 OFFCURVE",
"468 868 OFFCURVE",
"499 904 CURVE",
"503 904 LINE",
"519 868 OFFCURVE",
"562 813 OFFCURVE",
"595 782 CURVE",
"654 823 LINE",
"619 851 OFFCURVE",
"559 922 OFFCURVE",
"541 959 CURVE",
"482 959 LINE",
"450 922 OFFCURVE",
"360 851 OFFCURVE",
"314 823 CURVE",
"358 782 LINE"
);
}
);
width = 729;
}
);
leftKerningGroup = A;
note = Acircumflex;
rightKerningGroup = A;
unicode = 00C2;
},
{
glyphname = Acircumflexacute;
lastChange = "2015-11-29 14:55:12 +0000";
layers = (
{
layerId = "097E1CCD-D4DB-46B5-97AF-AA821C3DB512";
name = "Bold Italic";
paths = (
{
closed = 1;
nodes = (
"182 0 LINE",
"184 14 LINE",
"163 24 OFFCURVE",
"140 32 OFFCURVE",
"110 36 CURVE",
"407 576 LINE",
"479 37 LINE",
"458 34 OFFCURVE",
"432 29 OFFCURVE",
"398 17 CURVE",
"395 0 LINE",
"676 0 LINE",
"678 16 LINE",
"655 25 OFFCURVE",
"630 32 OFFCURVE",
"607 37 CURVE",
"507 704 LINE",
"414 704 LINE",
"43 39 LINE",
"30 37 OFFCURVE",
"-11 27 OFFCURVE",
"-38 18 CURVE",
"-41 0 LINE"
);
},
{
closed = 1;
nodes = (
"496 179 LINE",
"505 224 LINE",
"176 224 LINE",
"168 179 LINE"
);
},
{
closed = 1;
nodes = (
"403 813 OFFCURVE",
"468 868 OFFCURVE",
"500 904 CURVE",
"504 904 LINE",
"520 868 OFFCURVE",
"563 813 OFFCURVE",
"596 782 CURVE",
"654 823 LINE",
"621 851 OFFCURVE",
"560 922 OFFCURVE",
"542 959 CURVE",
"483 959 LINE",
"451 922 OFFCURVE",
"361 851 OFFCURVE",
"314 823 CURVE",
"359 782 LINE"
);
},
{
closed = 1;
nodes = (
"742 967 LINE SMOOTH",
"784 987 OFFCURVE",
"807 1012 OFFCURVE",
"811 1033 CURVE",
"815 1050 OFFCURVE",
"805 1066 OFFCURVE",
"782 1066 CURVE SMOOTH",
"761 1066 OFFCURVE",
"734 1051 OFFCURVE",
"705 1024 CURVE SMOOTH",
"619 942 LINE",
"632 915 LINE"
);
}
);
width = 729;
}
);
leftKerningGroup = A;
note = Acircumflexacute;
rightKerningGroup = A;
unicode = 1EA4;
},
{
glyphname = Acircumflexdotbelow;
lastChange = "2015-11-29 14:55:11 +0000";
layers = (
{
layerId = "097E1CCD-D4DB-46B5-97AF-AA821C3DB512";
name = "Bold Italic";
paths = (
{
closed = 1;
nodes = (
"182 0 LINE",
"184 14 LINE",
"163 24 OFFCURVE",
"140 32 OFFCURVE",
"110 36 CURVE",
"407 576 LINE",
"479 37 LINE",
"458 34 OFFCURVE",
"432 29 OFFCURVE",
"398 17 CURVE",
"395 0 LINE",
"676 0 LINE",
"678 16 LINE",
"655 25 OFFCURVE",
"630 32 OFFCURVE",
"607 37 CURVE",
"507 704 LINE",
"414 704 LINE",
"43 39 LINE",
"30 37 OFFCURVE",
"-11 27 OFFCURVE",
"-38 18 CURVE",
"-41 0 LINE"
);
},
{
closed = 1;
nodes = (
"317 -169 OFFCURVE",
"343 -145 OFFCURVE",
"349 -113 CURVE SMOOTH",
"356 -80 OFFCURVE",
"340 -56 OFFCURVE",
"308 -56 CURVE SMOOTH",
"275 -56 OFFCURVE",
"248 -80 OFFCURVE",
"242 -113 CURVE SMOOTH",
"236 -145 OFFCURVE",
"252 -169 OFFCURVE",
"285 -169 CURVE SMOOTH"
);
},
{
closed = 1;
nodes = (
"496 179 LINE",
"505 224 LINE",
"176 224 LINE",
"168 179 LINE"
);
},
{
closed = 1;
nodes = (
"402 812 OFFCURVE",
"469 867 OFFCURVE",
"500 903 CURVE",
"504 903 LINE",
"520 867 OFFCURVE",
"563 812 OFFCURVE",
"596 781 CURVE",
"655 822 LINE",
"620 850 OFFCURVE",
"560 921 OFFCURVE",
"542 958 CURVE",
"483 958 LINE",
"451 921 OFFCURVE",
"361 850 OFFCURVE",
"315 822 CURVE",
"359 781 LINE"
);
}
);
width = 729;
}
);
leftKerningGroup = A;
note = Acircumflexdotbelow;
rightKerningGroup = A;
unicode = 1EAC;
},
{
glyphname = Acircumflexgrave;
lastChange = "2015-11-29 14:55:10 +0000";
layers = (
{
layerId = "097E1CCD-D4DB-46B5-97AF-AA821C3DB512";
name = "Bold Italic";
paths = (
{
closed = 1;
nodes = (
"182 0 LINE",
"184 14 LINE",
"163 24 OFFCURVE",
"140 32 OFFCURVE",
"110 36 CURVE",
"407 576 LINE",
"479 37 LINE",
"458 34 OFFCURVE",
"432 29 OFFCURVE",
"398 17 CURVE",
"395 0 LINE",
"676 0 LINE",
"678 16 LINE",
"655 25 OFFCURVE",
"630 32 OFFCURVE",
"607 37 CURVE",
"507 704 LINE",
"414 704 LINE",
"43 39 LINE",
"30 37 OFFCURVE",
"-11 27 OFFCURVE",
"-38 18 CURVE",
"-41 0 LINE"
);
},
{
closed = 1;
nodes = (
"496 179 LINE",
"505 224 LINE",
"176 224 LINE",
"168 179 LINE"
);
},
{
closed = 1;
nodes = (
"403 942 LINE",
"349 1024 LINE SMOOTH",
"331 1051 OFFCURVE",
"310 1066 OFFCURVE",
"289 1066 CURVE SMOOTH",
"266 1066 OFFCURVE",
"250 1050 OFFCURVE",
"246 1033 CURVE",
"243 1012 OFFCURVE",
"256 988 OFFCURVE",
"290 967 CURVE SMOOTH",
"377 915 LINE"
);
},
{
closed = 1;
nodes = (
"403 813 OFFCURVE",
"468 868 OFFCURVE",
"500 904 CURVE",
"504 904 LINE",
"520 868 OFFCURVE",
"563 813 OFFCURVE",
"596 782 CURVE",
"654 823 LINE",
"621 851 OFFCURVE",
"560 922 OFFCURVE",
"542 959 CURVE",
"483 959 LINE",
"451 922 OFFCURVE",
"361 851 OFFCURVE",
"314 823 CURVE",
"359 782 LINE"
);
}
);
width = 729;
}
);
leftKerningGroup = A;
note = Acircumflexgrave;
rightKerningGroup = A;
unicode = 1EA6;
},
{
glyphname = Acircumflexhookabove;
lastChange = "2015-11-29 14:55:12 +0000";
layers = (
{
layerId = "097E1CCD-D4DB-46B5-97AF-AA821C3DB512";
name = "Bold Italic";
paths = (
{
closed = 1;
nodes = (
"182 0 LINE",
"184 14 LINE",
"163 24 OFFCURVE",
"140 32 OFFCURVE",
"110 36 CURVE",
"407 576 LINE",
"479 37 LINE",
"458 34 OFFCURVE",
"432 29 OFFCURVE",
"398 17 CURVE",
"395 0 LINE",
"676 0 LINE",
"678 16 LINE",
"655 25 OFFCURVE",
"630 32 OFFCURVE",
"607 37 CURVE",
"507 704 LINE",
"414 704 LINE",
"43 39 LINE",
"30 37 OFFCURVE",
"-11 27 OFFCURVE",
"-38 18 CURVE",
"-41 0 LINE"
);
},
{
closed = 1;
nodes = (
"496 179 LINE",
"505 224 LINE",
"176 224 LINE",
"168 179 LINE"
);
},
{
closed = 1;
nodes = (
"403 813 OFFCURVE",
"468 868 OFFCURVE",
"500 904 CURVE",
"504 904 LINE",
"520 868 OFFCURVE",
"563 813 OFFCURVE",
"596 782 CURVE",
"654 823 LINE",
"621 851 OFFCURVE",
"560 922 OFFCURVE",
"542 959 CURVE",
"483 959 LINE",
"451 922 OFFCURVE",
"361 851 OFFCURVE",
"314 823 CURVE",
"359 782 LINE"
);
},
{
closed = 1;
nodes = (
"659 918 LINE",
"678 969 LINE",
"723 973 OFFCURVE",
"759 992 OFFCURVE",
"770 1040 CURVE SMOOTH",
"780 1093 OFFCURVE",
"736 1114 OFFCURVE",
"688 1114 CURVE SMOOTH",
"661 1114 OFFCURVE",
"634 1107 OFFCURVE",
"617 1100 CURVE",
"616 1067 LINE",
"633 1075 OFFCURVE",
"653 1079 OFFCURVE",
"669 1079 CURVE SMOOTH",
"702 1079 OFFCURVE",
"716 1062 OFFCURVE",
"712 1041 CURVE SMOOTH",
"705 1010 OFFCURVE",
"679 997 OFFCURVE",
"652 997 CURVE SMOOTH",
"625 997 LINE",
"614 918 LINE"
);
}
);
width = 729;
}
);
leftKerningGroup = A;
note = Acircumflexhookabove;
rightKerningGroup = A;
unicode = 1EA8;
},
{
glyphname = Acircumflextilde;
lastChange = "2015-11-29 14:55:10 +0000";
layers = (
{
layerId = "097E1CCD-D4DB-46B5-97AF-AA821C3DB512";
name = "Bold Italic";
paths = (
{
closed = 1;
nodes = (
"182 0 LINE",
"184 14 LINE",
"163 24 OFFCURVE",
"140 32 OFFCURVE",
"110 36 CURVE",
"407 576 LINE",
"479 37 LINE",
"458 34 OFFCURVE",
"432 29 OFFCURVE",
"398 17 CURVE",
"395 0 LINE",
"676 0 LINE",
"678 16 LINE",
"655 25 OFFCURVE",
"630 32 OFFCURVE",
"607 37 CURVE",
"507 704 LINE",
"414 704 LINE",
"43 39 LINE",
"30 37 OFFCURVE",
"-11 27 OFFCURVE",
"-38 18 CURVE",
"-41 0 LINE"
);
},
{
closed = 1;
nodes = (
"496 179 LINE",
"505 224 LINE",
"176 224 LINE",
"168 179 LINE"
);
},
{
closed = 1;
nodes = (
"403 813 OFFCURVE",
"468 868 OFFCURVE",
"500 904 CURVE",
"504 904 LINE",
"520 868 OFFCURVE",
"563 813 OFFCURVE",
"596 782 CURVE",
"654 823 LINE",
"621 851 OFFCURVE",
"560 922 OFFCURVE",
"542 959 CURVE",
"483 959 LINE",
"451 922 OFFCURVE",
"361 851 OFFCURVE",
"314 823 CURVE",
"359 782 LINE"
);
},
{
closed = 1;
nodes = (
"391 988 LINE",
"405 1021 OFFCURVE",
"433 1042 OFFCURVE",
"462 1042 CURVE SMOOTH",
"503 1042 OFFCURVE",
"540 989 OFFCURVE",
"594 989 CURVE SMOOTH",
"660 989 OFFCURVE",
"702 1033 OFFCURVE",
"724 1101 CURVE",
"681 1101 LINE",
"662 1057 OFFCURVE",
"629 1045 OFFCURVE",
"605 1045 CURVE SMOOTH",
"566 1045 OFFCURVE",
"541 1098 OFFCURVE",
"478 1098 CURVE SMOOTH",
"417 1098 OFFCURVE",
"371 1062 OFFCURVE",
"347 988 CURVE"
);
}
);
width = 729;
}
);
leftKerningGroup = A;
note = Acircumflextilde;
rightKerningGroup = A;
unicode = 1EAA;
},
{
glyphname = Adieresis;
lastChange = "2015-11-29 14:55:11 +0000";
layers = (
{
layerId = "097E1CCD-D4DB-46B5-97AF-AA821C3DB512";
name = "Bold Italic";
paths = (
{
closed = 1;
nodes = (
"182 0 LINE",
"184 14 LINE",
"163 24 OFFCURVE",
"140 32 OFFCURVE",
"110 36 CURVE",
"407 576 LINE",
"479 37 LINE",
"458 34 OFFCURVE",
"432 29 OFFCURVE",
"398 17 CURVE",
"395 0 LINE",
"676 0 LINE",
"678 16 LINE",
"655 25 OFFCURVE",
"630 32 OFFCURVE",
"607 37 CURVE",
"507 704 LINE",
"414 704 LINE",
"43 39 LINE",
"30 37 OFFCURVE",
"-11 27 OFFCURVE",
"-38 18 CURVE",
"-41 0 LINE"
);
},
{
closed = 1;
nodes = (
"496 179 LINE",
"505 224 LINE",
"176 224 LINE",
"168 179 LINE"
);
},
{
closed = 1;
nodes = (
"384 785 OFFCURVE",
"411 809 OFFCURVE",
"416 841 CURVE SMOOTH",
"423 874 OFFCURVE",
"407 898 OFFCURVE",
"373 898 CURVE SMOOTH",
"342 898 OFFCURVE",
"316 874 OFFCURVE",
"310 841 CURVE SMOOTH",
"304 809 OFFCURVE",
"319 785 OFFCURVE",
"350 785 CURVE SMOOTH"
);
},
{
closed = 1;
nodes = (
"607 785 OFFCURVE",
"634 809 OFFCURVE",
"640 841 CURVE SMOOTH",
"647 874 OFFCURVE",
"630 898 OFFCURVE",
"598 898 CURVE SMOOTH",
"564 898 OFFCURVE",
"539 874 OFFCURVE",
"532 841 CURVE SMOOTH",
"527 809 OFFCURVE",
"541 785 OFFCURVE",
"575 785 CURVE SMOOTH"
);
}
);
width = 729;
}
);
leftKerningGroup = A;
note = Adieresis;
rightKerningGroup = A;
unicode = 00C4;
},
{
glyphname = Adotbelow;
lastChange = "2015-11-29 14:55:11 +0000";
layers = (
{
layerId = "097E1CCD-D4DB-46B5-97AF-AA821C3DB512";
name = "Bold Italic";
paths = (
{
closed = 1;
nodes = (
"182 0 LINE",
"184 14 LINE",
"163 24 OFFCURVE",
"140 32 OFFCURVE",
"110 36 CURVE",
"407 576 LINE",
"479 37 LINE",
"458 34 OFFCURVE",
"432 29 OFFCURVE",
"398 17 CURVE",
"395 0 LINE",
"676 0 LINE",
"678 16 LINE",
"655 25 OFFCURVE",
"630 32 OFFCURVE",
"607 37 CURVE",
"507 704 LINE",
"414 704 LINE",
"43 39 LINE",
"30 37 OFFCURVE",
"-11 27 OFFCURVE",
"-38 18 CURVE",
"-41 0 LINE"
);
},
{
closed = 1;
nodes = (
"316 -169 OFFCURVE",
"341 -145 OFFCURVE",
"347 -113 CURVE SMOOTH",
"354 -80 OFFCURVE",
"339 -56 OFFCURVE",
"306 -56 CURVE SMOOTH",
"273 -56 OFFCURVE",
"246 -80 OFFCURVE",
"240 -113 CURVE SMOOTH",
"234 -145 OFFCURVE",
"250 -169 OFFCURVE",
"283 -169 CURVE SMOOTH"
);
},
{
closed = 1;
nodes = (
"496 179 LINE",
"505 224 LINE",
"176 224 LINE",
"168 179 LINE"
);
}
);
width = 729;
}
);
leftKerningGroup = A;
note = Adotbelow;
rightKerningGroup = A;
unicode = 1EA0;
},
{
glyphname = Agrave;
lastChange = "2015-11-29 14:55:12 +0000";
layers = (
{
layerId = "097E1CCD-D4DB-46B5-97AF-AA821C3DB512";
name = "Bold Italic";
paths = (
{
closed = 1;
nodes = (
"182 0 LINE",
"184 14 LINE",
"163 24 OFFCURVE",
"140 32 OFFCURVE",
"110 36 CURVE",
"407 576 LINE",
"479 37 LINE",
"458 34 OFFCURVE",
"432 29 OFFCURVE",
"398 17 CURVE",
"395 0 LINE",
"676 0 LINE",
"678 16 LINE",
"655 25 OFFCURVE",
"630 32 OFFCURVE",
"607 37 CURVE",
"507 704 LINE",
"414 704 LINE",
"43 39 LINE",
"30 37 OFFCURVE",
"-11 27 OFFCURVE",
"-38 18 CURVE",
"-41 0 LINE"
);
},
{
closed = 1;
nodes = (
"496 179 LINE",
"505 224 LINE",
"176 224 LINE",
"168 179 LINE"
);
},
{
closed = 1;
nodes = (
"570 817 LINE",
"479 937 LINE SMOOTH",
"473 945 OFFCURVE",
"453 967 OFFCURVE",
"426 967 CURVE SMOOTH",
"401 967 OFFCURVE",
"385 946 OFFCURVE",
"381 929 CURVE",
"377 908 OFFCURVE",
"388 892 OFFCURVE",
"413 875 CURVE SMOOTH",
"543 786 LINE"
);
}
);
width = 729;
}
);
leftKerningGroup = A;
note = Agrave;
rightKerningGroup = A;
unicode = 00C0;
},
{
glyphname = Ahookabove;
lastChange = "2015-11-29 14:55:12 +0000";
layers = (
{
layerId = "097E1CCD-D4DB-46B5-97AF-AA821C3DB512";
name = "Bold Italic";
paths = (
{
closed = 1;
nodes = (
"182 0 LINE",
"184 14 LINE",
"163 24 OFFCURVE",
"140 32 OFFCURVE",
"110 36 CURVE",
"407 576 LINE",
"479 37 LINE",
"458 34 OFFCURVE",
"432 29 OFFCURVE",
"398 17 CURVE",
"395 0 LINE",
"676 0 LINE",
"678 16 LINE",
"655 25 OFFCURVE",
"630 32 OFFCURVE",
"607 37 CURVE",
"507 704 LINE",
"414 704 LINE",
"43 39 LINE",
"30 37 OFFCURVE",
"-11 27 OFFCURVE",
"-38 18 CURVE",
"-41 0 LINE"
);
},
{
closed = 1;
nodes = (
"496 179 LINE",
"505 224 LINE",
"176 224 LINE",
"168 179 LINE"
);
},
{
closed = 1;
nodes = (
"506 781 LINE",
"530 849 LINE",
"582 854 OFFCURVE",
"622 876 OFFCURVE",
"633 931 CURVE SMOOTH",
"646 994 OFFCURVE",
"598 1018 OFFCURVE",
"543 1018 CURVE SMOOTH",
"512 1018 OFFCURVE",
"481 1010 OFFCURVE",
"460 1001 CURVE",
"459 965 LINE",
"482 976 OFFCURVE",
"504 981 OFFCURVE",
"521 981 CURVE SMOOTH",
"559 981 OFFCURVE",
"575 958 OFFCURVE",
"570 933 CURVE SMOOTH",
"562 897 OFFCURVE",
"532 881 OFFCURVE",
"501 881 CURVE SMOOTH",
"469 881 LINE",
"454 781 LINE"
);
}
);
width = 729;
}
);
leftKerningGroup = A;
note = Ahookabove;
rightKerningGroup = A;
unicode = 1EA2;
},
{
glyphname = Amacron;
lastChange = "2015-11-29 14:55:10 +0000";
layers = (
{
layerId = "097E1CCD-D4DB-46B5-97AF-AA821C3DB512";
name = "Bold Italic";
paths = (
{
closed = 1;
nodes = (
"182 0 LINE",
"184 14 LINE",
"163 24 OFFCURVE",
"140 32 OFFCURVE",
"110 36 CURVE",
"407 576 LINE",
"479 37 LINE",
"458 34 OFFCURVE",
"432 29 OFFCURVE",
"398 17 CURVE",
"395 0 LINE",
"676 0 LINE",
"678 16 LINE",
"655 25 OFFCURVE",
"630 32 OFFCURVE",
"607 37 CURVE",
"507 704 LINE",
"414 704 LINE",
"43 39 LINE",
"30 37 OFFCURVE",
"-11 27 OFFCURVE",
"-38 18 CURVE",
"-41 0 LINE"
);
},
{
closed = 1;
nodes = (
"496 179 LINE",
"505 224 LINE",
"176 224 LINE",
"168 179 LINE"
);
},
{
closed = 1;
nodes = (
"656 785 LINE",
"665 829 LINE",
"310 829 LINE",
"301 785 LINE"
);
}
);
width = 729;
}
);
leftKerningGroup = A;
note = Amacron;
rightKerningGroup = A;
unicode = 0100;
},
{
glyphname = Aogonek;
lastChange = "2015-11-29 14:55:12 +0000";
layers = (
{
layerId = "097E1CCD-D4DB-46B5-97AF-AA821C3DB512";
name = "Bold Italic";
paths = (
{
closed = 1;
nodes = (
"182 0 LINE",
"184 14 LINE",
"163 24 OFFCURVE",
"140 32 OFFCURVE",
"110 36 CURVE",
"407 576 LINE",
"479 37 LINE",
"458 34 OFFCURVE",
"432 29 OFFCURVE",
"398 17 CURVE",
"395 0 LINE",
"676 0 LINE",
"678 16 LINE",
"655 25 OFFCURVE",
"630 32 OFFCURVE",
"607 37 CURVE",
"507 704 LINE",
"414 704 LINE",
"43 39 LINE",
"30 37 OFFCURVE",
"-11 27 OFFCURVE",
"-38 18 CURVE",
"-41 0 LINE"
);
},
{
closed = 1;
nodes = (
"633 -200 OFFCURVE",
"672 -191 OFFCURVE",
"699 -177 CURVE",
"710 -121 LINE",
"685 -134 OFFCURVE",
"663 -140 OFFCURVE",
"646 -140 CURVE SMOOTH",
"612 -140 OFFCURVE",
"591 -120 OFFCURVE",
"598 -88 CURVE SMOOTH",
"604 -55 OFFCURVE",
"637 -19 OFFCURVE",
"669 0 CURVE",
"606 0 LINE",
"547 -19 OFFCURVE",
"506 -68 OFFCURVE",
"496 -113 CURVE SMOOTH",
"486 -163 OFFCURVE",
"521 -200 OFFCURVE",
"596 -200 CURVE SMOOTH"
);
},
{
closed = 1;
nodes = (
"496 179 LINE",
"505 224 LINE",
"176 224 LINE",
"168 179 LINE"
);
}
);
width = 729;
}
);
leftKerningGroup = A;
note = Aogonek;
rightKerningGroup = A;
unicode = 0104;
},
{
glyphname = Aring;
lastChange = "2015-11-29 14:55:11 +0000";
layers = (
{
layerId = "097E1CCD-D4DB-46B5-97AF-AA821C3DB512";
name = "Bold Italic";
paths = (
{
closed = 1;
nodes = (
"182 0 LINE",
"184 14 LINE",
"163 24 OFFCURVE",
"140 32 OFFCURVE",
"110 36 CURVE",
"407 576 LINE",
"479 37 LINE",
"458 34 OFFCURVE",
"432 29 OFFCURVE",
"398 17 CURVE",
"395 0 LINE",
"676 0 LINE",
"678 16 LINE",
"655 25 OFFCURVE",
"630 32 OFFCURVE",
"607 37 CURVE",
"507 704 LINE",
"414 704 LINE",
"43 39 LINE",
"30 37 OFFCURVE",
"-11 27 OFFCURVE",
"-38 18 CURVE",
"-41 0 LINE"
);
},
{
closed = 1;
nodes = (
"496 179 LINE",
"505 224 LINE",
"176 224 LINE",
"168 179 LINE"
);
},
{
closed = 1;
nodes = (
"526 743 OFFCURVE",
"574 782 OFFCURVE",
"585 840 CURVE SMOOTH",
"598 898 OFFCURVE",
"565 938 OFFCURVE",
"507 938 CURVE SMOOTH",
"447 938 OFFCURVE",
"399 898 OFFCURVE",
"387 840 CURVE SMOOTH",
"375 782 OFFCURVE",
"408 743 OFFCURVE",
"467 743 CURVE SMOOTH"
);
},
{
closed = 1;
nodes = (
"443 784 OFFCURVE",
"423 806 OFFCURVE",
"430 840 CURVE SMOOTH",
"437 874 OFFCURVE",
"466 896 OFFCURVE",
"498 896 CURVE SMOOTH",
"530 896 OFFCURVE",
"549 874 OFFCURVE",
"541 840 CURVE SMOOTH",
"534 806 OFFCURVE",
"507 784 OFFCURVE",
"475 784 CURVE SMOOTH"
);
}
);
width = 729;
}
);
leftKerningGroup = A;
note = Aring;
rightKerningGroup = A;
unicode = 00C5;
},
{
glyphname = Aringacute;
lastChange = "2015-11-29 14:55:11 +0000";
layers = (
{
layerId = "097E1CCD-D4DB-46B5-97AF-AA821C3DB512";
name = "Bold Italic";
paths = (
{
closed = 1;
nodes = (
"182 0 LINE",
"184 14 LINE",
"163 24 OFFCURVE",
"140 32 OFFCURVE",
"110 36 CURVE",
"407 576 LINE",
"479 37 LINE",
"458 34 OFFCURVE",
"432 29 OFFCURVE",
"398 17 CURVE",
"395 0 LINE",
"676 0 LINE",
"678 16 LINE",
"655 25 OFFCURVE",
"630 32 OFFCURVE",
"607 37 CURVE",
"507 704 LINE",
"414 704 LINE",
"43 39 LINE",
"30 37 OFFCURVE",
"-11 27 OFFCURVE",
"-38 18 CURVE",
"-41 0 LINE"
);
},
{
closed = 1;
nodes = (
"496 179 LINE",
"505 224 LINE",
"176 224 LINE",
"168 179 LINE"
);
},
{
closed = 1;
nodes = (
"526 741 OFFCURVE",
"574 780 OFFCURVE",
"585 838 CURVE SMOOTH",
"598 896 OFFCURVE",
"565 936 OFFCURVE",
"507 936 CURVE SMOOTH",
"447 936 OFFCURVE",
"399 896 OFFCURVE",
"387 838 CURVE SMOOTH",
"375 780 OFFCURVE",
"408 741 OFFCURVE",
"467 741 CURVE SMOOTH"
);
},
{
closed = 1;
nodes = (
"443 782 OFFCURVE",
"423 804 OFFCURVE",
"430 838 CURVE SMOOTH",
"437 872 OFFCURVE",
"466 894 OFFCURVE",
"498 894 CURVE SMOOTH",
"530 894 OFFCURVE",
"549 872 OFFCURVE",
"541 838 CURVE SMOOTH",
"534 804 OFFCURVE",
"507 782 OFFCURVE",
"475 782 CURVE SMOOTH"
);
},
{
closed = 1;
nodes = (
"615 1049 LINE SMOOTH",
"646 1066 OFFCURVE",
"664 1083 OFFCURVE",
"668 1104 CURVE",
"672 1121 OFFCURVE",
"665 1141 OFFCURVE",
"636 1141 CURVE SMOOTH",
"607 1141 OFFCURVE",
"580 1117 OFFCURVE",
"574 1110 CURVE",
"434 991 LINE",
"449 960 LINE"
);
}
);
width = 729;
}
);
leftKerningGroup = A;
note = Aringacute;
rightKerningGroup = A;
unicode = 01FA;
},
{
glyphname = Atilde;
lastChange = "2015-11-29 14:55:10 +0000";
layers = (
{
layerId = "097E1CCD-D4DB-46B5-97AF-AA821C3DB512";
name = "Bold Italic";
paths = (
{
closed = 1;
nodes = (
"182 0 LINE",
"184 14 LINE",
"163 24 OFFCURVE",
"140 32 OFFCURVE",
"110 36 CURVE",
"407 576 LINE",
"479 37 LINE",
"458 34 OFFCURVE",
"432 29 OFFCURVE",
"398 17 CURVE",
"395 0 LINE",
"676 0 LINE",
"678 16 LINE",
"655 25 OFFCURVE",
"630 32 OFFCURVE",
"607 37 CURVE",
"507 704 LINE",
"414 704 LINE",
"43 39 LINE",
"30 37 OFFCURVE",
"-11 27 OFFCURVE",
"-38 18 CURVE",
"-41 0 LINE"
);
},
{
closed = 1;
nodes = (
"496 179 LINE",
"505 224 LINE",
"176 224 LINE",
"168 179 LINE"
);
},
{
closed = 1;
nodes = (
"342 786 LINE",
"356 819 OFFCURVE",
"382 840 OFFCURVE",
"411 840 CURVE SMOOTH",
"447 840 OFFCURVE",
"495 786 OFFCURVE",
"549 786 CURVE SMOOTH",
"617 786 OFFCURVE",
"658 832 OFFCURVE",
"680 900 CURVE",
"631 900 LINE",
"612 855 OFFCURVE",
"584 844 OFFCURVE",
"558 844 CURVE SMOOTH",
"519 844 OFFCURVE",
"487 897 OFFCURVE",
"423 897 CURVE SMOOTH",
"363 897 OFFCURVE",
"316 860 OFFCURVE",
"292 786 CURVE"
);
}
);
width = 729;
}
);
leftKerningGroup = A;
note = Atilde;
rightKerningGroup = A;
unicode = 00C3;
},
{
glyphname = AE;
lastChange = "2015-11-29 14:55:11 +0000";
layers = (
{
layerId = "097E1CCD-D4DB-46B5-97AF-AA821C3DB512";
name = "Bold Italic";
paths = (
{
closed = 1;
nodes = (
"189 0 LINE",
"191 14 LINE",
"170 24 OFFCURVE",
"142 32 OFFCURVE",
"112 36 CURVE",
"222 179 LINE",
"466 179 LINE",
"436 36 LINE",
"406 32 OFFCURVE",
"377 24 OFFCURVE",
"351 16 CURVE",
"348 0 LINE",
"877 0 LINE",
"927 165 LINE",
"898 165 LINE",
"879 144 OFFCURVE",
"839 78 OFFCURVE",
"829 44 CURVE",
"567 44 LINE",
"627 336 LINE",
"805 336 LINE",
"803 319 OFFCURVE",
"803 280 OFFCURVE",
"807 251 CURVE",
"828 251 LINE",
"872 467 LINE",
"851 467 LINE",
"835 440 OFFCURVE",
"820 400 OFFCURVE",
"815 382 CURVE",
"636 382 LINE",
"692 654 LINE",
"949 654 LINE",
"944 625 OFFCURVE",
"949 555 OFFCURVE",
"958 533 CURVE",
"987 533 LINE",
"1020 700 LINE",
"487 700 LINE",
"484 684 LINE",
"499 677 OFFCURVE",
"515 673 OFFCURVE",
"531 669 CURVE",
"40 38 LINE",
"14 32 OFFCURVE",
"-10 26 OFFCURVE",
"-38 16 CURVE",
"-41 0 LINE"
);
},
{
closed = 1;
nodes = (
"555 613 LINE",
"475 224 LINE",
"256 224 LINE"
);
}
);
width = 981;
}
);
leftKerningGroup = A;
note = AE;
unicode = 00C6;
},
{
glyphname = AEacute;
lastChange = "2015-11-29 14:55:11 +0000";
layers = (
{
layerId = "097E1CCD-D4DB-46B5-97AF-AA821C3DB512";
name = "Bold Italic";
paths = (
{
closed = 1;
nodes = (
"189 0 LINE",
"191 14 LINE",
"170 24 OFFCURVE",
"142 32 OFFCURVE",
"112 36 CURVE",
"222 179 LINE",
"466 179 LINE",
"436 36 LINE",
"406 32 OFFCURVE",
"377 24 OFFCURVE",
"351 16 CURVE",
"348 0 LINE",
"877 0 LINE",
"927 165 LINE",
"898 165 LINE",
"879 144 OFFCURVE",
"839 78 OFFCURVE",
"829 44 CURVE",
"567 44 LINE",
"627 336 LINE",
"805 336 LINE",
"803 319 OFFCURVE",
"803 280 OFFCURVE",
"807 251 CURVE",
"828 251 LINE",
"872 467 LINE",
"851 467 LINE",
"835 440 OFFCURVE",
"820 400 OFFCURVE",
"815 382 CURVE",
"636 382 LINE",
"692 654 LINE",
"949 654 LINE",
"944 625 OFFCURVE",
"949 555 OFFCURVE",
"958 533 CURVE",
"987 533 LINE",
"1020 700 LINE",
"487 700 LINE",
"484 684 LINE",
"499 677 OFFCURVE",
"515 673 OFFCURVE",
"531 669 CURVE",
"40 38 LINE",
"14 32 OFFCURVE",
"-10 26 OFFCURVE",
"-38 16 CURVE",
"-41 0 LINE"
);
},
{
closed = 1;
nodes = (
"555 613 LINE",
"475 224 LINE",
"256 224 LINE"
);
},
{
closed = 1;
nodes = (
"879 875 LINE SMOOTH",
"910 892 OFFCURVE",
"928 909 OFFCURVE",
"932 930 CURVE",
"936 947 OFFCURVE",
"929 967 OFFCURVE",
"900 967 CURVE SMOOTH",
"871 967 OFFCURVE",
"844 943 OFFCURVE",
"838 936 CURVE",
"698 817 LINE",
"713 786 LINE"
);
}
);
width = 981;
}
);
leftKerningGroup = A;
note = AEacute;
unicode = 01FC;
},
{
glyphname = B;
lastChange = "2015-11-29 14:55:12 +0000";
layers = (
{
layerId = "097E1CCD-D4DB-46B5-97AF-AA821C3DB512";
name = "Bold Italic";
paths = (
{
closed = 1;
nodes = (
"310 0 LINE SMOOTH",
"475 0 OFFCURVE",
"549 68 OFFCURVE",
"575 193 CURVE SMOOTH",
"588 261 OFFCURVE",
"569 344 OFFCURVE",
"460 367 CURVE",
"460 373 LINE",
"551 396 OFFCURVE",
"603 466 OFFCURVE",
"616 536 CURVE SMOOTH",
"638 644 OFFCURVE",
"589 700 OFFCURVE",
"422 700 CURVE SMOOTH",
"122 700 LINE",
"119 683 LINE",
"145 673 OFFCURVE",
"169 667 OFFCURVE",
"192 663 CURVE",
"65 38 LINE",
"42 35 OFFCURVE",
"24 30 OFFCURVE",
"-18 15 CURVE",
"-20 0 LINE"
);
},
{
closed = 1;
nodes = (
"257 345 LINE",
"351 345 LINE SMOOTH",
"431 345 OFFCURVE",
"466 294 OFFCURVE",
"447 198 CURVE SMOOTH",
"427 99 OFFCURVE",
"381 44 OFFCURVE",
"302 44 CURVE SMOOTH",
"196 44 LINE"
);
},
{
closed = 1;
nodes = (
"320 654 LINE",
"397 654 LINE SMOOTH",
"478 654 OFFCURVE",
"502 615 OFFCURVE",
"484 529 CURVE SMOOTH",
"467 445 OFFCURVE",
"417 390 OFFCURVE",
"339 390 CURVE SMOOTH",
"266 390 LINE"
);
}
);
width = 605;
}
);
note = B;
unicode = 0042;
},
{
glyphname = C;
lastChange = "2015-11-29 14:55:12 +0000";
layers = (
{
layerId = "097E1CCD-D4DB-46B5-97AF-AA821C3DB512";
name = "Bold Italic";
paths = (
{
closed = 1;
nodes = (
"404 -10 OFFCURVE",
"486 15 OFFCURVE",
"544 59 CURVE",
"533 96 LINE",
"466 54 OFFCURVE",
"393 37 OFFCURVE",
"345 37 CURVE SMOOTH",
"199 37 OFFCURVE",
"159 161 OFFCURVE",
"197 350 CURVE SMOOTH",
"236 538 OFFCURVE",
"339 663 OFFCURVE",
"484 663 CURVE SMOOTH",
"532 663 OFFCURVE",
"570 649 OFFCURVE",
"598 622 CURVE",
"593 581 OFFCURVE",
"590 528 OFFCURVE",
"594 496 CURVE",
"626 496 LINE",
"665 634 LINE",
"627 681 OFFCURVE",
"566 710 OFFCURVE",
"460 710 CURVE SMOOTH",
"250 710 OFFCURVE",
"110 572 OFFCURVE",
"65 350 CURVE SMOOTH",
"19 127 OFFCURVE",
"100 -10 OFFCURVE",
"316 -10 CURVE SMOOTH"
);
}
);
width = 623;
}
);
leftKerningGroup = C;
note = C;
unicode = 0043;
},
{
glyphname = Cacute;
lastChange = "2015-11-29 14:55:11 +0000";
layers = (
{
layerId = "097E1CCD-D4DB-46B5-97AF-AA821C3DB512";
name = "Bold Italic";
paths = (
{
closed = 1;
nodes = (
"404 -10 OFFCURVE",
"486 15 OFFCURVE",
"544 59 CURVE",
"533 96 LINE",
"466 54 OFFCURVE",
"393 37 OFFCURVE",
"345 37 CURVE SMOOTH",
"199 37 OFFCURVE",
"159 161 OFFCURVE",
"197 350 CURVE SMOOTH",
"236 538 OFFCURVE",
"339 663 OFFCURVE",
"484 663 CURVE SMOOTH",
"532 663 OFFCURVE",
"570 649 OFFCURVE",
"598 622 CURVE",
"593 581 OFFCURVE",
"590 528 OFFCURVE",
"594 496 CURVE",
"626 496 LINE",
"665 634 LINE",
"627 681 OFFCURVE",
"566 710 OFFCURVE",
"460 710 CURVE SMOOTH",
"250 710 OFFCURVE",
"110 572 OFFCURVE",
"65 350 CURVE SMOOTH",
"19 127 OFFCURVE",
"100 -10 OFFCURVE",
"316 -10 CURVE SMOOTH"
);
},
{
closed = 1;
nodes = (
"597 875 LINE SMOOTH",
"628 892 OFFCURVE",
"646 909 OFFCURVE",
"650 930 CURVE",
"653 947 OFFCURVE",
"647 967 OFFCURVE",
"618 967 CURVE SMOOTH",
"589 967 OFFCURVE",
"562 943 OFFCURVE",
"556 936 CURVE",
"415 817 LINE",
"431 786 LINE"
);
}
);
width = 623;
}
);
leftKerningGroup = C;
note = Cacute;
unicode = 0106;
},
{
glyphname = Ccaron;
lastChange = "2015-11-29 14:55:12 +0000";
layers = (
{
layerId = "097E1CCD-D4DB-46B5-97AF-AA821C3DB512";
name = "Bold Italic";
paths = (
{
closed = 1;
nodes = (
"404 -10 OFFCURVE",
"486 15 OFFCURVE",
"544 59 CURVE",
"533 96 LINE",
"466 54 OFFCURVE",
"393 37 OFFCURVE",
"345 37 CURVE SMOOTH",
"199 37 OFFCURVE",
"159 161 OFFCURVE",
"197 350 CURVE SMOOTH",
"236 538 OFFCURVE",
"339 663 OFFCURVE",
"484 663 CURVE SMOOTH",
"532 663 OFFCURVE",
"570 649 OFFCURVE",
"598 622 CURVE",
"593 581 OFFCURVE",
"590 528 OFFCURVE",
"594 496 CURVE",
"626 496 LINE",
"665 634 LINE",
"627 681 OFFCURVE",
"566 710 OFFCURVE",
"460 710 CURVE SMOOTH",
"250 710 OFFCURVE",
"110 572 OFFCURVE",
"65 350 CURVE SMOOTH",
"19 127 OFFCURVE",
"100 -10 OFFCURVE",
"316 -10 CURVE SMOOTH"
);
},
{
closed = 1;
nodes = (
"527 786 LINE",
"559 824 OFFCURVE",
"649 894 OFFCURVE",
"696 922 CURVE",
"652 963 LINE",
"607 932 OFFCURVE",
"541 877 OFFCURVE",
"509 841 CURVE",
"506 841 LINE",
"490 877 OFFCURVE",
"446 932 OFFCURVE",
"413 963 CURVE",
"355 922 LINE",
"389 894 OFFCURVE",
"450 824 OFFCURVE",
"467 786 CURVE"
);
}
);
width = 623;
}
);
leftKerningGroup = C;
note = Ccaron;
unicode = 010C;
},
{
glyphname = Ccedilla;
lastChange = "2015-11-29 14:55:12 +0000";
layers = (
{
layerId = "097E1CCD-D4DB-46B5-97AF-AA821C3DB512";
name = "Bold Italic";
paths = (
{
closed = 1;
nodes = (
"404 -10 OFFCURVE",
"486 15 OFFCURVE",
"544 59 CURVE",
"533 96 LINE",
"466 54 OFFCURVE",
"393 37 OFFCURVE",
"345 37 CURVE SMOOTH",
"199 37 OFFCURVE",
"159 161 OFFCURVE",
"197 350 CURVE SMOOTH",
"236 538 OFFCURVE",
"339 663 OFFCURVE",
"484 663 CURVE SMOOTH",
"532 663 OFFCURVE",
"570 649 OFFCURVE",
"598 622 CURVE",
"593 581 OFFCURVE",
"590 528 OFFCURVE",
"594 496 CURVE",
"626 496 LINE",
"665 634 LINE",
"627 681 OFFCURVE",
"566 710 OFFCURVE",
"460 710 CURVE SMOOTH",
"250 710 OFFCURVE",
"110 572 OFFCURVE",
"65 350 CURVE SMOOTH",
"19 127 OFFCURVE",
"100 -10 OFFCURVE",
"316 -10 CURVE SMOOTH"
);
},
{
closed = 1;
nodes = (
"314 -246 OFFCURVE",
"379 -213 OFFCURVE",
"393 -146 CURVE SMOOTH",
"402 -102 OFFCURVE",
"373 -67 OFFCURVE",
"298 -67 CURVE",
"353 15 LINE",
"296 15 LINE",
"236 -75 LINE",
"252 -107 LINE",
"259 -106 OFFCURVE",
"268 -105 OFFCURVE",
"275 -105 CURVE SMOOTH",
"303 -105 OFFCURVE",
"335 -114 OFFCURVE",
"329 -146 CURVE",
"320 -186 OFFCURVE",
"284 -200 OFFCURVE",
"242 -200 CURVE SMOOTH",
"218 -200 OFFCURVE",
"192 -194 OFFCURVE",
"174 -184 CURVE",
"148 -219 LINE",
"171 -237 OFFCURVE",
"208 -246 OFFCURVE",
"242 -246 CURVE SMOOTH"
);
}
);
width = 623;
}
);
leftKerningGroup = C;
note = Ccedilla;
unicode = 00C7;
},
{
glyphname = Ccircumflex;
lastChange = "2015-11-29 14:55:11 +0000";
layers = (
{
layerId = "097E1CCD-D4DB-46B5-97AF-AA821C3DB512";
name = "Bold Italic";
paths = (
{
closed = 1;
nodes = (
"404 -10 OFFCURVE",
"486 15 OFFCURVE",
"544 59 CURVE",
"533 96 LINE",
"466 54 OFFCURVE",
"393 37 OFFCURVE",
"345 37 CURVE SMOOTH",
"199 37 OFFCURVE",
"159 161 OFFCURVE",
"197 350 CURVE SMOOTH",
"236 538 OFFCURVE",
"339 663 OFFCURVE",
"484 663 CURVE SMOOTH",
"532 663 OFFCURVE",
"570 649 OFFCURVE",
"598 622 CURVE",
"593 581 OFFCURVE",
"590 528 OFFCURVE",
"594 496 CURVE",
"626 496 LINE",
"665 634 LINE",
"627 681 OFFCURVE",
"566 710 OFFCURVE",
"460 710 CURVE SMOOTH",
"250 710 OFFCURVE",
"110 572 OFFCURVE",
"65 350 CURVE SMOOTH",
"19 127 OFFCURVE",
"100 -10 OFFCURVE",
"316 -10 CURVE SMOOTH"
);
},
{
closed = 1;
nodes = (
"412 813 OFFCURVE",
"479 868 OFFCURVE",
"509 904 CURVE",
"513 904 LINE",
"530 868 OFFCURVE",
"573 813 OFFCURVE",
"605 782 CURVE",
"665 823 LINE",
"629 851 OFFCURVE",
"570 922 OFFCURVE",
"552 959 CURVE",
"492 959 LINE",
"460 922 OFFCURVE",
"370 851 OFFCURVE",
"324 823 CURVE",
"368 782 LINE"
);
}
);
width = 623;
}
);
leftKerningGroup = C;
note = Ccircumflex;
unicode = 0108;
},
{
glyphname = Cdotaccent;
lastChange = "2015-11-29 14:55:13 +0000";
layers = (
{
layerId = "097E1CCD-D4DB-46B5-97AF-AA821C3DB512";
name = "Bold Italic";
paths = (
{
closed = 1;
nodes = (
"404 -10 OFFCURVE",
"486 15 OFFCURVE",
"544 59 CURVE",
"533 96 LINE",
"466 54 OFFCURVE",
"393 37 OFFCURVE",
"345 37 CURVE SMOOTH",
"199 37 OFFCURVE",
"159 161 OFFCURVE",
"197 350 CURVE SMOOTH",
"236 538 OFFCURVE",
"339 663 OFFCURVE",
"484 663 CURVE SMOOTH",
"532 663 OFFCURVE",
"570 649 OFFCURVE",
"598 622 CURVE",
"593 581 OFFCURVE",
"590 528 OFFCURVE",
"594 496 CURVE",
"626 496 LINE",
"665 634 LINE",
"627 681 OFFCURVE",
"566 710 OFFCURVE",
"460 710 CURVE SMOOTH",
"250 710 OFFCURVE",
"110 572 OFFCURVE",
"65 350 CURVE SMOOTH",
"19 127 OFFCURVE",
"100 -10 OFFCURVE",
"316 -10 CURVE SMOOTH"
);
},
{
closed = 1;
nodes = (
"529 785 OFFCURVE",
"556 809 OFFCURVE",
"561 841 CURVE SMOOTH",
"568 874 OFFCURVE",
"552 898 OFFCURVE",
"520 898 CURVE SMOOTH",
"486 898 OFFCURVE",
"461 874 OFFCURVE",
"455 841 CURVE SMOOTH",
"449 809 OFFCURVE",
"463 785 OFFCURVE",
"497 785 CURVE SMOOTH"
);
}
);
width = 623;
}
);
leftKerningGroup = C;
note = Cdotaccent;
unicode = 010A;
},
{
glyphname = D;
lastChange = "2015-11-29 14:55:11 +0000";
layers = (
{
layerId = "097E1CCD-D4DB-46B5-97AF-AA821C3DB512";
name = "Bold Italic";
paths = (
{
closed = 1;
nodes = (
"292 0 LINE SMOOTH",
"505 0 OFFCURVE",
"616 127 OFFCURVE",
"662 350 CURVE SMOOTH",
"707 573 OFFCURVE",
"648 700 OFFCURVE",
"436 700 CURVE SMOOTH",
"127 700 LINE",
"124 684 LINE",
"148 675 OFFCURVE",
"172 668 OFFCURVE",
"196 663 CURVE",
"68 37 LINE",
"46 34 OFFCURVE",
"15 25 OFFCURVE",
"-12 17 CURVE",
"-15 0 LINE"
);
},
{
closed = 1;
nodes = (
"323 654 LINE",
"426 654 LINE SMOOTH",
"552 654 OFFCURVE",
"567 532 OFFCURVE",
"530 350 CURVE SMOOTH",
"492 167 OFFCURVE",
"427 44 OFFCURVE",
"299 44 CURVE SMOOTH",
"198 44 LINE"
);
}
);
width = 672;
}
);
note = D;
rightKerningGroup = D;
unicode = 0044;
},
{
glyphname = Eth;
lastChange = "2015-11-29 14:55:11 +0000";
layers = (
{
layerId = "097E1CCD-D4DB-46B5-97AF-AA821C3DB512";
name = "Bold Italic";
paths = (
{
closed = 1;
nodes = (
"292 0 LINE SMOOTH",
"505 0 OFFCURVE",
"616 127 OFFCURVE",
"662 350 CURVE SMOOTH",
"707 573 OFFCURVE",
"648 700 OFFCURVE",
"436 700 CURVE SMOOTH",
"127 700 LINE",
"124 684 LINE",
"148 675 OFFCURVE",
"172 668 OFFCURVE",
"196 663 CURVE",
"68 37 LINE",
"46 34 OFFCURVE",
"15 25 OFFCURVE",
"-12 17 CURVE",
"-15 0 LINE"
);
},
{
closed = 1;
nodes = (
"323 654 LINE",
"426 654 LINE SMOOTH",
"552 654 OFFCURVE",
"567 532 OFFCURVE",
"530 350 CURVE SMOOTH",
"492 167 OFFCURVE",
"427 44 OFFCURVE",
"299 44 CURVE SMOOTH",
"198 44 LINE"
);
},
{
closed = 1;
nodes = (
"399 311 LINE",
"408 355 LINE",
"69 355 LINE",
"60 311 LINE"
);
}
);
width = 673;
}
);
note = Eth;
rightKerningGroup = D;
unicode = 00D0;
},
{
glyphname = Dcaron;
lastChange = "2015-11-29 14:55:11 +0000";
layers = (
{
layerId = "097E1CCD-D4DB-46B5-97AF-AA821C3DB512";
name = "Bold Italic";
paths = (
{
closed = 1;
nodes = (
"292 0 LINE SMOOTH",
"505 0 OFFCURVE",
"616 127 OFFCURVE",
"662 350 CURVE SMOOTH",
"707 573 OFFCURVE",
"648 700 OFFCURVE",
"436 700 CURVE SMOOTH",
"127 700 LINE",
"124 684 LINE",
"148 675 OFFCURVE",
"172 668 OFFCURVE",
"196 663 CURVE",
"68 37 LINE",
"46 34 OFFCURVE",
"15 25 OFFCURVE",
"-12 17 CURVE",
"-15 0 LINE"
);
},
{
closed = 1;
nodes = (
"323 654 LINE",
"426 654 LINE SMOOTH",
"552 654 OFFCURVE",
"567 532 OFFCURVE",
"530 350 CURVE SMOOTH",
"492 167 OFFCURVE",
"427 44 OFFCURVE",
"299 44 CURVE SMOOTH",
"198 44 LINE"
);
},
{
closed = 1;
nodes = (
"471 786 LINE",
"504 824 OFFCURVE",
"593 894 OFFCURVE",
"640 922 CURVE",
"596 963 LINE",
"552 932 OFFCURVE",
"485 877 OFFCURVE",
"454 841 CURVE",
"450 841 LINE",
"435 877 OFFCURVE",
"390 932 OFFCURVE",
"358 963 CURVE",
"299 922 LINE",
"334 894 OFFCURVE",
"394 824 OFFCURVE",
"412 786 CURVE"
);
}
);
width = 672;
}
);
note = Dcaron;
rightKerningGroup = D;
unicode = 010E;
},
{
glyphname = Dcroat;
lastChange = "2015-11-29 14:55:11 +0000";
layers = (
{
layerId = "097E1CCD-D4DB-46B5-97AF-AA821C3DB512";
name = "Bold Italic";
paths = (
{
closed = 1;
nodes = (
"292 0 LINE SMOOTH",
"505 0 OFFCURVE",
"616 127 OFFCURVE",
"662 350 CURVE SMOOTH",
"707 573 OFFCURVE",
"648 700 OFFCURVE",
"436 700 CURVE SMOOTH",
"127 700 LINE",
"124 684 LINE",
"148 675 OFFCURVE",
"172 668 OFFCURVE",
"196 663 CURVE",
"68 37 LINE",
"46 34 OFFCURVE",
"15 25 OFFCURVE",
"-12 17 CURVE",
"-15 0 LINE"
);
},
{
closed = 1;
nodes = (
"323 654 LINE",
"426 654 LINE SMOOTH",
"552 654 OFFCURVE",
"567 532 OFFCURVE",
"530 350 CURVE SMOOTH",
"492 167 OFFCURVE",
"427 44 OFFCURVE",
"299 44 CURVE SMOOTH",
"198 44 LINE"
);
},
{
closed = 1;
nodes = (
"399 311 LINE",
"408 355 LINE",
"69 355 LINE",
"60 311 LINE"
);
}
);
width = 672;
}
);
note = Dcroat;
rightKerningGroup = D;
unicode = 0110;
},
{
glyphname = Ddotbelow;
lastChange = "2015-11-29 14:55:11 +0000";
layers = (
{
layerId = "097E1CCD-D4DB-46B5-97AF-AA821C3DB512";
name = "Bold Italic";
paths = (
{
closed = 1;
nodes = (
"292 0 LINE SMOOTH",
"505 0 OFFCURVE",
"616 127 OFFCURVE",
"662 350 CURVE SMOOTH",
"707 573 OFFCURVE",
"648 700 OFFCURVE",
"436 700 CURVE SMOOTH",
"127 700 LINE",
"124 684 LINE",
"148 675 OFFCURVE",
"172 668 OFFCURVE",
"196 663 CURVE",
"68 37 LINE",
"46 34 OFFCURVE",
"15 25 OFFCURVE",
"-12 17 CURVE",
"-15 0 LINE"
);
},
{
closed = 1;
nodes = (
"323 654 LINE",
"426 654 LINE SMOOTH",
"552 654 OFFCURVE",
"567 532 OFFCURVE",
"530 350 CURVE SMOOTH",
"492 167 OFFCURVE",
"427 44 OFFCURVE",
"299 44 CURVE SMOOTH",
"198 44 LINE"
);
},
{
closed = 1;
nodes = (
"200 -145 OFFCURVE",
"217 -169 OFFCURVE",
"249 -169 CURVE SMOOTH",
"282 -169 OFFCURVE",
"308 -145 OFFCURVE",
"314 -113 CURVE SMOOTH",
"320 -80 OFFCURVE",
"305 -56 OFFCURVE",
"272 -56 CURVE SMOOTH",
"240 -56 OFFCURVE",
"213 -80 OFFCURVE",
"206 -113 CURVE SMOOTH"
);
}
);
width = 672;
}
);
note = Ddotbelow;
rightKerningGroup = D;
unicode = 1E0C;
},
{
glyphname = Dlinebelow;
lastChange = "2015-11-29 14:55:10 +0000";
layers = (
{
layerId = "097E1CCD-D4DB-46B5-97AF-AA821C3DB512";
name = "Bold Italic";
paths = (
{
closed = 1;
nodes = (
"292 0 LINE SMOOTH",
"505 0 OFFCURVE",
"616 127 OFFCURVE",
"662 350 CURVE SMOOTH",
"707 573 OFFCURVE",
"648 700 OFFCURVE",
"436 700 CURVE SMOOTH",
"127 700 LINE",
"124 684 LINE",
"148 675 OFFCURVE",
"172 668 OFFCURVE",
"196 663 CURVE",
"68 37 LINE",
"46 34 OFFCURVE",
"15 25 OFFCURVE",
"-12 17 CURVE",
"-15 0 LINE"
);
},
{
closed = 1;
nodes = (
"323 654 LINE",
"426 654 LINE SMOOTH",
"552 654 OFFCURVE",
"567 532 OFFCURVE",
"530 350 CURVE SMOOTH",
"492 167 OFFCURVE",
"427 44 OFFCURVE",
"299 44 CURVE SMOOTH",
"198 44 LINE"
);
},
{
closed = 1;
nodes = (
"430 -107 LINE",
"438 -64 LINE",
"83 -64 LINE",
"75 -107 LINE"
);
}
);
width = 672;
}
);
note = Dlinebelow;
rightKerningGroup = D;
unicode = 1E0E;
},
{
glyphname = E;
lastChange = "2015-11-29 14:55:11 +0000";
layers = (
{
layerId = "097E1CCD-D4DB-46B5-97AF-AA821C3DB512";
name = "Bold Italic";
paths = (
{
closed = 1;
nodes = (
"515 0 LINE",
"565 165 LINE",
"536 165 LINE",
"517 144 OFFCURVE",
"477 78 OFFCURVE",
"467 44 CURVE",
"206 44 LINE",
"331 654 LINE",
"587 654 LINE",
"582 625 OFFCURVE",
"587 555 OFFCURVE",
"596 533 CURVE",
"625 533 LINE",
"658 700 LINE",
"127 700 LINE",
"124 684 LINE",
"149 675 OFFCURVE",
"177 667 OFFCURVE",
"201 663 CURVE",
"74 37 LINE",
"49 34 OFFCURVE",
"15 25 OFFCURVE",
"-12 16 CURVE",
"-15 0 LINE"
);
},
{
closed = 1;
nodes = (
"463 237 LINE",
"508 453 LINE",
"486 453 LINE",
"470 426 OFFCURVE",
"456 386 OFFCURVE",
"450 368 CURVE",
"190 368 LINE",
"180 322 LINE",
"440 322 LINE",
"438 305 OFFCURVE",
"437 265 OFFCURVE",
"442 237 CURVE"
);
}
);
width = 618;
}
);
note = E;
unicode = 0045;
},
{
glyphname = Eacute;
lastChange = "2015-11-29 14:55:10 +0000";
layers = (
{
layerId = "097E1CCD-D4DB-46B5-97AF-AA821C3DB512";
name = "Bold Italic";
paths = (
{
closed = 1;
nodes = (
"515 0 LINE",
"565 165 LINE",
"536 165 LINE",
"517 144 OFFCURVE",
"477 78 OFFCURVE",
"467 44 CURVE",
"206 44 LINE",
"331 654 LINE",
"587 654 LINE",
"582 625 OFFCURVE",
"587 555 OFFCURVE",
"596 533 CURVE",
"625 533 LINE",
"658 700 LINE",
"127 700 LINE",
"124 684 LINE",
"149 675 OFFCURVE",
"177 667 OFFCURVE",
"201 663 CURVE",
"74 37 LINE",
"49 34 OFFCURVE",
"15 25 OFFCURVE",
"-12 16 CURVE",
"-15 0 LINE"
);
},
{
closed = 1;
nodes = (
"463 237 LINE",
"508 453 LINE",
"486 453 LINE",
"470 426 OFFCURVE",
"456 386 OFFCURVE",
"450 368 CURVE",
"190 368 LINE",
"180 322 LINE",
"440 322 LINE",
"438 305 OFFCURVE",
"437 265 OFFCURVE",
"442 237 CURVE"
);
},
{
closed = 1;
nodes = (
"538 875 LINE SMOOTH",
"569 892 OFFCURVE",
"587 909 OFFCURVE",
"591 930 CURVE",
"595 947 OFFCURVE",
"588 967 OFFCURVE",
"559 967 CURVE SMOOTH",
"531 967 OFFCURVE",
"504 943 OFFCURVE",
"497 936 CURVE",
"357 817 LINE",
"372 786 LINE"
);
}
);
width = 618;
}
);
note = Eacute;
unicode = 00C9;
},
{
glyphname = Ebreve;
lastChange = "2015-11-29 14:55:12 +0000";
layers = (
{
layerId = "097E1CCD-D4DB-46B5-97AF-AA821C3DB512";
name = "Bold Italic";
paths = (
{
closed = 1;
nodes = (
"515 0 LINE",
"565 165 LINE",
"536 165 LINE",
"517 144 OFFCURVE",
"477 78 OFFCURVE",
"467 44 CURVE",
"206 44 LINE",
"331 654 LINE",
"587 654 LINE",
"582 625 OFFCURVE",
"587 555 OFFCURVE",
"596 533 CURVE",
"625 533 LINE",
"658 700 LINE",
"127 700 LINE",
"124 684 LINE",
"149 675 OFFCURVE",
"177 667 OFFCURVE",
"201 663 CURVE",
"74 37 LINE",
"49 34 OFFCURVE",
"15 25 OFFCURVE",
"-12 16 CURVE",
"-15 0 LINE"
);
},
{
closed = 1;
nodes = (
"463 237 LINE",
"508 453 LINE",
"486 453 LINE",
"470 426 OFFCURVE",
"456 386 OFFCURVE",
"450 368 CURVE",
"190 368 LINE",
"180 322 LINE",
"440 322 LINE",
"438 305 OFFCURVE",
"437 265 OFFCURVE",
"442 237 CURVE"
);
},
{
closed = 1;
nodes = (
"551 780 OFFCURVE",
"623 822 OFFCURVE",
"653 911 CURVE",
"580 911 LINE",
"557 837 OFFCURVE",
"510 827 OFFCURVE",
"471 827 CURVE SMOOTH",
"432 827 OFFCURVE",
"388 837 OFFCURVE",
"395 911 CURVE",
"323 911 LINE",
"318 822 OFFCURVE",
"371 780 OFFCURVE",
"461 780 CURVE SMOOTH"
);
}
);
width = 618;
}
);
note = Ebreve;
unicode = 0114;
},
{
glyphname = Ecaron;
lastChange = "2015-11-29 14:55:12 +0000";
layers = (
{
layerId = "097E1CCD-D4DB-46B5-97AF-AA821C3DB512";
name = "Bold Italic";
paths = (
{
closed = 1;
nodes = (
"515 0 LINE",
"565 165 LINE",
"536 165 LINE",
"517 144 OFFCURVE",
"477 78 OFFCURVE",
"467 44 CURVE",
"206 44 LINE",
"331 654 LINE",
"587 654 LINE",
"582 625 OFFCURVE",
"587 555 OFFCURVE",
"596 533 CURVE",
"625 533 LINE",
"658 700 LINE",
"127 700 LINE",
"124 684 LINE",
"149 675 OFFCURVE",
"177 667 OFFCURVE",
"201 663 CURVE",
"74 37 LINE",
"49 34 OFFCURVE",
"15 25 OFFCURVE",
"-12 16 CURVE",
"-15 0 LINE"
);
},
{
closed = 1;
nodes = (
"463 237 LINE",
"508 453 LINE",
"486 453 LINE",
"470 426 OFFCURVE",
"456 386 OFFCURVE",
"450 368 CURVE",
"190 368 LINE",
"180 322 LINE",
"440 322 LINE",
"438 305 OFFCURVE",
"437 265 OFFCURVE",
"442 237 CURVE"
);
},
{
closed = 1;
nodes = (
"489 786 LINE",
"522 824 OFFCURVE",
"611 894 OFFCURVE",
"658 922 CURVE",
"614 963 LINE",
"570 932 OFFCURVE",
"504 877 OFFCURVE",
"472 841 CURVE",
"468 841 LINE",
"453 877 OFFCURVE",
"409 932 OFFCURVE",
"376 963 CURVE",
"317 922 LINE",
"352 894 OFFCURVE",
"412 824 OFFCURVE",
"430 786 CURVE"
);
}
);
width = 618;
}
);
note = Ecaron;
unicode = 011A;
},
{
glyphname = Ecircumflex;
lastChange = "2015-11-29 14:55:12 +0000";
layers = (
{
layerId = "097E1CCD-D4DB-46B5-97AF-AA821C3DB512";
name = "Bold Italic";
paths = (
{
closed = 1;
nodes = (
"515 0 LINE",
"565 165 LINE",
"536 165 LINE",
"517 144 OFFCURVE",
"477 78 OFFCURVE",
"467 44 CURVE",
"206 44 LINE",
"331 654 LINE",
"587 654 LINE",
"582 625 OFFCURVE",
"587 555 OFFCURVE",
"596 533 CURVE",
"625 533 LINE",
"658 700 LINE",
"127 700 LINE",
"124 684 LINE",
"149 675 OFFCURVE",
"177 667 OFFCURVE",
"201 663 CURVE",
"74 37 LINE",
"49 34 OFFCURVE",
"15 25 OFFCURVE",
"-12 16 CURVE",
"-15 0 LINE"
);
},
{
closed = 1;
nodes = (
"463 237 LINE",
"508 453 LINE",
"486 453 LINE",
"470 426 OFFCURVE",
"456 386 OFFCURVE",
"450 368 CURVE",
"190 368 LINE",
"180 322 LINE",
"440 322 LINE",
"438 305 OFFCURVE",
"437 265 OFFCURVE",
"442 237 CURVE"
);
},
{
closed = 1;
nodes = (
"382 813 OFFCURVE",
"449 868 OFFCURVE",
"480 904 CURVE",
"484 904 LINE",
"500 868 OFFCURVE",
"543 813 OFFCURVE",
"576 782 CURVE",
"635 823 LINE",
"600 851 OFFCURVE",
"540 922 OFFCURVE",
"522 959 CURVE",
"462 959 LINE",
"431 922 OFFCURVE",
"340 851 OFFCURVE",
"294 823 CURVE",
"339 782 LINE"
);
}
);
width = 618;
}
);
note = Ecircumflex;
unicode = 00CA;
},
{
glyphname = Ecircumflexacute;
lastChange = "2015-11-29 14:55:12 +0000";
layers = (
{
layerId = "097E1CCD-D4DB-46B5-97AF-AA821C3DB512";
name = "Bold Italic";
paths = (
{
closed = 1;
nodes = (
"515 0 LINE",
"565 165 LINE",
"536 165 LINE",
"517 144 OFFCURVE",
"477 78 OFFCURVE",
"467 44 CURVE",
"206 44 LINE",
"331 654 LINE",
"587 654 LINE",
"582 625 OFFCURVE",
"587 555 OFFCURVE",
"596 533 CURVE",
"625 533 LINE",
"658 700 LINE",
"127 700 LINE",
"124 684 LINE",
"149 675 OFFCURVE",
"177 667 OFFCURVE",
"201 663 CURVE",
"74 37 LINE",
"49 34 OFFCURVE",
"15 25 OFFCURVE",
"-12 16 CURVE",
"-15 0 LINE"
);
},
{
closed = 1;
nodes = (
"463 237 LINE",
"508 453 LINE",
"486 453 LINE",
"470 426 OFFCURVE",
"456 386 OFFCURVE",
"450 368 CURVE",
"190 368 LINE",
"180 322 LINE",
"440 322 LINE",
"438 305 OFFCURVE",
"437 265 OFFCURVE",
"442 237 CURVE"
);
},
{
closed = 1;
nodes = (
"368 813 OFFCURVE",
"434 868 OFFCURVE",
"465 904 CURVE",
"469 904 LINE",
"485 868 OFFCURVE",
"529 813 OFFCURVE",
"561 782 CURVE",
"620 823 LINE",
"586 851 OFFCURVE",
"526 922 OFFCURVE",
"508 959 CURVE",
"448 959 LINE",
"416 922 OFFCURVE",
"326 851 OFFCURVE",
"279 823 CURVE",
"324 782 LINE"
);
},
{
closed = 1;
nodes = (
"707 967 LINE SMOOTH",
"749 987 OFFCURVE",
"772 1012 OFFCURVE",
"776 1033 CURVE",
"780 1050 OFFCURVE",
"771 1066 OFFCURVE",
"748 1066 CURVE SMOOTH",
"726 1066 OFFCURVE",
"700 1051 OFFCURVE",
"671 1024 CURVE SMOOTH",
"584 942 LINE",
"598 915 LINE"
);
}
);
width = 618;
}
);
note = Ecircumflexacute;
unicode = 1EBE;
},
{
glyphname = Ecircumflexdotbelow;
lastChange = "2015-11-29 14:55:11 +0000";
layers = (
{
layerId = "097E1CCD-D4DB-46B5-97AF-AA821C3DB512";
name = "Bold Italic";
paths = (
{
closed = 1;
nodes = (
"515 0 LINE",
"565 165 LINE",
"536 165 LINE",
"517 144 OFFCURVE",
"477 78 OFFCURVE",
"467 44 CURVE",
"206 44 LINE",
"331 654 LINE",
"587 654 LINE",
"582 625 OFFCURVE",
"587 555 OFFCURVE",
"596 533 CURVE",
"625 533 LINE",
"658 700 LINE",
"127 700 LINE",
"124 684 LINE",
"149 675 OFFCURVE",
"177 667 OFFCURVE",
"201 663 CURVE",
"74 37 LINE",
"49 34 OFFCURVE",
"15 25 OFFCURVE",
"-12 16 CURVE",
"-15 0 LINE"
);
},
{
closed = 1;
nodes = (
"284 -169 OFFCURVE",
"310 -145 OFFCURVE",
"316 -113 CURVE SMOOTH",
"322 -80 OFFCURVE",
"307 -56 OFFCURVE",
"274 -56 CURVE SMOOTH",
"242 -56 OFFCURVE",
"215 -80 OFFCURVE",
"208 -113 CURVE SMOOTH",
"202 -145 OFFCURVE",
"219 -169 OFFCURVE",
"251 -169 CURVE SMOOTH"
);
},
{
closed = 1;
nodes = (
"463 237 LINE",
"508 453 LINE",
"486 453 LINE",
"470 426 OFFCURVE",
"456 386 OFFCURVE",
"450 368 CURVE",
"190 368 LINE",
"180 322 LINE",
"440 322 LINE",
"438 305 OFFCURVE",
"437 265 OFFCURVE",
"442 237 CURVE"
);
},
{
closed = 1;
nodes = (
"366 813 OFFCURVE",
"434 868 OFFCURVE",
"464 904 CURVE",
"468 904 LINE",
"484 868 OFFCURVE",
"528 813 OFFCURVE",
"560 782 CURVE",
"620 823 LINE",
"584 851 OFFCURVE",
"525 922 OFFCURVE",
"507 959 CURVE",
"447 959 LINE",
"415 922 OFFCURVE",
"325 851 OFFCURVE",
"279 823 CURVE",
"323 782 LINE"
);
}
);
width = 618;
}
);
note = Ecircumflexdotbelow;
unicode = 1EC6;
},
{
glyphname = Ecircumflexgrave;
lastChange = "2015-11-29 14:55:11 +0000";
layers = (
{
layerId = "097E1CCD-D4DB-46B5-97AF-AA821C3DB512";
name = "Bold Italic";
paths = (
{
closed = 1;
nodes = (
"515 0 LINE",
"565 165 LINE",
"536 165 LINE",
"517 144 OFFCURVE",
"477 78 OFFCURVE",
"467 44 CURVE",
"206 44 LINE",
"331 654 LINE",
"587 654 LINE",
"582 625 OFFCURVE",
"587 555 OFFCURVE",
"596 533 CURVE",
"625 533 LINE",
"658 700 LINE",
"127 700 LINE",
"124 684 LINE",
"149 675 OFFCURVE",
"177 667 OFFCURVE",
"201 663 CURVE",
"74 37 LINE",
"49 34 OFFCURVE",
"15 25 OFFCURVE",
"-12 16 CURVE",
"-15 0 LINE"
);
},
{
closed = 1;
nodes = (
"463 237 LINE",
"508 453 LINE",
"486 453 LINE",
"470 426 OFFCURVE",
"456 386 OFFCURVE",
"450 368 CURVE",
"190 368 LINE",
"180 322 LINE",
"440 322 LINE",
"438 305 OFFCURVE",
"437 265 OFFCURVE",
"442 237 CURVE"
);
},
{
closed = 1;
nodes = (
"368 942 LINE",
"315 1024 LINE SMOOTH",
"296 1051 OFFCURVE",
"275 1066 OFFCURVE",
"254 1066 CURVE SMOOTH",
"231 1066 OFFCURVE",
"216 1050 OFFCURVE",
"212 1033 CURVE",
"208 1012 OFFCURVE",
"221 988 OFFCURVE",
"255 967 CURVE SMOOTH",
"342 915 LINE"
);
},
{
closed = 1;
nodes = (
"368 813 OFFCURVE",
"434 868 OFFCURVE",
"465 904 CURVE",
"469 904 LINE",
"485 868 OFFCURVE",
"529 813 OFFCURVE",
"561 782 CURVE",
"620 823 LINE",
"586 851 OFFCURVE",
"526 922 OFFCURVE",
"508 959 CURVE",
"448 959 LINE",
"416 922 OFFCURVE",
"326 851 OFFCURVE",
"279 823 CURVE",
"324 782 LINE"
);
}
);
width = 618;
}
);
note = Ecircumflexgrave;
unicode = 1EC0;
},
{
glyphname = Ecircumflexhookabove;
lastChange = "2015-11-29 14:55:12 +0000";
layers = (
{
layerId = "097E1CCD-D4DB-46B5-97AF-AA821C3DB512";
name = "Bold Italic";
paths = (
{
closed = 1;
nodes = (
"515 0 LINE",
"565 165 LINE",
"536 165 LINE",
"517 144 OFFCURVE",
"477 78 OFFCURVE",
"467 44 CURVE",
"206 44 LINE",
"331 654 LINE",
"587 654 LINE",
"582 625 OFFCURVE",
"587 555 OFFCURVE",
"596 533 CURVE",
"625 533 LINE",
"658 700 LINE",
"127 700 LINE",
"124 684 LINE",
"149 675 OFFCURVE",
"177 667 OFFCURVE",
"201 663 CURVE",
"74 37 LINE",
"49 34 OFFCURVE",
"15 25 OFFCURVE",
"-12 16 CURVE",
"-15 0 LINE"
);
},
{
closed = 1;
nodes = (
"463 237 LINE",
"508 453 LINE",
"486 453 LINE",
"470 426 OFFCURVE",
"456 386 OFFCURVE",
"450 368 CURVE",
"190 368 LINE",
"180 322 LINE",
"440 322 LINE",
"438 305 OFFCURVE",
"437 265 OFFCURVE",
"442 237 CURVE"
);
},
{
closed = 1;
nodes = (
"368 813 OFFCURVE",
"434 868 OFFCURVE",
"465 904 CURVE",
"469 904 LINE",
"485 868 OFFCURVE",
"529 813 OFFCURVE",
"561 782 CURVE",
"620 823 LINE",
"586 851 OFFCURVE",
"526 922 OFFCURVE",
"508 959 CURVE",
"448 959 LINE",
"416 922 OFFCURVE",
"326 851 OFFCURVE",
"279 823 CURVE",
"324 782 LINE"
);
},
{
closed = 1;
nodes = (
"625 918 LINE",
"644 969 LINE",
"688 973 OFFCURVE",
"724 992 OFFCURVE",
"735 1040 CURVE SMOOTH",
"746 1093 OFFCURVE",
"701 1114 OFFCURVE",
"653 1114 CURVE SMOOTH",
"627 1114 OFFCURVE",
"600 1107 OFFCURVE",
"582 1100 CURVE",
"581 1067 LINE",
"599 1075 OFFCURVE",
"619 1079 OFFCURVE",
"634 1079 CURVE SMOOTH",
"668 1079 OFFCURVE",
"681 1062 OFFCURVE",
"677 1041 CURVE SMOOTH",
"671 1010 OFFCURVE",
"645 997 OFFCURVE",
"618 997 CURVE SMOOTH",
"590 997 LINE",
"580 918 LINE"
);
}
);
width = 618;
}
);
note = Ecircumflexhookabove;
unicode = 1EC2;
},
{
glyphname = Ecircumflextilde;
lastChange = "2015-11-29 14:55:12 +0000";
layers = (
{
layerId = "097E1CCD-D4DB-46B5-97AF-AA821C3DB512";
name = "Bold Italic";
paths = (
{
closed = 1;
nodes = (
"515 0 LINE",
"565 165 LINE",
"536 165 LINE",
"517 144 OFFCURVE",
"477 78 OFFCURVE",
"467 44 CURVE",
"206 44 LINE",
"331 654 LINE",
"587 654 LINE",
"582 625 OFFCURVE",
"587 555 OFFCURVE",
"596 533 CURVE",
"625 533 LINE",
"658 700 LINE",
"127 700 LINE",
"124 684 LINE",
"149 675 OFFCURVE",
"177 667 OFFCURVE",
"201 663 CURVE",
"74 37 LINE",
"49 34 OFFCURVE",
"15 25 OFFCURVE",
"-12 16 CURVE",
"-15 0 LINE"
);
},
{
closed = 1;
nodes = (
"463 237 LINE",
"508 453 LINE",
"486 453 LINE",
"470 426 OFFCURVE",
"456 386 OFFCURVE",
"450 368 CURVE",
"190 368 LINE",
"180 322 LINE",
"440 322 LINE",
"438 305 OFFCURVE",
"437 265 OFFCURVE",
"442 237 CURVE"
);
},
{
closed = 1;
nodes = (
"368 813 OFFCURVE",
"434 868 OFFCURVE",
"465 904 CURVE",
"469 904 LINE",
"485 868 OFFCURVE",
"529 813 OFFCURVE",
"561 782 CURVE",
"620 823 LINE",
"586 851 OFFCURVE",
"526 922 OFFCURVE",
"508 959 CURVE",
"448 959 LINE",
"416 922 OFFCURVE",
"326 851 OFFCURVE",
"279 823 CURVE",
"324 782 LINE"
);
},
{
closed = 1;
nodes = (
"357 988 LINE",
"370 1021 OFFCURVE",
"398 1042 OFFCURVE",
"428 1042 CURVE SMOOTH",
"468 1042 OFFCURVE",
"506 989 OFFCURVE",
"559 989 CURVE SMOOTH",
"626 989 OFFCURVE",
"668 1033 OFFCURVE",
"690 1101 CURVE",
"647 1101 LINE",
"628 1057 OFFCURVE",
"595 1045 OFFCURVE",
"571 1045 CURVE SMOOTH",
"532 1045 OFFCURVE",
"507 1098 OFFCURVE",
"443 1098 CURVE SMOOTH",
"383 1098 OFFCURVE",
"337 1062 OFFCURVE",
"313 988 CURVE"
);
}
);
width = 618;
}
);
note = Ecircumflextilde;
unicode = 1EC4;
},
{
glyphname = Edieresis;
lastChange = "2015-11-29 14:55:13 +0000";
layers = (
{
layerId = "097E1CCD-D4DB-46B5-97AF-AA821C3DB512";
name = "Bold Italic";
paths = (
{
closed = 1;
nodes = (
"515 0 LINE",
"565 165 LINE",
"536 165 LINE",
"517 144 OFFCURVE",
"477 78 OFFCURVE",
"467 44 CURVE",
"206 44 LINE",
"331 654 LINE",
"587 654 LINE",
"582 625 OFFCURVE",
"587 555 OFFCURVE",
"596 533 CURVE",
"625 533 LINE",
"658 700 LINE",
"127 700 LINE",
"124 684 LINE",
"149 675 OFFCURVE",
"177 667 OFFCURVE",
"201 663 CURVE",
"74 37 LINE",
"49 34 OFFCURVE",
"15 25 OFFCURVE",
"-12 16 CURVE",
"-15 0 LINE"
);
},
{
closed = 1;
nodes = (
"463 237 LINE",
"508 453 LINE",
"486 453 LINE",
"470 426 OFFCURVE",
"456 386 OFFCURVE",
"450 368 CURVE",
"190 368 LINE",
"180 322 LINE",
"440 322 LINE",
"438 305 OFFCURVE",
"437 265 OFFCURVE",
"442 237 CURVE"
);
},
{
closed = 1;
nodes = (
"385 785 OFFCURVE",
"412 809 OFFCURVE",
"417 841 CURVE SMOOTH",
"424 874 OFFCURVE",
"408 898 OFFCURVE",
"374 898 CURVE SMOOTH",
"343 898 OFFCURVE",
"317 874 OFFCURVE",
"311 841 CURVE SMOOTH",
"305 809 OFFCURVE",
"320 785 OFFCURVE",
"351 785 CURVE SMOOTH"
);
},
{
closed = 1;
nodes = (
"608 785 OFFCURVE",
"635 809 OFFCURVE",
"641 841 CURVE SMOOTH",
"648 874 OFFCURVE",
"631 898 OFFCURVE",
"599 898 CURVE SMOOTH",
"565 898 OFFCURVE",
"540 874 OFFCURVE",
"533 841 CURVE SMOOTH",
"528 809 OFFCURVE",
"542 785 OFFCURVE",
"576 785 CURVE SMOOTH"
);
}
);
width = 618;
}
);
note = Edieresis;
unicode = 00CB;
},
{
glyphname = Edotaccent;
lastChange = "2015-11-29 14:55:12 +0000";
layers = (
{
layerId = "097E1CCD-D4DB-46B5-97AF-AA821C3DB512";
name = "Bold Italic";
paths = (
{
closed = 1;
nodes = (
"515 0 LINE",
"565 165 LINE",
"536 165 LINE",
"517 144 OFFCURVE",
"477 78 OFFCURVE",
"467 44 CURVE",
"206 44 LINE",
"331 654 LINE",
"587 654 LINE",
"582 625 OFFCURVE",
"587 555 OFFCURVE",
"596 533 CURVE",
"625 533 LINE",
"658 700 LINE",
"127 700 LINE",
"124 684 LINE",
"149 675 OFFCURVE",
"177 667 OFFCURVE",
"201 663 CURVE",
"74 37 LINE",
"49 34 OFFCURVE",
"15 25 OFFCURVE",
"-12 16 CURVE",
"-15 0 LINE"
);
},
{
closed = 1;
nodes = (
"463 237 LINE",
"508 453 LINE",
"486 453 LINE",
"470 426 OFFCURVE",
"456 386 OFFCURVE",
"450 368 CURVE",
"190 368 LINE",
"180 322 LINE",
"440 322 LINE",
"438 305 OFFCURVE",
"437 265 OFFCURVE",
"442 237 CURVE"
);
},
{
closed = 1;
nodes = (
"498 785 OFFCURVE",
"525 809 OFFCURVE",
"531 841 CURVE SMOOTH",
"537 874 OFFCURVE",
"521 898 OFFCURVE",
"489 898 CURVE SMOOTH",
"456 898 OFFCURVE",
"431 874 OFFCURVE",
"424 841 CURVE SMOOTH",
"418 809 OFFCURVE",
"433 785 OFFCURVE",
"466 785 CURVE SMOOTH"
);
}
);
width = 618;
}
);
note = Edotaccent;
unicode = 0116;
},
{
glyphname = Edotbelow;
lastChange = "2015-11-29 14:55:11 +0000";
layers = (
{
layerId = "097E1CCD-D4DB-46B5-97AF-AA821C3DB512";
name = "Bold Italic";
paths = (
{
closed = 1;
nodes = (
"515 0 LINE",
"565 165 LINE",
"536 165 LINE",
"517 144 OFFCURVE",
"477 78 OFFCURVE",
"467 44 CURVE",
"206 44 LINE",
"331 654 LINE",
"587 654 LINE",
"582 625 OFFCURVE",
"587 555 OFFCURVE",
"596 533 CURVE",
"625 533 LINE",
"658 700 LINE",
"127 700 LINE",
"124 684 LINE",
"149 675 OFFCURVE",
"177 667 OFFCURVE",
"201 663 CURVE",
"74 37 LINE",
"49 34 OFFCURVE",
"15 25 OFFCURVE",
"-12 16 CURVE",
"-15 0 LINE"
);
},
{
closed = 1;
nodes = (
"266 -169 OFFCURVE",
"292 -145 OFFCURVE",
"297 -113 CURVE SMOOTH",
"304 -80 OFFCURVE",
"289 -56 OFFCURVE",
"256 -56 CURVE SMOOTH",
"223 -56 OFFCURVE",
"196 -80 OFFCURVE",
"190 -113 CURVE SMOOTH",
"184 -145 OFFCURVE",
"200 -169 OFFCURVE",
"233 -169 CURVE SMOOTH"
);
},
{
closed = 1;
nodes = (
"463 237 LINE",
"508 453 LINE",
"486 453 LINE",
"470 426 OFFCURVE",
"456 386 OFFCURVE",
"450 368 CURVE",
"190 368 LINE",
"180 322 LINE",
"440 322 LINE",
"438 305 OFFCURVE",
"437 265 OFFCURVE",
"442 237 CURVE"
);
}
);
width = 618;
}
);
note = Edotbelow;
unicode = 1EB8;
},
{
glyphname = Egrave;
lastChange = "2015-11-29 14:55:12 +0000";
layers = (
{
layerId = "097E1CCD-D4DB-46B5-97AF-AA821C3DB512";
name = "Bold Italic";
paths = (
{
closed = 1;
nodes = (
"515 0 LINE",
"565 165 LINE",
"536 165 LINE",
"517 144 OFFCURVE",
"477 78 OFFCURVE",
"467 44 CURVE",
"206 44 LINE",
"331 654 LINE",
"587 654 LINE",
"582 625 OFFCURVE",
"587 555 OFFCURVE",
"596 533 CURVE",
"625 533 LINE",
"658 700 LINE",
"127 700 LINE",
"124 684 LINE",
"149 675 OFFCURVE",
"177 667 OFFCURVE",
"201 663 CURVE",
"74 37 LINE",
"49 34 OFFCURVE",
"15 25 OFFCURVE",
"-12 16 CURVE",
"-15 0 LINE"
);
},
{
closed = 1;
nodes = (
"463 237 LINE",
"508 453 LINE",
"486 453 LINE",
"470 426 OFFCURVE",
"456 386 OFFCURVE",
"450 368 CURVE",
"190 368 LINE",
"180 322 LINE",
"440 322 LINE",
"438 305 OFFCURVE",
"437 265 OFFCURVE",
"442 237 CURVE"
);
},
{
closed = 1;
nodes = (
"569 817 LINE",
"478 937 LINE SMOOTH",
"472 945 OFFCURVE",
"452 967 OFFCURVE",
"425 967 CURVE SMOOTH",
"400 967 OFFCURVE",
"384 946 OFFCURVE",
"380 929 CURVE",
"376 908 OFFCURVE",
"388 892 OFFCURVE",
"412 875 CURVE SMOOTH",
"542 786 LINE"
);
}
);
width = 618;
}
);
note = Egrave;
unicode = 00C8;
},
{
glyphname = Ehookabove;
lastChange = "2015-11-29 14:55:12 +0000";
layers = (
{
layerId = "097E1CCD-D4DB-46B5-97AF-AA821C3DB512";
name = "Bold Italic";
paths = (
{
closed = 1;
nodes = (
"515 0 LINE",
"565 165 LINE",
"536 165 LINE",
"517 144 OFFCURVE",
"477 78 OFFCURVE",
"467 44 CURVE",
"206 44 LINE",
"331 654 LINE",
"587 654 LINE",
"582 625 OFFCURVE",
"587 555 OFFCURVE",
"596 533 CURVE",
"625 533 LINE",
"658 700 LINE",
"127 700 LINE",
"124 684 LINE",
"149 675 OFFCURVE",
"177 667 OFFCURVE",
"201 663 CURVE",
"74 37 LINE",
"49 34 OFFCURVE",
"15 25 OFFCURVE",
"-12 16 CURVE",
"-15 0 LINE"
);
},
{
closed = 1;
nodes = (
"463 237 LINE",
"508 453 LINE",
"486 453 LINE",
"470 426 OFFCURVE",
"456 386 OFFCURVE",
"450 368 CURVE",
"190 368 LINE",
"180 322 LINE",
"440 322 LINE",
"438 305 OFFCURVE",
"437 265 OFFCURVE",
"442 237 CURVE"
);
},
{
closed = 1;
nodes = (
"478 781 LINE",
"502 849 LINE",
"555 854 OFFCURVE",
"594 876 OFFCURVE",
"605 931 CURVE SMOOTH",
"618 994 OFFCURVE",
"570 1018 OFFCURVE",
"515 1018 CURVE SMOOTH",
"484 1018 OFFCURVE",
"453 1010 OFFCURVE",
"432 1001 CURVE",
"431 965 LINE",
"454 976 OFFCURVE",
"476 981 OFFCURVE",
"493 981 CURVE SMOOTH",
"532 981 OFFCURVE",
"547 958 OFFCURVE",
"542 933 CURVE SMOOTH",
"534 897 OFFCURVE",
"504 881 OFFCURVE",
"473 881 CURVE SMOOTH",
"441 881 LINE",
"426 781 LINE"
);
}
);
width = 618;
}
);
note = Ehookabove;
unicode = 1EBA;
},
{
glyphname = Emacron;
lastChange = "2015-11-29 14:55:12 +0000";
layers = (
{
layerId = "097E1CCD-D4DB-46B5-97AF-AA821C3DB512";
name = "Bold Italic";
paths = (
{
closed = 1;
nodes = (
"515 0 LINE",
"565 165 LINE",
"536 165 LINE",
"517 144 OFFCURVE",
"477 78 OFFCURVE",
"467 44 CURVE",
"206 44 LINE",
"331 654 LINE",
"587 654 LINE",
"582 625 OFFCURVE",
"587 555 OFFCURVE",
"596 533 CURVE",
"625 533 LINE",
"658 700 LINE",
"127 700 LINE",
"124 684 LINE",
"149 675 OFFCURVE",
"177 667 OFFCURVE",
"201 663 CURVE",
"74 37 LINE",
"49 34 OFFCURVE",
"15 25 OFFCURVE",
"-12 16 CURVE",
"-15 0 LINE"
);
},
{
closed = 1;
nodes = (
"463 237 LINE",
"508 453 LINE",
"486 453 LINE",
"470 426 OFFCURVE",
"456 386 OFFCURVE",
"450 368 CURVE",
"190 368 LINE",
"180 322 LINE",
"440 322 LINE",
"438 305 OFFCURVE",
"437 265 OFFCURVE",
"442 237 CURVE"
);
},
{
closed = 1;
nodes = (
"633 785 LINE",
"642 829 LINE",
"287 829 LINE",
"278 785 LINE"
);
}
);
width = 618;
}
);
note = Emacron;
unicode = 0112;
},
{
glyphname = Eogonek;
lastChange = "2015-11-29 14:55:11 +0000";
layers = (
{
layerId = "097E1CCD-D4DB-46B5-97AF-AA821C3DB512";
name = "Bold Italic";
paths = (
{
closed = 1;
nodes = (
"515 0 LINE",
"565 165 LINE",
"536 165 LINE",
"517 144 OFFCURVE",
"477 78 OFFCURVE",
"467 44 CURVE",
"206 44 LINE",
"331 654 LINE",
"587 654 LINE",
"582 625 OFFCURVE",
"587 555 OFFCURVE",
"596 533 CURVE",
"625 533 LINE",
"658 700 LINE",
"127 700 LINE",
"124 684 LINE",
"149 675 OFFCURVE",
"177 667 OFFCURVE",
"201 663 CURVE",
"74 37 LINE",
"49 34 OFFCURVE",
"15 25 OFFCURVE",
"-12 16 CURVE",
"-15 0 LINE"
);
},
{
closed = 1;
nodes = (
"450 -200 OFFCURVE",
"488 -191 OFFCURVE",
"515 -177 CURVE",
"527 -121 LINE",
"502 -134 OFFCURVE",
"480 -140 OFFCURVE",
"462 -140 CURVE SMOOTH",
"429 -140 OFFCURVE",
"408 -120 OFFCURVE",
"414 -88 CURVE SMOOTH",
"421 -55 OFFCURVE",
"454 -19 OFFCURVE",
"485 0 CURVE",
"423 0 LINE",
"364 -19 OFFCURVE",
"322 -68 OFFCURVE",
"313 -113 CURVE SMOOTH",
"303 -163 OFFCURVE",
"338 -200 OFFCURVE",
"412 -200 CURVE SMOOTH"
);
},
{
closed = 1;
nodes = (
"463 237 LINE",
"508 453 LINE",
"486 453 LINE",
"470 426 OFFCURVE",
"456 386 OFFCURVE",
"450 368 CURVE",
"190 368 LINE",
"180 322 LINE",
"440 322 LINE",
"438 305 OFFCURVE",
"437 265 OFFCURVE",
"442 237 CURVE"
);
}
);
width = 618;
}
);
note = Eogonek;
unicode = 0118;
},
{
glyphname = Etilde;
lastChange = "2015-11-29 14:55:12 +0000";
layers = (
{
layerId = "097E1CCD-D4DB-46B5-97AF-AA821C3DB512";
name = "Bold Italic";
paths = (
{
closed = 1;
nodes = (
"515 0 LINE",
"565 165 LINE",
"536 165 LINE",
"517 144 OFFCURVE",
"477 78 OFFCURVE",
"467 44 CURVE",
"206 44 LINE",
"331 654 LINE",
"587 654 LINE",
"582 625 OFFCURVE",
"587 555 OFFCURVE",
"596 533 CURVE",
"625 533 LINE",
"658 700 LINE",
"127 700 LINE",
"124 684 LINE",
"149 675 OFFCURVE",
"177 667 OFFCURVE",
"201 663 CURVE",
"74 37 LINE",
"49 34 OFFCURVE",
"15 25 OFFCURVE",
"-12 16 CURVE",
"-15 0 LINE"
);
},
{
closed = 1;
nodes = (
"463 237 LINE",
"508 453 LINE",
"486 453 LINE",
"470 426 OFFCURVE",
"456 386 OFFCURVE",
"450 368 CURVE",
"190 368 LINE",
"180 322 LINE",
"440 322 LINE",
"438 305 OFFCURVE",
"437 265 OFFCURVE",
"442 237 CURVE"
);
},
{
closed = 1;
nodes = (
"313 785 LINE",
"326 818 OFFCURVE",
"352 839 OFFCURVE",
"381 839 CURVE SMOOTH",
"417 839 OFFCURVE",
"465 785 OFFCURVE",
"519 785 CURVE SMOOTH",
"587 785 OFFCURVE",
"628 831 OFFCURVE",
"651 899 CURVE",
"602 899 LINE",
"582 854 OFFCURVE",
"555 843 OFFCURVE",
"529 843 CURVE SMOOTH",
"489 843 OFFCURVE",
"458 896 OFFCURVE",
"393 896 CURVE SMOOTH",
"333 896 OFFCURVE",
"286 859 OFFCURVE",
"262 785 CURVE"
);
}
);
width = 618;
}
);
note = Etilde;
unicode = 1EBC;
},
{
glyphname = F;
lastChange = "2015-11-29 14:55:12 +0000";
layers = (
{
layerId = "097E1CCD-D4DB-46B5-97AF-AA821C3DB512";
name = "Bold Italic";
paths = (
{
closed = 1;
nodes = (
"280 0 LINE",
"283 15 LINE",
"258 25 OFFCURVE",
"227 32 OFFCURVE",
"204 36 CURVE",
"331 654 LINE",
"575 654 LINE",
"570 625 OFFCURVE",
"575 555 OFFCURVE",
"583 533 CURVE",
"612 533 LINE",
"646 700 LINE",
"127 700 LINE",
"124 684 LINE",
"149 674 OFFCURVE",
"179 667 OFFCURVE",
"201 663 CURVE",
"74 36 LINE",
"44 32 OFFCURVE",
"15 24 OFFCURVE",
"-12 16 CURVE",
"-15 0 LINE"
);
},
{
closed = 1;
nodes = (
"461 226 LINE",
"506 443 LINE",
"484 443 LINE",
"468 416 OFFCURVE",
"453 376 OFFCURVE",
"448 358 CURVE",
"163 358 LINE",
"153 311 LINE",
"438 311 LINE",
"436 294 OFFCURVE",
"436 255 OFFCURVE",
"440 226 CURVE"
);
}
);
width = 575;
}
);
note = F;
unicode = 0046;
},
{
glyphname = G;
lastChange = "2015-11-29 14:55:12 +0000";
layers = (
{
layerId = "097E1CCD-D4DB-46B5-97AF-AA821C3DB512";
name = "Bold Italic";
paths = (
{
closed = 1;
nodes = (
"402 -10 OFFCURVE",
"507 10 OFFCURVE",
"563 48 CURVE",
"615 302 LINE",
"638 306 OFFCURVE",
"670 318 OFFCURVE",
"687 328 CURVE",
"690 340 LINE",
"421 340 LINE",
"417 324 LINE",
"440 316 OFFCURVE",
"465 310 OFFCURVE",
"489 304 CURVE",
"438 55 LINE",
"409 42 OFFCURVE",
"365 37 OFFCURVE",
"343 37 CURVE SMOOTH",
"197 37 OFFCURVE",
"153 161 OFFCURVE",
"192 350 CURVE SMOOTH",
"230 538 OFFCURVE",
"340 663 OFFCURVE",
"488 663 CURVE SMOOTH",
"536 663 OFFCURVE",
"599 649 OFFCURVE",
"627 622 CURVE",
"622 581 OFFCURVE",
"619 531 OFFCURVE",
"623 496 CURVE",
"654 496 LINE",
"694 634 LINE",
"655 681 OFFCURVE",
"570 710 OFFCURVE",
"465 710 CURVE SMOOTH",
"255 710 OFFCURVE",
"104 572 OFFCURVE",
"59 350 CURVE SMOOTH",
"13 127 OFFCURVE",
"98 -10 OFFCURVE",
"315 -10 CURVE SMOOTH"
);
}
);
width = 677;
}
);
leftKerningGroup = G;
note = G;
unicode = 0047;
},
{
glyphname = Gbreve;
lastChange = "2015-11-29 14:55:10 +0000";
layers = (
{
layerId = "097E1CCD-D4DB-46B5-97AF-AA821C3DB512";
name = "Bold Italic";
paths = (
{
closed = 1;
nodes = (
"402 -10 OFFCURVE",
"507 10 OFFCURVE",
"563 48 CURVE",
"615 302 LINE",
"638 306 OFFCURVE",
"670 318 OFFCURVE",
"687 328 CURVE",
"690 340 LINE",
"421 340 LINE",
"417 324 LINE",
"440 316 OFFCURVE",
"465 310 OFFCURVE",
"489 304 CURVE",
"438 55 LINE",
"409 42 OFFCURVE",
"365 37 OFFCURVE",
"343 37 CURVE SMOOTH",
"197 37 OFFCURVE",
"153 161 OFFCURVE",
"192 350 CURVE SMOOTH",
"230 538 OFFCURVE",
"340 663 OFFCURVE",
"488 663 CURVE SMOOTH",
"536 663 OFFCURVE",
"599 649 OFFCURVE",
"627 622 CURVE",
"622 581 OFFCURVE",
"619 531 OFFCURVE",
"623 496 CURVE",
"654 496 LINE",
"694 634 LINE",
"655 681 OFFCURVE",
"570 710 OFFCURVE",
"465 710 CURVE SMOOTH",
"255 710 OFFCURVE",
"104 572 OFFCURVE",
"59 350 CURVE SMOOTH",
"13 127 OFFCURVE",
"98 -10 OFFCURVE",
"315 -10 CURVE SMOOTH"
);
},
{
closed = 1;
nodes = (
"571 780 OFFCURVE",
"643 822 OFFCURVE",
"674 911 CURVE",
"601 911 LINE",
"578 837 OFFCURVE",
"531 827 OFFCURVE",
"491 827 CURVE SMOOTH",
"452 827 OFFCURVE",
"408 837 OFFCURVE",
"415 911 CURVE",
"343 911 LINE",
"339 822 OFFCURVE",
"391 780 OFFCURVE",
"482 780 CURVE SMOOTH"
);
}
);
width = 677;
}
);
leftKerningGroup = G;
note = Gbreve;
unicode = 011E;
},
{
glyphname = Gcaron;
lastChange = "2015-11-29 14:55:11 +0000";
layers = (
{
layerId = "097E1CCD-D4DB-46B5-97AF-AA821C3DB512";
name = "Bold Italic";
paths = (
{
closed = 1;
nodes = (
"402 -10 OFFCURVE",
"507 10 OFFCURVE",
"563 48 CURVE",
"615 302 LINE",
"638 306 OFFCURVE",
"670 318 OFFCURVE",
"687 328 CURVE",
"690 340 LINE",
"421 340 LINE",
"417 324 LINE",
"440 316 OFFCURVE",
"465 310 OFFCURVE",
"489 304 CURVE",
"438 55 LINE",
"409 42 OFFCURVE",
"365 37 OFFCURVE",
"343 37 CURVE SMOOTH",
"197 37 OFFCURVE",
"153 161 OFFCURVE",
"192 350 CURVE SMOOTH",
"230 538 OFFCURVE",
"340 663 OFFCURVE",
"488 663 CURVE SMOOTH",
"536 663 OFFCURVE",
"599 649 OFFCURVE",
"627 622 CURVE",
"622 581 OFFCURVE",
"619 531 OFFCURVE",
"623 496 CURVE",
"654 496 LINE",
"694 634 LINE",
"655 681 OFFCURVE",
"570 710 OFFCURVE",
"465 710 CURVE SMOOTH",
"255 710 OFFCURVE",
"104 572 OFFCURVE",
"59 350 CURVE SMOOTH",
"13 127 OFFCURVE",
"98 -10 OFFCURVE",
"315 -10 CURVE SMOOTH"
);
},
{
closed = 1;
nodes = (
"509 792 LINE",
"542 830 OFFCURVE",
"631 900 OFFCURVE",
"678 928 CURVE",
"634 969 LINE",
"590 938 OFFCURVE",
"524 883 OFFCURVE",
"492 847 CURVE",
"488 847 LINE",
"473 883 OFFCURVE",
"429 938 OFFCURVE",
"396 969 CURVE",
"338 928 LINE",
"372 900 OFFCURVE",
"433 830 OFFCURVE",
"450 792 CURVE"
);
}
);
width = 677;
}
);
leftKerningGroup = G;
note = Gcaron;
unicode = 01E6;
},
{
glyphname = Gcircumflex;
lastChange = "2015-11-29 14:55:11 +0000";
layers = (
{
layerId = "097E1CCD-D4DB-46B5-97AF-AA821C3DB512";
name = "Bold Italic";
paths = (
{
closed = 1;
nodes = (
"402 -10 OFFCURVE",
"507 10 OFFCURVE",
"563 48 CURVE",
"615 302 LINE",
"638 306 OFFCURVE",
"670 318 OFFCURVE",
"687 328 CURVE",
"690 340 LINE",
"421 340 LINE",
"417 324 LINE",
"440 316 OFFCURVE",
"465 310 OFFCURVE",
"489 304 CURVE",
"438 55 LINE",
"409 42 OFFCURVE",
"365 37 OFFCURVE",
"343 37 CURVE SMOOTH",
"197 37 OFFCURVE",
"153 161 OFFCURVE",
"192 350 CURVE SMOOTH",
"230 538 OFFCURVE",
"340 663 OFFCURVE",
"488 663 CURVE SMOOTH",
"536 663 OFFCURVE",
"599 649 OFFCURVE",
"627 622 CURVE",
"622 581 OFFCURVE",
"619 531 OFFCURVE",
"623 496 CURVE",
"654 496 LINE",
"694 634 LINE",
"655 681 OFFCURVE",
"570 710 OFFCURVE",
"465 710 CURVE SMOOTH",
"255 710 OFFCURVE",
"104 572 OFFCURVE",
"59 350 CURVE SMOOTH",
"13 127 OFFCURVE",
"98 -10 OFFCURVE",
"315 -10 CURVE SMOOTH"
);
},
{
closed = 1;
nodes = (
"420 813 OFFCURVE",
"487 868 OFFCURVE",
"518 904 CURVE",
"522 904 LINE",
"538 868 OFFCURVE",
"581 813 OFFCURVE",
"614 782 CURVE",
"674 823 LINE",
"638 851 OFFCURVE",
"579 922 OFFCURVE",
"560 959 CURVE",
"501 959 LINE",
"469 922 OFFCURVE",
"379 851 OFFCURVE",
"333 823 CURVE",
"377 782 LINE"
);
}
);
width = 677;
}
);
leftKerningGroup = G;
note = Gcircumflex;
unicode = 011C;
},
{
glyphname = Gcommaaccent;
lastChange = "2015-11-29 14:55:11 +0000";
layers = (
{
layerId = "097E1CCD-D4DB-46B5-97AF-AA821C3DB512";
name = "Bold Italic";
paths = (
{
closed = 1;
nodes = (
"402 -10 OFFCURVE",
"507 10 OFFCURVE",
"563 48 CURVE",
"615 302 LINE",
"638 306 OFFCURVE",
"670 318 OFFCURVE",
"687 328 CURVE",
"690 340 LINE",
"421 340 LINE",
"417 324 LINE",
"440 316 OFFCURVE",
"465 310 OFFCURVE",
"489 304 CURVE",
"438 55 LINE",
"409 42 OFFCURVE",
"365 37 OFFCURVE",
"343 37 CURVE SMOOTH",
"197 37 OFFCURVE",
"153 161 OFFCURVE",
"192 350 CURVE SMOOTH",
"230 538 OFFCURVE",
"340 663 OFFCURVE",
"488 663 CURVE SMOOTH",
"536 663 OFFCURVE",
"599 649 OFFCURVE",
"627 622 CURVE",
"622 581 OFFCURVE",
"619 531 OFFCURVE",
"623 496 CURVE",
"654 496 LINE",
"694 634 LINE",
"655 681 OFFCURVE",
"570 710 OFFCURVE",
"465 710 CURVE SMOOTH",
"255 710 OFFCURVE",
"104 572 OFFCURVE",
"59 350 CURVE SMOOTH",
"13 127 OFFCURVE",
"98 -10 OFFCURVE",
"315 -10 CURVE SMOOTH"
);
},
{
closed = 1;
nodes = (
"298 -300 OFFCURVE",
"352 -220 OFFCURVE",
"365 -151 CURVE SMOOTH",
"374 -111 OFFCURVE",
"361 -77 OFFCURVE",
"312 -77 CURVE SMOOTH",
"278 -77 OFFCURVE",
"243 -99 OFFCURVE",
"235 -138 CURVE SMOOTH",
"227 -177 OFFCURVE",
"248 -199 OFFCURVE",
"287 -200 CURVE",
"272 -243 OFFCURVE",
"234 -287 OFFCURVE",
"205 -314 CURVE",
"240 -346 LINE"
);
}
);
width = 677;
}
);
leftKerningGroup = G;
note = Gcommaaccent;
unicode = 0122;
},
{
glyphname = Gdotaccent;
lastChange = "2015-11-29 14:55:12 +0000";
layers = (
{
layerId = "097E1CCD-D4DB-46B5-97AF-AA821C3DB512";
name = "Bold Italic";
paths = (
{
closed = 1;
nodes = (
"402 -10 OFFCURVE",
"507 10 OFFCURVE",
"563 48 CURVE",
"615 302 LINE",
"638 306 OFFCURVE",
"670 318 OFFCURVE",
"687 328 CURVE",
"690 340 LINE",
"421 340 LINE",
"417 324 LINE",
"440 316 OFFCURVE",
"465 310 OFFCURVE",
"489 304 CURVE",
"438 55 LINE",
"409 42 OFFCURVE",
"365 37 OFFCURVE",
"343 37 CURVE SMOOTH",
"197 37 OFFCURVE",
"153 161 OFFCURVE",
"192 350 CURVE SMOOTH",
"230 538 OFFCURVE",
"340 663 OFFCURVE",
"488 663 CURVE SMOOTH",
"536 663 OFFCURVE",
"599 649 OFFCURVE",
"627 622 CURVE",
"622 581 OFFCURVE",
"619 531 OFFCURVE",
"623 496 CURVE",
"654 496 LINE",
"694 634 LINE",
"655 681 OFFCURVE",
"570 710 OFFCURVE",
"465 710 CURVE SMOOTH",
"255 710 OFFCURVE",
"104 572 OFFCURVE",
"59 350 CURVE SMOOTH",
"13 127 OFFCURVE",
"98 -10 OFFCURVE",
"315 -10 CURVE SMOOTH"
);
},
{
closed = 1;
nodes = (
"528 785 OFFCURVE",
"555 809 OFFCURVE",
"560 841 CURVE SMOOTH",
"567 874 OFFCURVE",
"551 898 OFFCURVE",
"519 898 CURVE SMOOTH",
"485 898 OFFCURVE",
"460 874 OFFCURVE",
"454 841 CURVE SMOOTH",
"448 809 OFFCURVE",
"462 785 OFFCURVE",
"496 785 CURVE SMOOTH"
);
}
);
width = 677;
}
);
leftKerningGroup = G;
note = Gdotaccent;
unicode = 0120;
},
{
glyphname = Gmacron;
lastChange = "2015-11-29 14:55:11 +0000";
layers = (
{
layerId = "097E1CCD-D4DB-46B5-97AF-AA821C3DB512";
name = "Bold Italic";
paths = (
{
closed = 1;
nodes = (
"402 -10 OFFCURVE",
"507 10 OFFCURVE",
"563 48 CURVE",
"615 302 LINE",
"638 306 OFFCURVE",
"670 318 OFFCURVE",
"687 328 CURVE",
"690 340 LINE",
"421 340 LINE",
"417 324 LINE",
"440 316 OFFCURVE",
"465 310 OFFCURVE",
"489 304 CURVE",
"438 55 LINE",
"409 42 OFFCURVE",
"365 37 OFFCURVE",
"343 37 CURVE SMOOTH",
"197 37 OFFCURVE",
"153 161 OFFCURVE",
"192 350 CURVE SMOOTH",
"230 538 OFFCURVE",
"340 663 OFFCURVE",
"488 663 CURVE SMOOTH",
"536 663 OFFCURVE",
"599 649 OFFCURVE",
"627 622 CURVE",
"622 581 OFFCURVE",
"619 531 OFFCURVE",
"623 496 CURVE",
"654 496 LINE",
"694 634 LINE",
"655 681 OFFCURVE",
"570 710 OFFCURVE",
"465 710 CURVE SMOOTH",
"255 710 OFFCURVE",
"104 572 OFFCURVE",
"59 350 CURVE SMOOTH",
"13 127 OFFCURVE",
"98 -10 OFFCURVE",
"315 -10 CURVE SMOOTH"
);
},
{
closed = 1;
nodes = (
"643 785 LINE",
"652 829 LINE",
"296 829 LINE",
"288 785 LINE"
);
}
);
width = 677;
}
);
leftKerningGroup = G;
note = Gmacron;
unicode = 1E20;
},
{
glyphname = H;
lastChange = "2015-11-29 14:55:11 +0000";
layers = (
{
layerId = "097E1CCD-D4DB-46B5-97AF-AA821C3DB512";
name = "Bold Italic";
paths = (
{
closed = 1;
nodes = (
"266 0 LINE",
"268 15 LINE",
"244 25 OFFCURVE",
"220 31 OFFCURVE",
"198 36 CURVE",
"326 662 LINE",
"345 665 OFFCURVE",
"376 671 OFFCURVE",
"405 685 CURVE",
"408 700 LINE",
"127 700 LINE",
"124 684 LINE",
"149 674 OFFCURVE",
"172 668 OFFCURVE",
"196 663 CURVE",
"68 37 LINE",
"46 34 OFFCURVE",
"15 25 OFFCURVE",
"-12 17 CURVE",
"-15 0 LINE"
);
},
{
closed = 1;
nodes = (
"628 332 LINE",
"637 378 LINE",
"206 378 LINE",
"196 332 LINE"
);
},
{
closed = 1;
nodes = (
"704 0 LINE",
"707 15 LINE",
"682 25 OFFCURVE",
"658 31 OFFCURVE",
"634 36 CURVE",
"762 661 LINE",
"785 664 OFFCURVE",
"816 674 OFFCURVE",
"843 682 CURVE",
"846 700 LINE",
"566 700 LINE",
"563 684 LINE",
"587 675 OFFCURVE",
"609 668 OFFCURVE",
"633 664 CURVE",
"505 37 LINE",
"485 34 OFFCURVE",
"454 26 OFFCURVE",
"426 13 CURVE",
"424 0 LINE"
);
}
);
width = 782;
}
);
note = H;
unicode = 0048;
},
{
glyphname = Hbar;
lastChange = "2015-11-29 14:55:12 +0000";
layers = (
{
layerId = "097E1CCD-D4DB-46B5-97AF-AA821C3DB512";
name = "Bold Italic";
paths = (
{
closed = 1;
nodes = (
"266 0 LINE",
"268 15 LINE",
"244 25 OFFCURVE",
"220 31 OFFCURVE",
"198 36 CURVE",
"326 662 LINE",
"345 665 OFFCURVE",
"376 671 OFFCURVE",
"405 685 CURVE",
"408 700 LINE",
"127 700 LINE",
"124 684 LINE",
"149 674 OFFCURVE",
"172 668 OFFCURVE",
"196 663 CURVE",
"68 37 LINE",
"46 34 OFFCURVE",
"15 25 OFFCURVE",
"-12 17 CURVE",
"-15 0 LINE"
);
},
{
closed = 1;
nodes = (
"628 332 LINE",
"637 378 LINE",
"206 378 LINE",
"196 332 LINE"
);
},
{
closed = 1;
nodes = (
"786 497 LINE",
"796 542 LINE",
"114 542 LINE",
"104 497 LINE"
);
},
{
closed = 1;
nodes = (
"704 0 LINE",
"707 15 LINE",
"682 25 OFFCURVE",
"658 31 OFFCURVE",
"634 36 CURVE",
"762 661 LINE",
"785 664 OFFCURVE",
"816 674 OFFCURVE",
"843 682 CURVE",
"846 700 LINE",
"566 700 LINE",
"563 684 LINE",
"587 675 OFFCURVE",
"609 668 OFFCURVE",
"633 664 CURVE",
"505 37 LINE",
"485 34 OFFCURVE",
"477 33 OFFCURVE",
"426 13 CURVE",
"424 0 LINE"
);
}
);
width = 782;
}
);
note = Hbar;
unicode = 0126;
},
{
glyphname = Hbrevebelow;
lastChange = "2015-11-29 14:55:12 +0000";
layers = (
{
layerId = "097E1CCD-D4DB-46B5-97AF-AA821C3DB512";
name = "Bold Italic";
paths = (
{
closed = 1;
nodes = (
"266 0 LINE",
"268 15 LINE",
"244 25 OFFCURVE",
"220 31 OFFCURVE",
"198 36 CURVE",
"326 662 LINE",
"345 665 OFFCURVE",
"376 671 OFFCURVE",
"405 685 CURVE",
"408 700 LINE",
"127 700 LINE",
"124 684 LINE",
"149 674 OFFCURVE",
"172 668 OFFCURVE",
"196 663 CURVE",
"68 37 LINE",
"46 34 OFFCURVE",
"15 25 OFFCURVE",
"-12 17 CURVE",
"-15 0 LINE"
);
},
{
closed = 1;
nodes = (
"396 -181 OFFCURVE",
"468 -140 OFFCURVE",
"499 -50 CURVE",
"426 -50 LINE",
"403 -124 OFFCURVE",
"356 -135 OFFCURVE",
"317 -135 CURVE SMOOTH",
"278 -135 OFFCURVE",
"234 -124 OFFCURVE",
"242 -50 CURVE",
"169 -50 LINE",
"164 -140 OFFCURVE",
"218 -181 OFFCURVE",
"308 -181 CURVE SMOOTH"
);
},
{
closed = 1;
nodes = (
"628 332 LINE",
"637 378 LINE",
"206 378 LINE",
"196 332 LINE"
);
},
{
closed = 1;
nodes = (
"704 0 LINE",
"707 15 LINE",
"682 25 OFFCURVE",
"658 31 OFFCURVE",
"634 36 CURVE",
"762 661 LINE",
"785 664 OFFCURVE",
"816 674 OFFCURVE",
"843 682 CURVE",
"846 700 LINE",
"566 700 LINE",
"563 684 LINE",
"587 675 OFFCURVE",
"609 668 OFFCURVE",
"633 664 CURVE",
"505 37 LINE",
"485 34 OFFCURVE",
"454 26 OFFCURVE",
"426 13 CURVE",
"424 0 LINE"
);
}
);
width = 782;
}
);
note = Hbrevebelow;
unicode = 1E2A;
},
{
glyphname = Hcircumflex;
lastChange = "2015-11-29 14:55:10 +0000";
layers = (
{
layerId = "097E1CCD-D4DB-46B5-97AF-AA821C3DB512";
name = "Bold Italic";
paths = (
{
closed = 1;
nodes = (
"266 0 LINE",
"268 15 LINE",
"244 25 OFFCURVE",
"220 31 OFFCURVE",
"198 36 CURVE",
"326 662 LINE",
"345 665 OFFCURVE",
"376 671 OFFCURVE",
"405 685 CURVE",
"408 700 LINE",
"127 700 LINE",
"124 684 LINE",
"149 674 OFFCURVE",
"172 668 OFFCURVE",
"196 663 CURVE",
"68 37 LINE",
"46 34 OFFCURVE",
"15 25 OFFCURVE",
"-12 17 CURVE",
"-15 0 LINE"
);
},
{
closed = 1;
nodes = (
"628 332 LINE",
"637 378 LINE",
"206 378 LINE",
"196 332 LINE"
);
},
{
closed = 1;
nodes = (
"704 0 LINE",
"707 15 LINE",
"682 25 OFFCURVE",
"658 31 OFFCURVE",
"634 36 CURVE",
"762 661 LINE",
"785 664 OFFCURVE",
"816 674 OFFCURVE",
"843 682 CURVE",
"846 700 LINE",
"566 700 LINE",
"563 684 LINE",
"587 675 OFFCURVE",
"609 668 OFFCURVE",
"633 664 CURVE",
"505 37 LINE",
"485 34 OFFCURVE",
"454 26 OFFCURVE",
"426 13 CURVE",
"424 0 LINE"
);
},
{
closed = 1;
nodes = (
"428 813 OFFCURVE",
"495 868 OFFCURVE",
"526 904 CURVE",
"530 904 LINE",
"546 868 OFFCURVE",
"589 813 OFFCURVE",
"622 782 CURVE",
"681 823 LINE",
"646 851 OFFCURVE",
"586 922 OFFCURVE",
"568 959 CURVE",
"508 959 LINE",
"477 922 OFFCURVE",
"387 851 OFFCURVE",
"340 823 CURVE",
"385 782 LINE"
);
}
);
width = 782;
}
);
note = Hcircumflex;
unicode = 0124;
},
{
glyphname = Hdotbelow;
lastChange = "2015-11-29 14:55:12 +0000";
layers = (
{
layerId = "097E1CCD-D4DB-46B5-97AF-AA821C3DB512";
name = "Bold Italic";
paths = (
{
closed = 1;
nodes = (
"266 0 LINE",
"268 15 LINE",
"244 25 OFFCURVE",
"220 31 OFFCURVE",
"198 36 CURVE",
"326 662 LINE",
"345 665 OFFCURVE",
"376 671 OFFCURVE",
"405 685 CURVE",
"408 700 LINE",
"127 700 LINE",
"124 684 LINE",
"149 674 OFFCURVE",
"172 668 OFFCURVE",
"196 663 CURVE",
"68 37 LINE",
"46 34 OFFCURVE",
"15 25 OFFCURVE",
"-12 17 CURVE",
"-15 0 LINE"
);
},
{
closed = 1;
nodes = (
"340 -169 OFFCURVE",
"366 -145 OFFCURVE",
"372 -113 CURVE SMOOTH",
"379 -80 OFFCURVE",
"364 -56 OFFCURVE",
"331 -56 CURVE SMOOTH",
"298 -56 OFFCURVE",
"271 -80 OFFCURVE",
"265 -113 CURVE SMOOTH",
"259 -145 OFFCURVE",
"275 -169 OFFCURVE",
"308 -169 CURVE SMOOTH"
);
},
{
closed = 1;
nodes = (
"628 332 LINE",
"637 378 LINE",
"206 378 LINE",
"196 332 LINE"
);
},
{
closed = 1;
nodes = (
"704 0 LINE",
"707 15 LINE",
"682 25 OFFCURVE",
"658 31 OFFCURVE",
"634 36 CURVE",
"762 661 LINE",
"785 664 OFFCURVE",
"816 674 OFFCURVE",
"843 682 CURVE",
"846 700 LINE",
"566 700 LINE",
"563 684 LINE",
"587 675 OFFCURVE",
"609 668 OFFCURVE",
"633 664 CURVE",
"505 37 LINE",
"485 34 OFFCURVE",
"454 26 OFFCURVE",
"426 13 CURVE",
"424 0 LINE"
);
}
);
width = 782;
}
);
note = Hdotbelow;
unicode = 1E24;
},
{
glyphname = I;
lastChange = "2015-11-29 14:55:12 +0000";
layers = (
{
layerId = "097E1CCD-D4DB-46B5-97AF-AA821C3DB512";
name = "Bold Italic";
paths = (
{
closed = 1;
nodes = (
"272 0 LINE",
"275 16 LINE",
"251 24 OFFCURVE",
"223 32 OFFCURVE",
"201 36 CURVE",
"329 662 LINE",
"347 666 OFFCURVE",
"386 671 OFFCURVE",
"411 682 CURVE",
"414 700 LINE",
"129 700 LINE",
"126 683 LINE",
"149 675 OFFCURVE",
"176 667 OFFCURVE",
"198 663 CURVE",
"71 37 LINE",
"44 31 OFFCURVE",
"15 24 OFFCURVE",
"-10 17 CURVE",
"-13 0 LINE"
);
}
);
width = 352;
}
);
note = I;
unicode = 0049;
},
{
glyphname = IJ;
lastChange = "2015-11-29 14:55:12 +0000";
layers = (
{
layerId = "097E1CCD-D4DB-46B5-97AF-AA821C3DB512";
name = "Bold Italic";
paths = (
{
closed = 1;
nodes = (
"585 -10 OFFCURVE",
"684 40 OFFCURVE",
"708 156 CURVE SMOOTH",
"811 661 LINE",
"833 664 OFFCURVE",
"864 674 OFFCURVE",
"890 682 CURVE",
"893 700 LINE",
"612 700 LINE",
"608 682 LINE",
"630 673 OFFCURVE",
"649 667 OFFCURVE",
"680 662 CURVE",
"577 152 LINE SMOOTH",
"560 72 OFFCURVE",
"509 44 OFFCURVE",
"455 44 CURVE SMOOTH",
"412 44 OFFCURVE",
"375 60 OFFCURVE",
"352 78 CURVE",
"326 45 LINE",
"359 9 OFFCURVE",
"416 -10 OFFCURVE",
"481 -10 CURVE SMOOTH"
);
},
{
closed = 1;
nodes = (
"272 0 LINE",
"275 16 LINE",
"251 24 OFFCURVE",
"223 32 OFFCURVE",
"201 36 CURVE",
"329 662 LINE",
"347 666 OFFCURVE",
"386 671 OFFCURVE",
"411 682 CURVE",
"414 700 LINE",
"129 700 LINE",
"126 683 LINE",
"149 675 OFFCURVE",
"176 667 OFFCURVE",
"198 663 CURVE",
"71 37 LINE",
"44 31 OFFCURVE",
"15 24 OFFCURVE",
"-10 17 CURVE",
"-13 0 LINE"
);
}
);
width = 831;
}
);
note = IJ;
rightKerningGroup = J;
unicode = 0132;
},
{
glyphname = Iacute;
lastChange = "2015-11-29 14:55:12 +0000";
layers = (
{
layerId = "097E1CCD-D4DB-46B5-97AF-AA821C3DB512";
name = "Bold Italic";
paths = (
{
closed = 1;
nodes = (
"272 0 LINE",
"275 16 LINE",
"251 24 OFFCURVE",
"223 32 OFFCURVE",
"201 36 CURVE",
"329 662 LINE",
"347 666 OFFCURVE",
"386 671 OFFCURVE",
"411 682 CURVE",
"414 700 LINE",
"129 700 LINE",
"126 683 LINE",
"149 675 OFFCURVE",
"176 667 OFFCURVE",
"198 663 CURVE",
"71 37 LINE",
"44 31 OFFCURVE",
"15 24 OFFCURVE",
"-10 17 CURVE",
"-13 0 LINE"
);
},
{
closed = 1;
nodes = (
"369 875 LINE SMOOTH",
"400 892 OFFCURVE",
"418 909 OFFCURVE",
"422 930 CURVE",
"426 947 OFFCURVE",
"419 967 OFFCURVE",
"390 967 CURVE SMOOTH",
"362 967 OFFCURVE",
"335 943 OFFCURVE",
"328 936 CURVE",
"188 817 LINE",
"203 786 LINE"
);
}
);
width = 352;
}
);
note = Iacute;
unicode = 00CD;
},
{
glyphname = Ibreve;
lastChange = "2015-11-29 14:55:11 +0000";
layers = (
{
layerId = "097E1CCD-D4DB-46B5-97AF-AA821C3DB512";
name = "Bold Italic";
paths = (
{
closed = 1;
nodes = (
"272 0 LINE",
"275 16 LINE",
"251 24 OFFCURVE",
"223 32 OFFCURVE",
"201 36 CURVE",
"329 662 LINE",
"347 666 OFFCURVE",
"386 671 OFFCURVE",
"411 682 CURVE",
"414 700 LINE",
"129 700 LINE",
"126 683 LINE",
"149 675 OFFCURVE",
"176 667 OFFCURVE",
"198 663 CURVE",
"71 37 LINE",
"44 31 OFFCURVE",
"15 24 OFFCURVE",
"-10 17 CURVE",
"-13 0 LINE"
);
},
{
closed = 1;
nodes = (
"376 780 OFFCURVE",
"448 822 OFFCURVE",
"479 911 CURVE",
"406 911 LINE",
"383 837 OFFCURVE",
"336 827 OFFCURVE",
"296 827 CURVE SMOOTH",
"257 827 OFFCURVE",
"213 837 OFFCURVE",
"220 911 CURVE",
"148 911 LINE",
"144 822 OFFCURVE",
"196 780 OFFCURVE",
"287 780 CURVE SMOOTH"
);
}
);
width = 352;
}
);
note = Ibreve;
unicode = 012C;
},
{
glyphname = Icaron;
lastChange = "2015-11-29 14:55:11 +0000";
layers = (
{
layerId = "097E1CCD-D4DB-46B5-97AF-AA821C3DB512";
name = "Bold Italic";
paths = (
{
closed = 1;
nodes = (
"272 0 LINE",
"275 16 LINE",
"251 24 OFFCURVE",
"223 32 OFFCURVE",
"201 36 CURVE",
"329 662 LINE",
"347 666 OFFCURVE",
"386 671 OFFCURVE",
"411 682 CURVE",
"414 700 LINE",
"129 700 LINE",
"126 683 LINE",
"149 675 OFFCURVE",
"176 667 OFFCURVE",
"198 663 CURVE",
"71 37 LINE",
"44 31 OFFCURVE",
"15 24 OFFCURVE",
"-10 17 CURVE",
"-13 0 LINE"
);
},
{
closed = 1;
nodes = (
"317 786 LINE",
"350 824 OFFCURVE",
"439 894 OFFCURVE",
"486 922 CURVE",
"442 963 LINE",
"398 932 OFFCURVE",
"332 877 OFFCURVE",
"300 841 CURVE",
"296 841 LINE",
"281 877 OFFCURVE",
"237 932 OFFCURVE",
"204 963 CURVE",
"146 922 LINE",
"180 894 OFFCURVE",
"241 824 OFFCURVE",
"258 786 CURVE"
);
}
);
width = 352;
}
);
note = Icaron;
unicode = 01CF;
},
{
glyphname = Icircumflex;
lastChange = "2015-11-29 14:55:11 +0000";
layers = (
{
layerId = "097E1CCD-D4DB-46B5-97AF-AA821C3DB512";
name = "Bold Italic";
paths = (
{
closed = 1;
nodes = (
"272 0 LINE",
"275 16 LINE",
"251 24 OFFCURVE",
"223 32 OFFCURVE",
"201 36 CURVE",
"329 662 LINE",
"347 666 OFFCURVE",
"386 671 OFFCURVE",
"411 682 CURVE",
"414 700 LINE",
"129 700 LINE",
"126 683 LINE",
"149 675 OFFCURVE",
"176 667 OFFCURVE",
"198 663 CURVE",
"71 37 LINE",
"44 31 OFFCURVE",
"15 24 OFFCURVE",
"-10 17 CURVE",
"-13 0 LINE"
);
},
{
closed = 1;
nodes = (
"212 813 OFFCURVE",
"279 868 OFFCURVE",
"310 904 CURVE",
"314 904 LINE",
"330 868 OFFCURVE",
"373 813 OFFCURVE",
"406 782 CURVE",
"465 823 LINE",
"430 851 OFFCURVE",
"370 922 OFFCURVE",
"352 959 CURVE",
"292 959 LINE",
"261 922 OFFCURVE",
"171 851 OFFCURVE",
"124 823 CURVE",
"169 782 LINE"
);
}
);
width = 352;
}
);
note = Icircumflex;
unicode = 00CE;
},
{
glyphname = Idieresis;
lastChange = "2015-11-29 14:55:12 +0000";
layers = (
{
layerId = "097E1CCD-D4DB-46B5-97AF-AA821C3DB512";
name = "Bold Italic";
paths = (
{
closed = 1;
nodes = (
"272 0 LINE",
"275 16 LINE",
"251 24 OFFCURVE",
"223 32 OFFCURVE",
"201 36 CURVE",
"329 662 LINE",
"347 666 OFFCURVE",
"386 671 OFFCURVE",
"411 682 CURVE",
"414 700 LINE",
"129 700 LINE",
"126 683 LINE",
"149 675 OFFCURVE",
"176 667 OFFCURVE",
"198 663 CURVE",
"71 37 LINE",
"44 31 OFFCURVE",
"15 24 OFFCURVE",
"-10 17 CURVE",
"-13 0 LINE"
);
},
{
closed = 1;
nodes = (
"208 785 OFFCURVE",
"235 809 OFFCURVE",
"241 841 CURVE SMOOTH",
"247 874 OFFCURVE",
"231 898 OFFCURVE",
"197 898 CURVE SMOOTH",
"167 898 OFFCURVE",
"141 874 OFFCURVE",
"134 841 CURVE SMOOTH",
"128 809 OFFCURVE",
"144 785 OFFCURVE",
"174 785 CURVE SMOOTH"
);
},
{
closed = 1;
nodes = (
"432 785 OFFCURVE",
"459 809 OFFCURVE",
"464 841 CURVE SMOOTH",
"471 874 OFFCURVE",
"455 898 OFFCURVE",
"422 898 CURVE SMOOTH",
"388 898 OFFCURVE",
"364 874 OFFCURVE",
"357 841 CURVE SMOOTH",
"351 809 OFFCURVE",
"365 785 OFFCURVE",
"399 785 CURVE SMOOTH"
);
}
);
width = 352;
}
);
note = Idieresis;
unicode = 00CF;
},
{
glyphname = Idotaccent;
lastChange = "2015-11-29 14:55:12 +0000";
layers = (
{
layerId = "097E1CCD-D4DB-46B5-97AF-AA821C3DB512";
name = "Bold Italic";
paths = (
{
closed = 1;
nodes = (
"272 0 LINE",
"275 16 LINE",
"251 24 OFFCURVE",
"223 32 OFFCURVE",
"201 36 CURVE",
"329 662 LINE",
"347 666 OFFCURVE",
"386 671 OFFCURVE",
"411 682 CURVE",
"414 700 LINE",
"129 700 LINE",
"126 683 LINE",
"149 675 OFFCURVE",
"176 667 OFFCURVE",
"198 663 CURVE",
"71 37 LINE",
"44 31 OFFCURVE",
"15 24 OFFCURVE",
"-10 17 CURVE",
"-13 0 LINE"
);
},
{
closed = 1;
nodes = (
"318 785 OFFCURVE",
"345 809 OFFCURVE",
"351 841 CURVE SMOOTH",
"358 874 OFFCURVE",
"341 898 OFFCURVE",
"310 898 CURVE SMOOTH",
"276 898 OFFCURVE",
"251 874 OFFCURVE",
"244 841 CURVE SMOOTH",
"239 809 OFFCURVE",
"253 785 OFFCURVE",
"287 785 CURVE SMOOTH"
);
}
);
width = 352;
}
);
note = Idotaccent;
unicode = 0130;
},
{
glyphname = Idotbelow;
lastChange = "2015-11-29 14:55:11 +0000";
layers = (
{
layerId = "097E1CCD-D4DB-46B5-97AF-AA821C3DB512";
name = "Bold Italic";
paths = (
{
closed = 1;
nodes = (
"272 0 LINE",
"275 16 LINE",
"251 24 OFFCURVE",
"223 32 OFFCURVE",
"201 36 CURVE",
"329 662 LINE",
"347 666 OFFCURVE",
"386 671 OFFCURVE",
"411 682 CURVE",
"414 700 LINE",
"129 700 LINE",
"126 683 LINE",
"149 675 OFFCURVE",
"176 667 OFFCURVE",
"198 663 CURVE",
"71 37 LINE",
"44 31 OFFCURVE",
"15 24 OFFCURVE",
"-10 17 CURVE",
"-13 0 LINE"
);
},
{
closed = 1;
nodes = (
"127 -169 OFFCURVE",
"153 -145 OFFCURVE",
"159 -113 CURVE SMOOTH",
"166 -80 OFFCURVE",
"150 -56 OFFCURVE",
"118 -56 CURVE SMOOTH",
"85 -56 OFFCURVE",
"58 -80 OFFCURVE",
"52 -113 CURVE SMOOTH",
"46 -145 OFFCURVE",
"62 -169 OFFCURVE",
"95 -169 CURVE SMOOTH"
);
}
);
width = 352;
}
);
note = Idotbelow;
unicode = 1ECA;
},
{
glyphname = Igrave;
lastChange = "2015-11-29 14:55:11 +0000";
layers = (
{
layerId = "097E1CCD-D4DB-46B5-97AF-AA821C3DB512";
name = "Bold Italic";
paths = (
{
closed = 1;
nodes = (
"272 0 LINE",
"275 16 LINE",
"251 24 OFFCURVE",
"223 32 OFFCURVE",
"201 36 CURVE",
"329 662 LINE",
"347 666 OFFCURVE",
"386 671 OFFCURVE",
"411 682 CURVE",
"414 700 LINE",
"129 700 LINE",
"126 683 LINE",
"149 675 OFFCURVE",
"176 667 OFFCURVE",
"198 663 CURVE",
"71 37 LINE",
"44 31 OFFCURVE",
"15 24 OFFCURVE",
"-10 17 CURVE",
"-13 0 LINE"
);
},
{
closed = 1;
nodes = (
"400 817 LINE",
"309 937 LINE SMOOTH",
"303 945 OFFCURVE",
"283 967 OFFCURVE",
"256 967 CURVE SMOOTH",
"231 967 OFFCURVE",
"215 946 OFFCURVE",
"211 929 CURVE",
"207 908 OFFCURVE",
"219 892 OFFCURVE",
"244 875 CURVE SMOOTH",
"373 786 LINE"
);
}
);
width = 352;
}
);
note = Igrave;
unicode = 00CC;
},
{
glyphname = Ihookabove;
lastChange = "2015-11-29 14:55:10 +0000";
layers = (
{
layerId = "097E1CCD-D4DB-46B5-97AF-AA821C3DB512";
name = "Bold Italic";
paths = (
{
closed = 1;
nodes = (
"272 0 LINE",
"275 16 LINE",
"251 24 OFFCURVE",
"223 32 OFFCURVE",
"201 36 CURVE",
"329 662 LINE",
"347 666 OFFCURVE",
"386 671 OFFCURVE",
"411 682 CURVE",
"414 700 LINE",
"129 700 LINE",
"126 683 LINE",
"149 675 OFFCURVE",
"176 667 OFFCURVE",
"198 663 CURVE",
"71 37 LINE",
"44 31 OFFCURVE",
"15 24 OFFCURVE",
"-10 17 CURVE",
"-13 0 LINE"
);
},
{
closed = 1;
nodes = (
"319 781 LINE",
"343 849 LINE",
"396 854 OFFCURVE",
"436 876 OFFCURVE",
"447 931 CURVE SMOOTH",
"460 994 OFFCURVE",
"412 1018 OFFCURVE",
"357 1018 CURVE SMOOTH",
"326 1018 OFFCURVE",
"294 1010 OFFCURVE",
"273 1001 CURVE",
"272 965 LINE",
"295 976 OFFCURVE",
"317 981 OFFCURVE",
"335 981 CURVE SMOOTH",
"373 981 OFFCURVE",
"388 958 OFFCURVE",
"384 933 CURVE SMOOTH",
"376 897 OFFCURVE",
"345 881 OFFCURVE",
"315 881 CURVE SMOOTH",
"283 881 LINE",
"268 781 LINE"
);
}
);
width = 352;
}
);
note = Ihookabove;
unicode = 1EC8;
},
{
glyphname = Imacron;
lastChange = "2015-11-29 14:55:11 +0000";
layers = (
{
layerId = "097E1CCD-D4DB-46B5-97AF-AA821C3DB512";
name = "Bold Italic";
paths = (
{
closed = 1;
nodes = (
"272 0 LINE",
"275 16 LINE",
"251 24 OFFCURVE",
"223 32 OFFCURVE",
"201 36 CURVE",
"329 662 LINE",
"347 666 OFFCURVE",
"386 671 OFFCURVE",
"411 682 CURVE",
"414 700 LINE",
"129 700 LINE",
"126 683 LINE",
"149 675 OFFCURVE",
"176 667 OFFCURVE",
"198 663 CURVE",
"71 37 LINE",
"44 31 OFFCURVE",
"15 24 OFFCURVE",
"-10 17 CURVE",
"-13 0 LINE"
);
},
{
closed = 1;
nodes = (
"484 785 LINE",
"494 829 LINE",
"108 829 LINE",
"99 785 LINE"
);
}
);
width = 352;
}
);
note = Imacron;
unicode = 012A;
},
{
glyphname = Iogonek;
lastChange = "2015-11-29 14:55:10 +0000";
layers = (
{
layerId = "097E1CCD-D4DB-46B5-97AF-AA821C3DB512";
name = "Bold Italic";
paths = (
{
closed = 1;
nodes = (
"272 0 LINE",
"275 16 LINE",
"251 24 OFFCURVE",
"223 32 OFFCURVE",
"201 36 CURVE",
"329 662 LINE",
"347 666 OFFCURVE",
"386 671 OFFCURVE",
"411 682 CURVE",
"414 700 LINE",
"129 700 LINE",
"126 683 LINE",
"149 675 OFFCURVE",
"176 667 OFFCURVE",
"198 663 CURVE",
"71 37 LINE",
"44 31 OFFCURVE",
"15 24 OFFCURVE",
"-10 17 CURVE",
"-13 0 LINE"
);
},
{
closed = 1;
nodes = (
"219 -200 OFFCURVE",
"257 -191 OFFCURVE",
"284 -177 CURVE",
"295 -121 LINE",
"270 -134 OFFCURVE",
"248 -140 OFFCURVE",
"231 -140 CURVE SMOOTH",
"197 -140 OFFCURVE",
"176 -120 OFFCURVE",
"183 -88 CURVE SMOOTH",
"190 -55 OFFCURVE",
"222 -19 OFFCURVE",
"254 0 CURVE",
"192 0 LINE",
"132 -19 OFFCURVE",
"91 -68 OFFCURVE",
"81 -113 CURVE SMOOTH",
"72 -163 OFFCURVE",
"106 -200 OFFCURVE",
"181 -200 CURVE SMOOTH"
);
}
);
width = 352;
}
);
note = Iogonek;
unicode = 012E;
},
{
glyphname = Itilde;
lastChange = "2015-11-29 14:55:10 +0000";
layers = (
{
layerId = "097E1CCD-D4DB-46B5-97AF-AA821C3DB512";
name = "Bold Italic";
paths = (
{
closed = 1;
nodes = (
"272 0 LINE",
"275 16 LINE",
"251 24 OFFCURVE",
"223 32 OFFCURVE",
"201 36 CURVE",
"329 662 LINE",
"347 666 OFFCURVE",
"386 671 OFFCURVE",
"411 682 CURVE",
"414 700 LINE",
"129 700 LINE",
"126 683 LINE",
"149 675 OFFCURVE",
"176 667 OFFCURVE",
"198 663 CURVE",
"71 37 LINE",
"44 31 OFFCURVE",
"15 24 OFFCURVE",
"-10 17 CURVE",
"-13 0 LINE"
);
},
{
closed = 1;
nodes = (
"157 786 LINE",
"171 819 OFFCURVE",
"196 840 OFFCURVE",
"225 840 CURVE SMOOTH",
"262 840 OFFCURVE",
"310 786 OFFCURVE",
"364 786 CURVE SMOOTH",
"432 786 OFFCURVE",
"473 832 OFFCURVE",
"495 900 CURVE",
"446 900 LINE",
"427 855 OFFCURVE",
"399 844 OFFCURVE",
"373 844 CURVE SMOOTH",
"334 844 OFFCURVE",
"302 897 OFFCURVE",
"238 897 CURVE SMOOTH",
"177 897 OFFCURVE",
"130 860 OFFCURVE",
"106 786 CURVE"
);
}
);
width = 352;
}
);
note = Itilde;
unicode = 0128;
},
{
glyphname = J;
lastChange = "2015-11-29 14:55:11 +0000";
layers = (
{
layerId = "097E1CCD-D4DB-46B5-97AF-AA821C3DB512";
name = "Bold Italic";
paths = (
{
closed = 1;
nodes = (
"240 -10 OFFCURVE",
"339 40 OFFCURVE",
"363 156 CURVE SMOOTH",
"465 661 LINE",
"487 664 OFFCURVE",
"518 674 OFFCURVE",
"544 682 CURVE",
"548 700 LINE",
"267 700 LINE",
"263 682 LINE",
"285 673 OFFCURVE",
"303 667 OFFCURVE",
"335 662 CURVE",
"231 152 LINE SMOOTH",
"215 72 OFFCURVE",
"164 44 OFFCURVE",
"109 44 CURVE SMOOTH",
"67 44 OFFCURVE",
"29 60 OFFCURVE",
"6 78 CURVE",
"-20 45 LINE",
"13 9 OFFCURVE",
"71 -10 OFFCURVE",
"135 -10 CURVE SMOOTH"
);
}
);
width = 485;
}
);
leftKerningGroup = J;
note = J;
rightKerningGroup = J;
unicode = 004A;
},
{
glyphname = Jcircumflex;
lastChange = "2015-11-29 14:55:12 +0000";
layers = (
{
layerId = "097E1CCD-D4DB-46B5-97AF-AA821C3DB512";
name = "Bold Italic";
paths = (
{
closed = 1;
nodes = (
"240 -10 OFFCURVE",
"339 40 OFFCURVE",
"363 156 CURVE SMOOTH",
"465 661 LINE",
"487 664 OFFCURVE",
"518 674 OFFCURVE",
"544 682 CURVE",
"548 700 LINE",
"267 700 LINE",
"263 682 LINE",
"285 673 OFFCURVE",
"303 667 OFFCURVE",
"335 662 CURVE",
"231 152 LINE SMOOTH",
"215 72 OFFCURVE",
"164 44 OFFCURVE",
"109 44 CURVE SMOOTH",
"67 44 OFFCURVE",
"29 60 OFFCURVE",
"6 78 CURVE",
"-20 45 LINE",
"13 9 OFFCURVE",
"71 -10 OFFCURVE",
"135 -10 CURVE SMOOTH"
);
},
{
closed = 1;
nodes = (
"348 813 OFFCURVE",
"415 868 OFFCURVE",
"446 904 CURVE",
"450 904 LINE",
"466 868 OFFCURVE",
"509 813 OFFCURVE",
"542 782 CURVE",
"602 823 LINE",
"566 851 OFFCURVE",
"507 922 OFFCURVE",
"488 959 CURVE",
"429 959 LINE",
"397 922 OFFCURVE",
"307 851 OFFCURVE",
"261 823 CURVE",
"305 782 LINE"
);
}
);
width = 485;
}
);
leftKerningGroup = J;
note = Jcircumflex;
rightKerningGroup = J;
unicode = 0134;
},
{
glyphname = K;
lastChange = "2015-11-29 14:55:11 +0000";
layers = (
{
layerId = "097E1CCD-D4DB-46B5-97AF-AA821C3DB512";
name = "Bold Italic";
paths = (
{
closed = 1;
nodes = (
"270 0 LINE",
"273 16 LINE",
"249 24 OFFCURVE",
"221 32 OFFCURVE",
"199 36 CURVE",
"327 662 LINE",
"345 666 OFFCURVE",
"384 671 OFFCURVE",
"409 682 CURVE",
"412 700 LINE",
"127 700 LINE",
"124 683 LINE",
"148 675 OFFCURVE",
"174 667 OFFCURVE",
"196 663 CURVE",
"69 37 LINE",
"42 31 OFFCURVE",
"13 24 OFFCURVE",
"-12 17 CURVE",
"-15 0 LINE"
);
},
{
closed = 1;
nodes = (
"698 0 LINE",
"700 16 LINE",
"671 25 OFFCURVE",
"643 32 OFFCURVE",
"622 36 CURVE",
"414 431 LINE",
"321 349 LINE",
"504 0 LINE"
);
},
{
closed = 1;
nodes = (
"689 656 LINE",
"713 671 OFFCURVE",
"740 672 OFFCURVE",
"764 678 CURVE",
"768 700 LINE",
"555 700 LINE",
"551 678 LINE",
"573 672 OFFCURVE",
"607 669 OFFCURVE",
"622 659 CURVE",
"209 287 LINE",
"193 210 LINE"
);
}
);
width = 751;
}
);
note = K;
rightKerningGroup = K;
unicode = 004B;
},
{
glyphname = Kcommaaccent;
lastChange = "2015-11-29 14:55:11 +0000";
layers = (
{
layerId = "097E1CCD-D4DB-46B5-97AF-AA821C3DB512";
name = "Bold Italic";
paths = (
{
closed = 1;
nodes = (
"270 0 LINE",
"273 16 LINE",
"249 24 OFFCURVE",
"221 32 OFFCURVE",
"199 36 CURVE",
"327 662 LINE",
"345 666 OFFCURVE",
"384 671 OFFCURVE",
"409 682 CURVE",
"412 700 LINE",
"127 700 LINE",
"124 683 LINE",
"148 675 OFFCURVE",
"174 667 OFFCURVE",
"196 663 CURVE",
"69 37 LINE",
"42 31 OFFCURVE",
"13 24 OFFCURVE",
"-12 17 CURVE",
"-15 0 LINE"
);
},
{
closed = 1;
nodes = (
"315 -300 OFFCURVE",
"368 -220 OFFCURVE",
"382 -151 CURVE SMOOTH",
"390 -111 OFFCURVE",
"377 -77 OFFCURVE",
"328 -77 CURVE SMOOTH",
"294 -77 OFFCURVE",
"259 -99 OFFCURVE",
"251 -138 CURVE SMOOTH",
"244 -177 OFFCURVE",
"265 -199 OFFCURVE",
"303 -200 CURVE",
"289 -243 OFFCURVE",
"250 -287 OFFCURVE",
"221 -314 CURVE",
"256 -346 LINE"
);
},
{
closed = 1;
nodes = (
"698 0 LINE",
"700 16 LINE",
"671 25 OFFCURVE",
"643 32 OFFCURVE",
"622 36 CURVE",
"414 431 LINE",
"321 349 LINE",
"504 0 LINE"
);
},
{
closed = 1;
nodes = (
"689 656 LINE",
"713 671 OFFCURVE",
"740 672 OFFCURVE",
"764 678 CURVE",
"768 700 LINE",
"555 700 LINE",
"551 678 LINE",
"573 672 OFFCURVE",
"607 669 OFFCURVE",
"622 659 CURVE",
"209 287 LINE",
"193 210 LINE"
);
}
);
width = 751;
}
);
note = Kcommaaccent;
rightKerningGroup = K;
unicode = 0136;
},
{
glyphname = L;
lastChange = "2015-11-29 14:55:12 +0000";
layers = (
{
layerId = "097E1CCD-D4DB-46B5-97AF-AA821C3DB512";
name = "Bold Italic";
paths = (
{
closed = 1;
nodes = (
"510 0 LINE",
"560 165 LINE",
"532 165 LINE",
"512 144 OFFCURVE",
"472 78 OFFCURVE",
"462 44 CURVE",
"207 44 LINE",
"333 662 LINE",
"359 668 OFFCURVE",
"388 674 OFFCURVE",
"412 682 CURVE",
"416 700 LINE",
"133 700 LINE",
"130 684 LINE",
"154 674 OFFCURVE",
"179 668 OFFCURVE",
"202 663 CURVE",
"75 36 LINE",
"45 32 OFFCURVE",
"15 24 OFFCURVE",
"-12 16 CURVE",
"-15 0 LINE"
);
}
);
width = 611;
}
);
note = L;
rightKerningGroup = L;
unicode = 004C;
},
{
glyphname = Lacute;
lastChange = "2015-11-29 14:55:11 +0000";
layers = (
{
layerId = "097E1CCD-D4DB-46B5-97AF-AA821C3DB512";
name = "Bold Italic";
paths = (
{
closed = 1;
nodes = (
"510 0 LINE",
"560 165 LINE",
"532 165 LINE",
"512 144 OFFCURVE",
"472 78 OFFCURVE",
"462 44 CURVE",
"207 44 LINE",
"333 662 LINE",
"359 668 OFFCURVE",
"388 674 OFFCURVE",
"412 682 CURVE",
"416 700 LINE",
"133 700 LINE",
"130 684 LINE",
"154 674 OFFCURVE",
"179 668 OFFCURVE",
"202 663 CURVE",
"75 36 LINE",
"45 32 OFFCURVE",
"15 24 OFFCURVE",
"-12 16 CURVE",
"-15 0 LINE"
);
},
{
closed = 1;
nodes = (
"406 875 LINE SMOOTH",
"436 892 OFFCURVE",
"455 909 OFFCURVE",
"459 930 CURVE",
"462 947 OFFCURVE",
"456 967 OFFCURVE",
"427 967 CURVE SMOOTH",
"398 967 OFFCURVE",
"371 943 OFFCURVE",
"364 936 CURVE",
"224 817 LINE",
"240 786 LINE"
);
}
);
width = 611;
}
);
note = Lacute;
rightKerningGroup = L;
unicode = 0139;
},
{
glyphname = Lcaron;
lastChange = "2015-11-29 14:55:10 +0000";
layers = (
{
layerId = "097E1CCD-D4DB-46B5-97AF-AA821C3DB512";
name = "Bold Italic";
paths = (
{
closed = 1;
nodes = (
"510 0 LINE",
"560 165 LINE",
"532 165 LINE",
"512 144 OFFCURVE",
"472 78 OFFCURVE",
"462 44 CURVE",
"207 44 LINE",
"333 662 LINE",
"359 668 OFFCURVE",
"388 674 OFFCURVE",
"412 682 CURVE",
"416 700 LINE",
"133 700 LINE",
"130 684 LINE",
"154 674 OFFCURVE",
"179 668 OFFCURVE",
"202 663 CURVE",
"75 36 LINE",
"45 32 OFFCURVE",
"15 24 OFFCURVE",
"-12 16 CURVE",
"-15 0 LINE"
);
},
{
closed = 1;
nodes = (
"556 492 OFFCURVE",
"612 573 OFFCURVE",
"627 642 CURVE SMOOTH",
"634 682 OFFCURVE",
"625 724 OFFCURVE",
"570 724 CURVE SMOOTH",
"525 724 OFFCURVE",
"497 691 OFFCURVE",
"490 654 CURVE SMOOTH",
"481 608 OFFCURVE",
"512 592 OFFCURVE",
"544 592 CURVE",
"530 549 OFFCURVE",
"491 505 OFFCURVE",
"462 479 CURVE",
"496 446 LINE"
);
}
);
width = 611;
}
);
note = Lcaron;
rightKerningGroup = L;
unicode = 013D;
},
{
glyphname = Lcommaaccent;
lastChange = "2015-11-29 14:55:10 +0000";
layers = (
{
layerId = "097E1CCD-D4DB-46B5-97AF-AA821C3DB512";
name = "Bold Italic";
paths = (
{
closed = 1;
nodes = (
"510 0 LINE",
"560 165 LINE",
"532 165 LINE",
"512 144 OFFCURVE",
"472 78 OFFCURVE",
"462 44 CURVE",
"207 44 LINE",
"333 662 LINE",
"359 668 OFFCURVE",
"388 674 OFFCURVE",
"412 682 CURVE",
"416 700 LINE",
"133 700 LINE",
"130 684 LINE",
"154 674 OFFCURVE",
"179 668 OFFCURVE",
"202 663 CURVE",
"75 36 LINE",
"45 32 OFFCURVE",
"15 24 OFFCURVE",
"-12 16 CURVE",
"-15 0 LINE"
);
},
{
closed = 1;
nodes = (
"242 -300 OFFCURVE",
"295 -220 OFFCURVE",
"309 -151 CURVE SMOOTH",
"317 -111 OFFCURVE",
"304 -77 OFFCURVE",
"255 -77 CURVE SMOOTH",
"221 -77 OFFCURVE",
"186 -99 OFFCURVE",
"178 -138 CURVE SMOOTH",
"171 -177 OFFCURVE",
"192 -199 OFFCURVE",
"230 -200 CURVE",
"216 -243 OFFCURVE",
"177 -287 OFFCURVE",
"148 -314 CURVE",
"183 -346 LINE"
);
}
);
width = 611;
}
);
note = Lcommaaccent;
rightKerningGroup = L;
unicode = 013B;
},
{
glyphname = Ldot;
lastChange = "2015-11-29 14:55:12 +0000";
layers = (
{
layerId = "097E1CCD-D4DB-46B5-97AF-AA821C3DB512";
name = "Bold Italic";
paths = (
{
closed = 1;
nodes = (
"510 0 LINE",
"560 165 LINE",
"532 165 LINE",
"512 144 OFFCURVE",
"472 78 OFFCURVE",
"462 44 CURVE",
"207 44 LINE",
"333 662 LINE",
"359 668 OFFCURVE",
"388 674 OFFCURVE",
"412 682 CURVE",
"416 700 LINE",
"133 700 LINE",
"130 684 LINE",
"154 674 OFFCURVE",
"179 668 OFFCURVE",
"202 663 CURVE",
"75 36 LINE",
"45 32 OFFCURVE",
"15 24 OFFCURVE",
"-12 16 CURVE",
"-15 0 LINE"
);
},
{
closed = 1;
nodes = (
"476 328 OFFCURVE",
"502 352 OFFCURVE",
"508 385 CURVE SMOOTH",
"515 416 OFFCURVE",
"499 441 OFFCURVE",
"466 441 CURVE SMOOTH",
"434 441 OFFCURVE",
"408 416 OFFCURVE",
"401 385 CURVE SMOOTH",
"394 352 OFFCURVE",
"411 328 OFFCURVE",
"443 328 CURVE SMOOTH"
);
}
);
width = 611;
}
);
note = Ldot;
rightKerningGroup = L;
unicode = 013F;
},
{
glyphname = Ldotbelow;
lastChange = "2015-11-29 14:55:12 +0000";
layers = (
{
layerId = "097E1CCD-D4DB-46B5-97AF-AA821C3DB512";
name = "Bold Italic";
paths = (
{
closed = 1;
nodes = (
"510 0 LINE",
"560 165 LINE",
"532 165 LINE",
"512 144 OFFCURVE",
"472 78 OFFCURVE",
"462 44 CURVE",
"207 44 LINE",
"333 662 LINE",
"359 668 OFFCURVE",
"388 674 OFFCURVE",
"412 682 CURVE",
"416 700 LINE",
"133 700 LINE",
"130 684 LINE",
"154 674 OFFCURVE",
"179 668 OFFCURVE",
"202 663 CURVE",
"75 36 LINE",
"45 32 OFFCURVE",
"15 24 OFFCURVE",
"-12 16 CURVE",
"-15 0 LINE"
);
},
{
closed = 1;
nodes = (
"270 -165 OFFCURVE",
"297 -141 OFFCURVE",
"304 -108 CURVE SMOOTH",
"310 -77 OFFCURVE",
"293 -52 OFFCURVE",
"262 -52 CURVE SMOOTH",
"228 -52 OFFCURVE",
"203 -77 OFFCURVE",
"197 -108 CURVE SMOOTH",
"191 -141 OFFCURVE",
"205 -165 OFFCURVE",
"239 -165 CURVE SMOOTH"
);
}
);
width = 611;
}
);
note = Ldotbelow;
rightKerningGroup = L;
unicode = 1E36;
},
{
glyphname = Ldotbelowmacron;
lastChange = "2015-11-29 14:55:10 +0000";
layers = (
{
layerId = "097E1CCD-D4DB-46B5-97AF-AA821C3DB512";
name = "Bold Italic";
paths = (
{
closed = 1;
nodes = (
"510 0 LINE",
"560 165 LINE",
"532 165 LINE",
"512 144 OFFCURVE",
"472 78 OFFCURVE",
"462 44 CURVE",
"207 44 LINE",
"333 662 LINE",
"359 668 OFFCURVE",
"388 674 OFFCURVE",
"412 682 CURVE",
"416 700 LINE",
"133 700 LINE",
"130 684 LINE",
"154 674 OFFCURVE",
"179 668 OFFCURVE",
"202 663 CURVE",
"75 36 LINE",
"45 32 OFFCURVE",
"15 24 OFFCURVE",
"-12 16 CURVE",
"-15 0 LINE"
);
},
{
closed = 1;
nodes = (
"269 -165 OFFCURVE",
"296 -141 OFFCURVE",
"303 -108 CURVE SMOOTH",
"309 -77 OFFCURVE",
"292 -52 OFFCURVE",
"259 -52 CURVE SMOOTH",
"227 -52 OFFCURVE",
"201 -77 OFFCURVE",
"196 -108 CURVE SMOOTH",
"189 -141 OFFCURVE",
"204 -165 OFFCURVE",
"236 -165 CURVE SMOOTH"
);
},
{
closed = 1;
nodes = (
"469 785 LINE",
"478 828 LINE",
"122 828 LINE",
"113 785 LINE"
);
}
);
width = 611;
}
);
note = Ldotbelowmacron;
rightKerningGroup = L;
unicode = 1E38;
},
{
glyphname = Llinebelow;
lastChange = "2015-11-29 14:55:11 +0000";
layers = (
{
layerId = "097E1CCD-D4DB-46B5-97AF-AA821C3DB512";
name = "Bold Italic";
paths = (
{
closed = 1;
nodes = (
"510 0 LINE",
"560 165 LINE",
"532 165 LINE",
"512 144 OFFCURVE",
"472 78 OFFCURVE",
"462 44 CURVE",
"207 44 LINE",
"333 662 LINE",
"359 668 OFFCURVE",
"388 674 OFFCURVE",
"412 682 CURVE",
"416 700 LINE",
"133 700 LINE",
"130 684 LINE",
"154 674 OFFCURVE",
"179 668 OFFCURVE",
"202 663 CURVE",
"75 36 LINE",
"45 32 OFFCURVE",
"15 24 OFFCURVE",
"-12 16 CURVE",
"-15 0 LINE"
);
},
{
closed = 1;
nodes = (
"416 -107 LINE",
"425 -64 LINE",
"70 -64 LINE",
"61 -107 LINE"
);
}
);
width = 611;
}
);
note = Llinebelow;
rightKerningGroup = L;
unicode = 1E3A;
},
{
glyphname = Lslash;
lastChange = "2015-11-29 14:55:12 +0000";
layers = (
{
layerId = "097E1CCD-D4DB-46B5-97AF-AA821C3DB512";
name = "Bold Italic";
paths = (
{
closed = 1;
nodes = (
"510 0 LINE",
"560 165 LINE",
"532 165 LINE",
"512 144 OFFCURVE",
"472 78 OFFCURVE",
"462 44 CURVE",
"207 44 LINE",
"333 662 LINE",
"359 668 OFFCURVE",
"388 674 OFFCURVE",
"412 682 CURVE",
"416 700 LINE",
"133 700 LINE",
"130 684 LINE",
"154 674 OFFCURVE",
"179 668 OFFCURVE",
"202 663 CURVE",
"75 36 LINE",
"45 32 OFFCURVE",
"15 24 OFFCURVE",
"-12 16 CURVE",
"-15 0 LINE"
);
},
{
closed = 1;
nodes = (
"468 379 LINE",
"481 440 LINE",
"49 290 LINE",
"36 229 LINE"
);
}
);
width = 611;
}
);
note = Lslash;
rightKerningGroup = L;
unicode = 0141;
},
{
glyphname = M;
lastChange = "2015-11-29 14:55:12 +0000";
layers = (
{
layerId = "097E1CCD-D4DB-46B5-97AF-AA821C3DB512";
name = "Bold Italic";
paths = (
{
closed = 1;
nodes = (
"193 0 LINE",
"196 15 LINE",
"172 24 OFFCURVE",
"148 30 OFFCURVE",
"124 35 CURVE",
"241 607 LINE",
"346 76 LINE",
"422 76 LINE",
"746 597 LINE",
"631 35 LINE",
"605 30 OFFCURVE",
"580 24 OFFCURVE",
"552 15 CURVE",
"549 0 LINE",
"831 0 LINE",
"834 15 LINE",
"809 24 OFFCURVE",
"785 30 OFFCURVE",
"762 35 CURVE",
"890 661 LINE",
"916 668 OFFCURVE",
"945 676 OFFCURVE",
"970 684 CURVE",
"973 700 LINE",
"758 700 LINE",
"437 181 LINE",
"343 700 LINE",
"127 700 LINE",
"124 684 LINE",
"148 674 OFFCURVE",
"174 668 OFFCURVE",
"196 663 CURVE",
"69 35 LINE",
"44 30 OFFCURVE",
"17 24 OFFCURVE",
"-11 15 CURVE",
"-14 0 LINE"
);
}
);
width = 910;
}
);
note = M;
unicode = 004D;
},
{
glyphname = Mdotbelow;
lastChange = "2015-11-29 14:55:12 +0000";
layers = (
{
layerId = "097E1CCD-D4DB-46B5-97AF-AA821C3DB512";
name = "Bold Italic";
paths = (
{
closed = 1;
nodes = (
"193 0 LINE",
"196 15 LINE",
"172 24 OFFCURVE",
"148 30 OFFCURVE",
"124 35 CURVE",
"241 607 LINE",
"346 76 LINE",
"422 76 LINE",
"746 597 LINE",
"631 35 LINE",
"605 30 OFFCURVE",
"580 24 OFFCURVE",
"552 15 CURVE",
"549 0 LINE",
"831 0 LINE",
"834 15 LINE",
"809 24 OFFCURVE",
"785 30 OFFCURVE",
"762 35 CURVE",
"890 661 LINE",
"916 668 OFFCURVE",
"945 676 OFFCURVE",
"970 684 CURVE",
"973 700 LINE",
"758 700 LINE",
"437 181 LINE",
"343 700 LINE",
"127 700 LINE",
"124 684 LINE",
"148 674 OFFCURVE",
"174 668 OFFCURVE",
"196 663 CURVE",
"69 35 LINE",
"44 30 OFFCURVE",
"17 24 OFFCURVE",
"-11 15 CURVE",
"-14 0 LINE"
);
},
{
closed = 1;
nodes = (
"406 -169 OFFCURVE",
"432 -145 OFFCURVE",
"437 -113 CURVE SMOOTH",
"444 -80 OFFCURVE",
"429 -56 OFFCURVE",
"396 -56 CURVE SMOOTH",
"364 -56 OFFCURVE",
"337 -80 OFFCURVE",
"330 -113 CURVE SMOOTH",
"324 -145 OFFCURVE",
"340 -169 OFFCURVE",
"373 -169 CURVE SMOOTH"
);
}
);
width = 910;
}
);
note = Mdotbelow;
unicode = 1E42;
},
{
glyphname = N;
lastChange = "2015-11-29 14:55:12 +0000";
layers = (
{
layerId = "097E1CCD-D4DB-46B5-97AF-AA821C3DB512";
name = "Bold Italic";
paths = (
{
closed = 1;
nodes = (
"193 0 LINE",
"196 15 LINE",
"172 24 OFFCURVE",
"148 30 OFFCURVE",
"124 35 CURVE",
"244 630 LINE",
"529 0 LINE",
"597 0 LINE",
"732 664 LINE",
"758 669 OFFCURVE",
"784 675 OFFCURVE",
"813 684 CURVE",
"816 700 LINE",
"608 700 LINE",
"605 684 LINE",
"630 675 OFFCURVE",
"654 669 OFFCURVE",
"677 664 CURVE",
"576 165 LINE",
"338 700 LINE",
"127 700 LINE",
"124 684 LINE",
"148 674 OFFCURVE",
"173 668 OFFCURVE",
"196 663 CURVE",
"69 35 LINE",
"44 30 OFFCURVE",
"17 24 OFFCURVE",
"-11 15 CURVE",
"-14 0 LINE"
);
}
);
width = 752;
}
);
note = N;
unicode = 004E;
},
{
glyphname = Nacute;
lastChange = "2015-11-29 14:55:12 +0000";
layers = (
{
layerId = "097E1CCD-D4DB-46B5-97AF-AA821C3DB512";
name = "Bold Italic";
paths = (
{
closed = 1;
nodes = (
"193 0 LINE",
"196 15 LINE",
"172 24 OFFCURVE",
"148 30 OFFCURVE",
"124 35 CURVE",
"244 630 LINE",
"529 0 LINE",
"597 0 LINE",
"732 664 LINE",
"758 669 OFFCURVE",
"784 675 OFFCURVE",
"813 684 CURVE",
"816 700 LINE",
"608 700 LINE",
"605 684 LINE",
"630 675 OFFCURVE",
"654 669 OFFCURVE",
"677 664 CURVE",
"576 165 LINE",
"338 700 LINE",
"127 700 LINE",
"124 684 LINE",
"148 674 OFFCURVE",
"173 668 OFFCURVE",
"196 663 CURVE",
"69 35 LINE",
"44 30 OFFCURVE",
"17 24 OFFCURVE",
"-11 15 CURVE",
"-14 0 LINE"
);
},
{
closed = 1;
nodes = (
"608 875 LINE SMOOTH",
"639 892 OFFCURVE",
"657 909 OFFCURVE",
"661 930 CURVE",
"665 947 OFFCURVE",
"658 967 OFFCURVE",
"629 967 CURVE SMOOTH",
"601 967 OFFCURVE",
"574 943 OFFCURVE",
"567 936 CURVE",
"427 817 LINE",
"442 786 LINE"
);
}
);
width = 752;
}
);
note = Nacute;
unicode = 0143;
},
{
glyphname = Ncaron;
lastChange = "2015-11-29 14:55:12 +0000";
layers = (
{
layerId = "097E1CCD-D4DB-46B5-97AF-AA821C3DB512";
name = "Bold Italic";
paths = (
{
closed = 1;
nodes = (
"193 0 LINE",
"196 15 LINE",
"172 24 OFFCURVE",
"148 30 OFFCURVE",
"124 35 CURVE",
"244 630 LINE",
"529 0 LINE",
"597 0 LINE",
"732 664 LINE",
"758 669 OFFCURVE",
"784 675 OFFCURVE",
"813 684 CURVE",
"816 700 LINE",
"608 700 LINE",
"605 684 LINE",
"630 675 OFFCURVE",
"654 669 OFFCURVE",
"677 664 CURVE",
"576 165 LINE",
"338 700 LINE",
"127 700 LINE",
"124 684 LINE",
"148 674 OFFCURVE",
"173 668 OFFCURVE",
"196 663 CURVE",
"69 35 LINE",
"44 30 OFFCURVE",
"17 24 OFFCURVE",
"-11 15 CURVE",
"-14 0 LINE"
);
},
{
closed = 1;
nodes = (
"517 786 LINE",
"550 824 OFFCURVE",
"639 894 OFFCURVE",
"686 922 CURVE",
"642 963 LINE",
"598 932 OFFCURVE",
"532 877 OFFCURVE",
"500 841 CURVE",
"496 841 LINE",
"481 877 OFFCURVE",
"436 932 OFFCURVE",
"404 963 CURVE",
"345 922 LINE",
"380 894 OFFCURVE",
"440 824 OFFCURVE",
"458 786 CURVE"
);
}
);
width = 752;
}
);
note = Ncaron;
unicode = 0147;
},
{
glyphname = Ncommaaccent;
lastChange = "2015-11-29 14:55:12 +0000";
layers = (
{
layerId = "097E1CCD-D4DB-46B5-97AF-AA821C3DB512";
name = "Bold Italic";
paths = (
{
closed = 1;
nodes = (
"193 0 LINE",
"196 15 LINE",
"172 24 OFFCURVE",
"148 30 OFFCURVE",
"124 35 CURVE",
"244 630 LINE",
"529 0 LINE",
"597 0 LINE",
"732 664 LINE",
"758 669 OFFCURVE",
"784 675 OFFCURVE",
"813 684 CURVE",
"816 700 LINE",
"608 700 LINE",
"605 684 LINE",
"630 675 OFFCURVE",
"654 669 OFFCURVE",
"677 664 CURVE",
"576 165 LINE",
"338 700 LINE",
"127 700 LINE",
"124 684 LINE",
"148 674 OFFCURVE",
"173 668 OFFCURVE",
"196 663 CURVE",
"69 35 LINE",
"44 30 OFFCURVE",
"17 24 OFFCURVE",
"-11 15 CURVE",
"-14 0 LINE"
);
},
{
closed = 1;
nodes = (
"303 -300 OFFCURVE",
"357 -220 OFFCURVE",
"370 -151 CURVE SMOOTH",
"379 -111 OFFCURVE",
"365 -77 OFFCURVE",
"316 -77 CURVE SMOOTH",
"283 -77 OFFCURVE",
"247 -99 OFFCURVE",
"240 -138 CURVE SMOOTH",
"232 -177 OFFCURVE",
"253 -199 OFFCURVE",
"292 -200 CURVE",
"277 -243 OFFCURVE",
"239 -287 OFFCURVE",
"210 -314 CURVE",
"244 -346 LINE"
);
}
);
width = 752;
}
);
note = Ncommaaccent;
unicode = 0145;
},
{
glyphname = Ndotaccent;
lastChange = "2015-11-29 14:55:12 +0000";
layers = (
{
layerId = "097E1CCD-D4DB-46B5-97AF-AA821C3DB512";
name = "Bold Italic";
paths = (
{
closed = 1;
nodes = (
"193 0 LINE",
"196 15 LINE",
"172 24 OFFCURVE",
"148 30 OFFCURVE",
"124 35 CURVE",
"244 630 LINE",
"529 0 LINE",
"597 0 LINE",
"732 664 LINE",
"758 669 OFFCURVE",
"784 675 OFFCURVE",
"813 684 CURVE",
"816 700 LINE",
"608 700 LINE",
"605 684 LINE",
"630 675 OFFCURVE",
"654 669 OFFCURVE",
"677 664 CURVE",
"576 165 LINE",
"338 700 LINE",
"127 700 LINE",
"124 684 LINE",
"148 674 OFFCURVE",
"173 668 OFFCURVE",
"196 663 CURVE",
"69 35 LINE",
"44 30 OFFCURVE",
"17 24 OFFCURVE",
"-11 15 CURVE",
"-14 0 LINE"
);
},
{
closed = 1;
nodes = (
"521 785 OFFCURVE",
"548 809 OFFCURVE",
"554 841 CURVE SMOOTH",
"560 874 OFFCURVE",
"544 898 OFFCURVE",
"512 898 CURVE SMOOTH",
"479 898 OFFCURVE",
"454 874 OFFCURVE",
"447 841 CURVE SMOOTH",
"441 809 OFFCURVE",
"456 785 OFFCURVE",
"489 785 CURVE SMOOTH"
);
}
);
width = 752;
}
);
note = Ndotaccent;
unicode = 1E44;
},
{
glyphname = Ndotbelow;
lastChange = "2015-11-29 14:55:11 +0000";
layers = (
{
layerId = "097E1CCD-D4DB-46B5-97AF-AA821C3DB512";
name = "Bold Italic";
paths = (
{
closed = 1;
nodes = (
"193 0 LINE",
"196 15 LINE",
"172 24 OFFCURVE",
"148 30 OFFCURVE",
"124 35 CURVE",
"244 630 LINE",
"529 0 LINE",
"597 0 LINE",
"732 664 LINE",
"758 669 OFFCURVE",
"784 675 OFFCURVE",
"813 684 CURVE",
"816 700 LINE",
"608 700 LINE",
"605 684 LINE",
"630 675 OFFCURVE",
"654 669 OFFCURVE",
"677 664 CURVE",
"576 165 LINE",
"338 700 LINE",
"127 700 LINE",
"124 684 LINE",
"148 674 OFFCURVE",
"173 668 OFFCURVE",
"196 663 CURVE",
"69 35 LINE",
"44 30 OFFCURVE",
"17 24 OFFCURVE",
"-11 15 CURVE",
"-14 0 LINE"
);
},
{
closed = 1;
nodes = (
"322 -169 OFFCURVE",
"348 -145 OFFCURVE",
"354 -113 CURVE SMOOTH",
"361 -80 OFFCURVE",
"345 -56 OFFCURVE",
"313 -56 CURVE SMOOTH",
"280 -56 OFFCURVE",
"253 -80 OFFCURVE",
"246 -113 CURVE SMOOTH",
"241 -145 OFFCURVE",
"257 -169 OFFCURVE",
"290 -169 CURVE SMOOTH"
);
}
);
width = 752;
}
);
note = uni1E46;
unicode = 1E46;
},
{
glyphname = Eng;
lastChange = "2015-11-29 14:55:12 +0000";
layers = (
{
layerId = "097E1CCD-D4DB-46B5-97AF-AA821C3DB512";
name = "Bold Italic";
paths = (
{
closed = 1;
nodes = (
"485 -250 OFFCURVE",
"555 -205 OFFCURVE",
"575 -105 CURVE SMOOTH",
"732 664 LINE",
"758 669 OFFCURVE",
"784 675 OFFCURVE",
"813 684 CURVE",
"816 700 LINE",
"608 700 LINE",
"605 684 LINE",
"630 675 OFFCURVE",
"654 669 OFFCURVE",
"677 664 CURVE",
"576 165 LINE",
"338 700 LINE",
"127 700 LINE",
"124 684 LINE",
"148 674 OFFCURVE",
"173 668 OFFCURVE",
"196 663 CURVE",
"69 35 LINE",
"44 30 OFFCURVE",
"17 24 OFFCURVE",
"-11 15 CURVE",
"-14 0 LINE",
"193 0 LINE",
"196 15 LINE",
"172 24 OFFCURVE",
"148 30 OFFCURVE",
"124 35 CURVE",
"244 630 LINE",
"541 -6 LINE",
"521 -106 LINE SMOOTH",
"507 -176 OFFCURVE",
"448 -201 OFFCURVE",
"388 -201 CURVE SMOOTH",
"353 -201 OFFCURVE",
"323 -195 OFFCURVE",
"301 -185 CURVE",
"286 -220 LINE",
"317 -238 OFFCURVE",
"354 -250 OFFCURVE",
"399 -250 CURVE SMOOTH"
);
}
);
width = 752;
}
);
note = Eng;
unicode = 014A;
},
{
glyphname = Nlinebelow;
lastChange = "2015-11-29 14:55:11 +0000";
layers = (
{
layerId = "097E1CCD-D4DB-46B5-97AF-AA821C3DB512";
name = "Bold Italic";
paths = (
{
closed = 1;
nodes = (
"193 0 LINE",
"196 15 LINE",
"172 24 OFFCURVE",
"148 30 OFFCURVE",
"124 35 CURVE",
"244 630 LINE",
"529 0 LINE",
"597 0 LINE",
"732 664 LINE",
"758 669 OFFCURVE",
"784 675 OFFCURVE",
"813 684 CURVE",
"816 700 LINE",
"608 700 LINE",
"605 684 LINE",
"630 675 OFFCURVE",
"654 669 OFFCURVE",
"677 664 CURVE",
"576 165 LINE",
"338 700 LINE",
"127 700 LINE",
"124 684 LINE",
"148 674 OFFCURVE",
"173 668 OFFCURVE",
"196 663 CURVE",
"69 35 LINE",
"44 30 OFFCURVE",
"17 24 OFFCURVE",
"-11 15 CURVE",
"-14 0 LINE"
);
},
{
closed = 1;
nodes = (
"486 -107 LINE",
"495 -64 LINE",
"140 -64 LINE",
"131 -107 LINE"
);
}
);
width = 752;
}
);
note = Nlinebelow;
unicode = 1E48;
},
{
glyphname = Ntilde;
lastChange = "2015-11-29 14:55:11 +0000";
layers = (
{
layerId = "097E1CCD-D4DB-46B5-97AF-AA821C3DB512";
name = "Bold Italic";
paths = (
{
closed = 1;
nodes = (
"193 0 LINE",
"196 15 LINE",
"172 24 OFFCURVE",
"148 30 OFFCURVE",
"124 35 CURVE",
"244 630 LINE",
"529 0 LINE",
"597 0 LINE",
"732 664 LINE",
"758 669 OFFCURVE",
"784 675 OFFCURVE",
"813 684 CURVE",
"816 700 LINE",
"608 700 LINE",
"605 684 LINE",
"630 675 OFFCURVE",
"654 669 OFFCURVE",
"677 664 CURVE",
"576 165 LINE",
"338 700 LINE",
"127 700 LINE",
"124 684 LINE",
"148 674 OFFCURVE",
"173 668 OFFCURVE",
"196 663 CURVE",
"69 35 LINE",
"44 30 OFFCURVE",
"17 24 OFFCURVE",
"-11 15 CURVE",
"-14 0 LINE"
);
},
{
closed = 1;
nodes = (
"364 786 LINE",
"377 819 OFFCURVE",
"403 840 OFFCURVE",
"432 840 CURVE SMOOTH",
"468 840 OFFCURVE",
"516 786 OFFCURVE",
"570 786 CURVE SMOOTH",
"638 786 OFFCURVE",
"679 832 OFFCURVE",
"701 900 CURVE",
"652 900 LINE",
"633 855 OFFCURVE",
"605 844 OFFCURVE",
"580 844 CURVE SMOOTH",
"540 844 OFFCURVE",
"508 897 OFFCURVE",
"444 897 CURVE SMOOTH",
"384 897 OFFCURVE",
"337 860 OFFCURVE",
"313 786 CURVE"
);
}
);
width = 752;
}
);
note = Ntilde;
unicode = 00D1;
},
{
glyphname = O;
lastChange = "2015-11-29 14:55:11 +0000";
layers = (
{
layerId = "097E1CCD-D4DB-46B5-97AF-AA821C3DB512";
name = "Bold Italic";
paths = (
{
closed = 1;
nodes = (
"521 -10 OFFCURVE",
"664 127 OFFCURVE",
"710 350 CURVE SMOOTH",
"755 572 OFFCURVE",
"668 710 OFFCURVE",
"457 710 CURVE SMOOTH",
"244 710 OFFCURVE",
"103 572 OFFCURVE",
"58 350 CURVE SMOOTH",
"12 127 OFFCURVE",
"98 -10 OFFCURVE",
"310 -10 CURVE SMOOTH"
);
},
{
closed = 1;
nodes = (
"186 37 OFFCURVE",
"152 168 OFFCURVE",
"190 350 CURVE SMOOTH",
"226 531 OFFCURVE",
"314 663 OFFCURVE",
"447 663 CURVE SMOOTH",
"580 663 OFFCURVE",
"615 531 OFFCURVE",
"579 350 CURVE SMOOTH",
"541 168 OFFCURVE",
"453 37 OFFCURVE",
"319 37 CURVE SMOOTH"
);
}
);
width = 719;
}
);
leftKerningGroup = O;
note = O;
rightKerningGroup = O;
unicode = 004F;
},
{
glyphname = Oacute;
lastChange = "2015-11-29 14:55:12 +0000";
layers = (
{
layerId = "097E1CCD-D4DB-46B5-97AF-AA821C3DB512";
name = "Bold Italic";
paths = (
{
closed = 1;
nodes = (
"521 -10 OFFCURVE",
"664 127 OFFCURVE",
"710 350 CURVE SMOOTH",
"755 572 OFFCURVE",
"668 710 OFFCURVE",
"457 710 CURVE SMOOTH",
"244 710 OFFCURVE",
"103 572 OFFCURVE",
"58 350 CURVE SMOOTH",
"12 127 OFFCURVE",
"98 -10 OFFCURVE",
"310 -10 CURVE SMOOTH"
);
},
{
closed = 1;
nodes = (
"186 37 OFFCURVE",
"152 168 OFFCURVE",
"190 350 CURVE SMOOTH",
"226 531 OFFCURVE",
"314 663 OFFCURVE",
"447 663 CURVE SMOOTH",
"580 663 OFFCURVE",
"615 531 OFFCURVE",
"579 350 CURVE SMOOTH",
"541 168 OFFCURVE",
"453 37 OFFCURVE",
"319 37 CURVE SMOOTH"
);
},
{
closed = 1;
nodes = (
"559 875 LINE SMOOTH",
"590 892 OFFCURVE",
"608 909 OFFCURVE",
"612 930 CURVE",
"616 947 OFFCURVE",
"609 967 OFFCURVE",
"580 967 CURVE SMOOTH",
"552 967 OFFCURVE",
"525 943 OFFCURVE",
"518 936 CURVE",
"378 817 LINE",
"393 786 LINE"
);
}
);
width = 719;
}
);
leftKerningGroup = O;
note = Oacute;
rightKerningGroup = O;
unicode = 00D3;
},
{
glyphname = Obreve;
lastChange = "2015-11-29 14:55:12 +0000";
layers = (
{
layerId = "097E1CCD-D4DB-46B5-97AF-AA821C3DB512";
name = "Bold Italic";
paths = (
{
closed = 1;
nodes = (
"521 -10 OFFCURVE",
"664 127 OFFCURVE",
"710 350 CURVE SMOOTH",
"755 572 OFFCURVE",
"668 710 OFFCURVE",
"457 710 CURVE SMOOTH",
"244 710 OFFCURVE",
"103 572 OFFCURVE",
"58 350 CURVE SMOOTH",
"12 127 OFFCURVE",
"98 -10 OFFCURVE",
"310 -10 CURVE SMOOTH"
);
},
{
closed = 1;
nodes = (
"186 37 OFFCURVE",
"152 168 OFFCURVE",
"190 350 CURVE SMOOTH",
"226 531 OFFCURVE",
"314 663 OFFCURVE",
"447 663 CURVE SMOOTH",
"580 663 OFFCURVE",
"615 531 OFFCURVE",
"579 350 CURVE SMOOTH",
"541 168 OFFCURVE",
"453 37 OFFCURVE",
"319 37 CURVE SMOOTH"
);
},
{
closed = 1;
nodes = (
"559 779 OFFCURVE",
"631 821 OFFCURVE",
"662 910 CURVE",
"589 910 LINE",
"566 836 OFFCURVE",
"519 826 OFFCURVE",
"480 826 CURVE SMOOTH",
"440 826 OFFCURVE",
"396 836 OFFCURVE",
"404 910 CURVE",
"332 910 LINE",
"327 821 OFFCURVE",
"380 779 OFFCURVE",
"470 779 CURVE SMOOTH"
);
}
);
width = 719;
}
);
leftKerningGroup = O;
note = Obreve;
rightKerningGroup = O;
unicode = 014E;
},
{
glyphname = Ocaron;
lastChange = "2015-11-29 14:55:12 +0000";
layers = (
{
layerId = "097E1CCD-D4DB-46B5-97AF-AA821C3DB512";
name = "Bold Italic";
paths = (
{
closed = 1;
nodes = (
"521 -10 OFFCURVE",
"664 127 OFFCURVE",
"710 350 CURVE SMOOTH",
"755 572 OFFCURVE",
"668 710 OFFCURVE",
"457 710 CURVE SMOOTH",
"244 710 OFFCURVE",
"103 572 OFFCURVE",
"58 350 CURVE SMOOTH",
"12 127 OFFCURVE",
"98 -10 OFFCURVE",
"310 -10 CURVE SMOOTH"
);
},
{
closed = 1;
nodes = (
"186 37 OFFCURVE",
"152 168 OFFCURVE",
"190 350 CURVE SMOOTH",
"226 531 OFFCURVE",
"314 663 OFFCURVE",
"447 663 CURVE SMOOTH",
"580 663 OFFCURVE",
"615 531 OFFCURVE",
"579 350 CURVE SMOOTH",
"541 168 OFFCURVE",
"453 37 OFFCURVE",
"319 37 CURVE SMOOTH"
);
},
{
closed = 1;
nodes = (
"502 786 LINE",
"534 824 OFFCURVE",
"624 894 OFFCURVE",
"671 922 CURVE",
"627 963 LINE",
"582 932 OFFCURVE",
"516 877 OFFCURVE",
"484 841 CURVE",
"481 841 LINE",
"465 877 OFFCURVE",
"421 932 OFFCURVE",
"388 963 CURVE",
"330 922 LINE",
"364 894 OFFCURVE",
"425 824 OFFCURVE",
"442 786 CURVE"
);
}
);
width = 719;
}
);
leftKerningGroup = O;
note = Ocaron;
rightKerningGroup = O;
unicode = 01D1;
},
{
glyphname = Ocircumflex;
lastChange = "2015-11-29 14:55:13 +0000";
layers = (
{
layerId = "097E1CCD-D4DB-46B5-97AF-AA821C3DB512";
name = "Bold Italic";
paths = (
{
closed = 1;
nodes = (
"521 -10 OFFCURVE",
"664 127 OFFCURVE",
"710 350 CURVE SMOOTH",
"755 572 OFFCURVE",
"668 710 OFFCURVE",
"457 710 CURVE SMOOTH",
"244 710 OFFCURVE",
"103 572 OFFCURVE",
"58 350 CURVE SMOOTH",
"12 127 OFFCURVE",
"98 -10 OFFCURVE",
"310 -10 CURVE SMOOTH"
);
},
{
closed = 1;
nodes = (
"186 37 OFFCURVE",
"152 168 OFFCURVE",
"190 350 CURVE SMOOTH",
"226 531 OFFCURVE",
"314 663 OFFCURVE",
"447 663 CURVE SMOOTH",
"580 663 OFFCURVE",
"615 531 OFFCURVE",
"579 350 CURVE SMOOTH",
"541 168 OFFCURVE",
"453 37 OFFCURVE",
"319 37 CURVE SMOOTH"
);
},
{
closed = 1;
nodes = (
"395 813 OFFCURVE",
"462 868 OFFCURVE",
"493 904 CURVE",
"497 904 LINE",
"513 868 OFFCURVE",
"556 813 OFFCURVE",
"589 782 CURVE",
"649 823 LINE",
"613 851 OFFCURVE",
"554 922 OFFCURVE",
"535 959 CURVE",
"476 959 LINE",
"444 922 OFFCURVE",
"354 851 OFFCURVE",
"308 823 CURVE",
"352 782 LINE"
);
}
);
width = 719;
}
);
leftKerningGroup = O;
note = Ocircumflex;
rightKerningGroup = O;
unicode = 00D4;
},
{
glyphname = Ocircumflexacute;
lastChange = "2015-11-29 14:55:12 +0000";
layers = (
{
layerId = "097E1CCD-D4DB-46B5-97AF-AA821C3DB512";
name = "Bold Italic";
paths = (
{
closed = 1;
nodes = (
"521 -10 OFFCURVE",
"664 127 OFFCURVE",
"710 350 CURVE SMOOTH",
"755 572 OFFCURVE",
"668 710 OFFCURVE",
"457 710 CURVE SMOOTH",
"244 710 OFFCURVE",
"103 572 OFFCURVE",
"58 350 CURVE SMOOTH",
"12 127 OFFCURVE",
"98 -10 OFFCURVE",
"310 -10 CURVE SMOOTH"
);
},
{
closed = 1;
nodes = (
"186 37 OFFCURVE",
"152 168 OFFCURVE",
"190 350 CURVE SMOOTH",
"226 531 OFFCURVE",
"314 663 OFFCURVE",
"447 663 CURVE SMOOTH",
"580 663 OFFCURVE",
"615 531 OFFCURVE",
"579 350 CURVE SMOOTH",
"541 168 OFFCURVE",
"453 37 OFFCURVE",
"319 37 CURVE SMOOTH"
);
},
{
closed = 1;
nodes = (
"397 813 OFFCURVE",
"462 868 OFFCURVE",
"494 904 CURVE",
"498 904 LINE",
"514 868 OFFCURVE",
"557 813 OFFCURVE",
"590 782 CURVE",
"649 823 LINE",
"615 851 OFFCURVE",
"555 922 OFFCURVE",
"536 959 CURVE",
"477 959 LINE",
"445 922 OFFCURVE",
"355 851 OFFCURVE",
"308 823 CURVE",
"353 782 LINE"
);
},
{
closed = 1;
nodes = (
"736 967 LINE SMOOTH",
"778 987 OFFCURVE",
"801 1012 OFFCURVE",
"805 1033 CURVE",
"809 1050 OFFCURVE",
"799 1066 OFFCURVE",
"776 1066 CURVE SMOOTH",
"755 1066 OFFCURVE",
"728 1051 OFFCURVE",
"700 1024 CURVE SMOOTH",
"613 942 LINE",
"627 915 LINE"
);
}
);
width = 719;
}
);
leftKerningGroup = O;
note = Ocircumflexacute;
rightKerningGroup = O;
unicode = 1ED0;
},
{
glyphname = Ocircumflexdotbelow;
lastChange = "2015-11-29 14:55:11 +0000";
layers = (
{
layerId = "097E1CCD-D4DB-46B5-97AF-AA821C3DB512";
name = "Bold Italic";
paths = (
{
closed = 1;
nodes = (
"12 127 OFFCURVE",
"98 -10 OFFCURVE",
"310 -10 CURVE SMOOTH",
"521 -10 OFFCURVE",
"664 127 OFFCURVE",
"710 350 CURVE SMOOTH",
"755 572 OFFCURVE",
"668 710 OFFCURVE",
"457 710 CURVE SMOOTH",
"244 710 OFFCURVE",
"103 572 OFFCURVE",
"58 350 CURVE SMOOTH"
);
},
{
closed = 1;
nodes = (
"226 531 OFFCURVE",
"314 663 OFFCURVE",
"447 663 CURVE SMOOTH",
"580 663 OFFCURVE",
"615 531 OFFCURVE",
"579 350 CURVE SMOOTH",
"541 168 OFFCURVE",
"453 37 OFFCURVE",
"319 37 CURVE SMOOTH",
"186 37 OFFCURVE",
"152 168 OFFCURVE",
"190 350 CURVE SMOOTH"
);
},
{
closed = 1;
nodes = (
"229 -145 OFFCURVE",
"245 -169 OFFCURVE",
"278 -169 CURVE SMOOTH",
"311 -169 OFFCURVE",
"337 -145 OFFCURVE",
"342 -113 CURVE",
"349 -80 OFFCURVE",
"334 -56 OFFCURVE",
"301 -56 CURVE SMOOTH",
"268 -56 OFFCURVE",
"242 -80 OFFCURVE",
"235 -113 CURVE SMOOTH"
);
},
{
closed = 1;
nodes = (
"352 782 LINE",
"395 813 OFFCURVE",
"462 868 OFFCURVE",
"493 904 CURVE",
"497 904 LINE",
"513 868 OFFCURVE",
"556 813 OFFCURVE",
"589 782 CURVE",
"649 823 LINE",
"613 851 OFFCURVE",
"554 922 OFFCURVE",
"535 959 CURVE",
"476 959 LINE",
"444 922 OFFCURVE",
"354 851 OFFCURVE",
"308 823 CURVE"
);
}
);
width = 719;
}
);
leftKerningGroup = O;
note = Ocircumflexdotbelow;
rightKerningGroup = O;
unicode = 1ED8;
},
{
glyphname = Ocircumflexgrave;
lastChange = "2015-11-29 14:55:11 +0000";
layers = (
{
layerId = "097E1CCD-D4DB-46B5-97AF-AA821C3DB512";
name = "Bold Italic";
paths = (
{
closed = 1;
nodes = (
"521 -10 OFFCURVE",
"664 127 OFFCURVE",
"710 350 CURVE SMOOTH",
"755 572 OFFCURVE",
"668 710 OFFCURVE",
"457 710 CURVE SMOOTH",
"244 710 OFFCURVE",
"103 572 OFFCURVE",
"58 350 CURVE SMOOTH",
"12 127 OFFCURVE",
"98 -10 OFFCURVE",
"310 -10 CURVE SMOOTH"
);
},
{
closed = 1;
nodes = (
"186 37 OFFCURVE",
"152 168 OFFCURVE",
"190 350 CURVE SMOOTH",
"226 531 OFFCURVE",
"314 663 OFFCURVE",
"447 663 CURVE SMOOTH",
"580 663 OFFCURVE",
"615 531 OFFCURVE",
"579 350 CURVE SMOOTH",
"541 168 OFFCURVE",
"453 37 OFFCURVE",
"319 37 CURVE SMOOTH"
);
},
{
closed = 1;
nodes = (
"397 942 LINE",
"343 1024 LINE SMOOTH",
"325 1051 OFFCURVE",
"304 1066 OFFCURVE",
"283 1066 CURVE SMOOTH",
"260 1066 OFFCURVE",
"244 1050 OFFCURVE",
"241 1033 CURVE",
"237 1012 OFFCURVE",
"250 988 OFFCURVE",
"284 967 CURVE SMOOTH",
"371 915 LINE"
);
},
{
closed = 1;
nodes = (
"397 813 OFFCURVE",
"462 868 OFFCURVE",
"494 904 CURVE",
"498 904 LINE",
"514 868 OFFCURVE",
"557 813 OFFCURVE",
"590 782 CURVE",
"649 823 LINE",
"615 851 OFFCURVE",
"555 922 OFFCURVE",
"536 959 CURVE",
"477 959 LINE",
"445 922 OFFCURVE",
"355 851 OFFCURVE",
"308 823 CURVE",
"353 782 LINE"
);
}
);
width = 719;
}
);
leftKerningGroup = O;
note = Ocircumflexgrave;
rightKerningGroup = O;
unicode = 1ED2;
},
{
glyphname = Ocircumflexhookabove;
lastChange = "2015-11-29 14:55:11 +0000";
layers = (
{
layerId = "097E1CCD-D4DB-46B5-97AF-AA821C3DB512";
name = "Bold Italic";
paths = (
{
closed = 1;
nodes = (
"521 -10 OFFCURVE",
"664 127 OFFCURVE",
"710 350 CURVE SMOOTH",
"755 572 OFFCURVE",
"668 710 OFFCURVE",
"457 710 CURVE SMOOTH",
"244 710 OFFCURVE",
"103 572 OFFCURVE",
"58 350 CURVE SMOOTH",
"12 127 OFFCURVE",
"98 -10 OFFCURVE",
"310 -10 CURVE SMOOTH"
);
},
{
closed = 1;
nodes = (
"186 37 OFFCURVE",
"152 168 OFFCURVE",
"190 350 CURVE SMOOTH",
"226 531 OFFCURVE",
"314 663 OFFCURVE",
"447 663 CURVE SMOOTH",
"580 663 OFFCURVE",
"615 531 OFFCURVE",
"579 350 CURVE SMOOTH",
"541 168 OFFCURVE",
"453 37 OFFCURVE",
"319 37 CURVE SMOOTH"
);
},
{
closed = 1;
nodes = (
"398 816 OFFCURVE",
"463 871 OFFCURVE",
"495 907 CURVE",
"499 907 LINE",
"515 871 OFFCURVE",
"558 816 OFFCURVE",
"591 785 CURVE",
"650 826 LINE",
"616 854 OFFCURVE",
"556 925 OFFCURVE",
"537 962 CURVE",
"478 962 LINE",
"446 925 OFFCURVE",
"356 854 OFFCURVE",
"309 826 CURVE",
"354 785 LINE"
);
},
{
closed = 1;
nodes = (
"654 921 LINE",
"674 972 LINE",
"718 976 OFFCURVE",
"754 995 OFFCURVE",
"765 1043 CURVE SMOOTH",
"775 1096 OFFCURVE",
"731 1117 OFFCURVE",
"683 1117 CURVE SMOOTH",
"656 1117 OFFCURVE",
"629 1110 OFFCURVE",
"612 1103 CURVE",
"611 1070 LINE",
"628 1078 OFFCURVE",
"649 1082 OFFCURVE",
"664 1082 CURVE SMOOTH",
"698 1082 OFFCURVE",
"711 1065 OFFCURVE",
"707 1044 CURVE SMOOTH",
"700 1013 OFFCURVE",
"675 1000 OFFCURVE",
"648 1000 CURVE SMOOTH",
"620 1000 LINE",
"609 921 LINE"
);
}
);
width = 719;
}
);
leftKerningGroup = O;
note = Ocircumflexhookabove;
rightKerningGroup = O;
unicode = 1ED4;
},
{
glyphname = Ocircumflextilde;
lastChange = "2015-11-29 14:55:12 +0000";
layers = (
{
layerId = "097E1CCD-D4DB-46B5-97AF-AA821C3DB512";
name = "Bold Italic";
paths = (
{
closed = 1;
nodes = (
"521 -10 OFFCURVE",
"664 127 OFFCURVE",
"710 350 CURVE SMOOTH",
"755 572 OFFCURVE",
"668 710 OFFCURVE",
"457 710 CURVE SMOOTH",
"244 710 OFFCURVE",
"103 572 OFFCURVE",
"58 350 CURVE SMOOTH",
"12 127 OFFCURVE",
"98 -10 OFFCURVE",
"310 -10 CURVE SMOOTH"
);
},
{
closed = 1;
nodes = (
"186 37 OFFCURVE",
"152 168 OFFCURVE",
"190 350 CURVE SMOOTH",
"226 531 OFFCURVE",
"314 663 OFFCURVE",
"447 663 CURVE SMOOTH",
"580 663 OFFCURVE",
"615 531 OFFCURVE",
"579 350 CURVE SMOOTH",
"541 168 OFFCURVE",
"453 37 OFFCURVE",
"319 37 CURVE SMOOTH"
);
},
{
closed = 1;
nodes = (
"397 813 OFFCURVE",
"462 868 OFFCURVE",
"494 904 CURVE",
"498 904 LINE",
"514 868 OFFCURVE",
"557 813 OFFCURVE",
"590 782 CURVE",
"649 823 LINE",
"615 851 OFFCURVE",
"555 922 OFFCURVE",
"536 959 CURVE",
"477 959 LINE",
"445 922 OFFCURVE",
"355 851 OFFCURVE",
"308 823 CURVE",
"353 782 LINE"
);
},
{
closed = 1;
nodes = (
"386 988 LINE",
"399 1021 OFFCURVE",
"427 1042 OFFCURVE",
"457 1042 CURVE SMOOTH",
"497 1042 OFFCURVE",
"534 989 OFFCURVE",
"588 989 CURVE SMOOTH",
"654 989 OFFCURVE",
"697 1033 OFFCURVE",
"719 1101 CURVE",
"676 1101 LINE",
"656 1057 OFFCURVE",
"624 1045 OFFCURVE",
"600 1045 CURVE SMOOTH",
"560 1045 OFFCURVE",
"535 1098 OFFCURVE",
"472 1098 CURVE SMOOTH",
"412 1098 OFFCURVE",
"365 1062 OFFCURVE",
"341 988 CURVE"
);
}
);
width = 719;
}
);
leftKerningGroup = O;
note = Ocircumflextilde;
rightKerningGroup = O;
unicode = 1ED6;
},
{
glyphname = Odieresis;
lastChange = "2015-11-29 14:55:12 +0000";
layers = (
{
layerId = "097E1CCD-D4DB-46B5-97AF-AA821C3DB512";
name = "Bold Italic";
paths = (
{
closed = 1;
nodes = (
"521 -10 OFFCURVE",
"664 127 OFFCURVE",
"710 350 CURVE SMOOTH",
"755 572 OFFCURVE",
"668 710 OFFCURVE",
"457 710 CURVE SMOOTH",
"244 710 OFFCURVE",
"103 572 OFFCURVE",
"58 350 CURVE SMOOTH",
"12 127 OFFCURVE",
"98 -10 OFFCURVE",
"310 -10 CURVE SMOOTH"
);
},
{
closed = 1;
nodes = (
"186 37 OFFCURVE",
"152 168 OFFCURVE",
"190 350 CURVE SMOOTH",
"226 531 OFFCURVE",
"314 663 OFFCURVE",
"447 663 CURVE SMOOTH",
"580 663 OFFCURVE",
"615 531 OFFCURVE",
"579 350 CURVE SMOOTH",
"541 168 OFFCURVE",
"453 37 OFFCURVE",
"319 37 CURVE SMOOTH"
);
},
{
closed = 1;
nodes = (
"391 785 OFFCURVE",
"418 809 OFFCURVE",
"424 841 CURVE SMOOTH",
"431 874 OFFCURVE",
"414 898 OFFCURVE",
"381 898 CURVE SMOOTH",
"350 898 OFFCURVE",
"324 874 OFFCURVE",
"317 841 CURVE SMOOTH",
"312 809 OFFCURVE",
"327 785 OFFCURVE",
"358 785 CURVE SMOOTH"
);
},
{
closed = 1;
nodes = (
"615 785 OFFCURVE",
"642 809 OFFCURVE",
"648 841 CURVE SMOOTH",
"654 874 OFFCURVE",
"638 898 OFFCURVE",
"605 898 CURVE SMOOTH",
"572 898 OFFCURVE",
"547 874 OFFCURVE",
"540 841 CURVE SMOOTH",
"534 809 OFFCURVE",
"549 785 OFFCURVE",
"582 785 CURVE SMOOTH"
);
}
);
width = 719;
}
);
leftKerningGroup = O;
note = Odieresis;
rightKerningGroup = O;
unicode = 00D6;
},
{
glyphname = Odotbelow;
lastChange = "2015-11-29 14:55:12 +0000";
layers = (
{
layerId = "097E1CCD-D4DB-46B5-97AF-AA821C3DB512";
name = "Bold Italic";
paths = (
{
closed = 1;
nodes = (
"12 127 OFFCURVE",
"98 -10 OFFCURVE",
"310 -10 CURVE SMOOTH",
"521 -10 OFFCURVE",
"664 127 OFFCURVE",
"710 350 CURVE SMOOTH",
"755 572 OFFCURVE",
"668 710 OFFCURVE",
"457 710 CURVE SMOOTH",
"244 710 OFFCURVE",
"103 572 OFFCURVE",
"58 350 CURVE SMOOTH"
);
},
{
closed = 1;
nodes = (
"226 531 OFFCURVE",
"314 663 OFFCURVE",
"447 663 CURVE SMOOTH",
"580 663 OFFCURVE",
"615 531 OFFCURVE",
"579 350 CURVE SMOOTH",
"541 168 OFFCURVE",
"453 37 OFFCURVE",
"319 37 CURVE SMOOTH",
"186 37 OFFCURVE",
"152 168 OFFCURVE",
"190 350 CURVE SMOOTH"
);
},
{
closed = 1;
nodes = (
"229 -145 OFFCURVE",
"245 -169 OFFCURVE",
"278 -169 CURVE SMOOTH",
"311 -169 OFFCURVE",
"337 -145 OFFCURVE",
"342 -113 CURVE",
"349 -80 OFFCURVE",
"334 -56 OFFCURVE",
"301 -56 CURVE SMOOTH",
"268 -56 OFFCURVE",
"242 -80 OFFCURVE",
"235 -113 CURVE SMOOTH"
);
}
);
width = 719;
}
);
leftKerningGroup = O;
note = Odotbelow;
rightKerningGroup = O;
unicode = 1ECC;
},
{
glyphname = Ograve;
lastChange = "2015-11-29 14:55:11 +0000";
layers = (
{
layerId = "097E1CCD-D4DB-46B5-97AF-AA821C3DB512";
name = "Bold Italic";
paths = (
{
closed = 1;
nodes = (
"521 -10 OFFCURVE",
"664 127 OFFCURVE",
"710 350 CURVE SMOOTH",
"755 572 OFFCURVE",
"668 710 OFFCURVE",
"457 710 CURVE SMOOTH",
"244 710 OFFCURVE",
"103 572 OFFCURVE",
"58 350 CURVE SMOOTH",
"12 127 OFFCURVE",
"98 -10 OFFCURVE",
"310 -10 CURVE SMOOTH"
);
},
{
closed = 1;
nodes = (
"186 37 OFFCURVE",
"152 168 OFFCURVE",
"190 350 CURVE SMOOTH",
"226 531 OFFCURVE",
"314 663 OFFCURVE",
"447 663 CURVE SMOOTH",
"580 663 OFFCURVE",
"615 531 OFFCURVE",
"579 350 CURVE SMOOTH",
"541 168 OFFCURVE",
"453 37 OFFCURVE",
"319 37 CURVE SMOOTH"
);
},
{
closed = 1;
nodes = (
"578 817 LINE",
"486 937 LINE SMOOTH",
"481 945 OFFCURVE",
"460 967 OFFCURVE",
"434 967 CURVE SMOOTH",
"409 967 OFFCURVE",
"392 946 OFFCURVE",
"388 929 CURVE",
"385 908 OFFCURVE",
"396 892 OFFCURVE",
"421 875 CURVE SMOOTH",
"551 786 LINE"
);
}
);
width = 719;
}
);
leftKerningGroup = O;
note = Ograve;
rightKerningGroup = O;
unicode = 00D2;
},
{
glyphname = Ohookabove;
lastChange = "2015-11-29 14:55:11 +0000";
layers = (
{
layerId = "097E1CCD-D4DB-46B5-97AF-AA821C3DB512";
name = "Bold Italic";
paths = (
{
closed = 1;
nodes = (
"521 -10 OFFCURVE",
"664 127 OFFCURVE",
"710 350 CURVE SMOOTH",
"755 572 OFFCURVE",
"668 710 OFFCURVE",
"457 710 CURVE SMOOTH",
"244 710 OFFCURVE",
"103 572 OFFCURVE",
"58 350 CURVE SMOOTH",
"12 127 OFFCURVE",
"98 -10 OFFCURVE",
"310 -10 CURVE SMOOTH"
);
},
{
closed = 1;
nodes = (
"186 37 OFFCURVE",
"152 168 OFFCURVE",
"190 350 CURVE SMOOTH",
"226 531 OFFCURVE",
"314 663 OFFCURVE",
"447 663 CURVE SMOOTH",
"580 663 OFFCURVE",
"615 531 OFFCURVE",
"579 350 CURVE SMOOTH",
"541 168 OFFCURVE",
"453 37 OFFCURVE",
"319 37 CURVE SMOOTH"
);
},
{
closed = 1;
nodes = (
"499 781 LINE",
"523 849 LINE",
"576 854 OFFCURVE",
"615 876 OFFCURVE",
"627 931 CURVE SMOOTH",
"639 994 OFFCURVE",
"591 1018 OFFCURVE",
"536 1018 CURVE SMOOTH",
"506 1018 OFFCURVE",
"474 1010 OFFCURVE",
"453 1001 CURVE",
"452 965 LINE",
"475 976 OFFCURVE",
"497 981 OFFCURVE",
"514 981 CURVE SMOOTH",
"553 981 OFFCURVE",
"568 958 OFFCURVE",
"563 933 CURVE SMOOTH",
"556 897 OFFCURVE",
"525 881 OFFCURVE",
"494 881 CURVE SMOOTH",
"462 881 LINE",
"447 781 LINE"
);
}
);
width = 719;
}
);
leftKerningGroup = O;
note = Ohookabove;
rightKerningGroup = O;
unicode = 1ECE;
},
{
glyphname = Ohorn;
lastChange = "2015-11-29 14:55:11 +0000";
layers = (
{
layerId = "097E1CCD-D4DB-46B5-97AF-AA821C3DB512";
name = "Bold Italic";
paths = (
{
closed = 1;
nodes = (
"521 -10 OFFCURVE",
"664 127 OFFCURVE",
"710 350 CURVE SMOOTH",
"755 572 OFFCURVE",
"668 710 OFFCURVE",
"457 710 CURVE SMOOTH",
"244 710 OFFCURVE",
"103 572 OFFCURVE",
"58 350 CURVE SMOOTH",
"12 127 OFFCURVE",
"98 -10 OFFCURVE",
"310 -10 CURVE SMOOTH"
);
},
{
closed = 1;
nodes = (
"186 37 OFFCURVE",
"152 168 OFFCURVE",
"190 350 CURVE SMOOTH",
"226 531 OFFCURVE",
"314 663 OFFCURVE",
"447 663 CURVE SMOOTH",
"580 663 OFFCURVE",
"615 531 OFFCURVE",
"579 350 CURVE SMOOTH",
"541 168 OFFCURVE",
"453 37 OFFCURVE",
"319 37 CURVE SMOOTH"
);
},
{
closed = 1;
nodes = (
"802 545 OFFCURVE",
"851 610 OFFCURVE",
"861 660 CURVE SMOOTH",
"868 691 OFFCURVE",
"870 739 OFFCURVE",
"807 739 CURVE SMOOTH",
"756 739 OFFCURVE",
"736 705 OFFCURVE",
"730 678 CURVE SMOOTH",
"724 642 OFFCURVE",
"741 620 OFFCURVE",
"772 620 CURVE SMOOTH",
"778 620 OFFCURVE",
"783 621 OFFCURVE",
"790 624 CURVE",
"770 576 OFFCURVE",
"707 530 OFFCURVE",
"680 513 CURVE",
"698 480 LINE"
);
}
);
width = 756;
}
);
leftKerningGroup = O;
note = Ohorn;
rightKerningGroup = O;
unicode = 01A0;
},
{
glyphname = Ohornacute;
lastChange = "2015-11-29 14:55:11 +0000";
layers = (
{
layerId = "097E1CCD-D4DB-46B5-97AF-AA821C3DB512";
name = "Bold Italic";
paths = (
{
closed = 1;
nodes = (
"521 -10 OFFCURVE",
"664 127 OFFCURVE",
"710 350 CURVE SMOOTH",
"755 572 OFFCURVE",
"668 710 OFFCURVE",
"457 710 CURVE SMOOTH",
"244 710 OFFCURVE",
"103 572 OFFCURVE",
"58 350 CURVE SMOOTH",
"12 127 OFFCURVE",
"98 -10 OFFCURVE",
"310 -10 CURVE SMOOTH"
);
},
{
closed = 1;
nodes = (
"186 37 OFFCURVE",
"152 168 OFFCURVE",
"190 350 CURVE SMOOTH",
"226 531 OFFCURVE",
"314 663 OFFCURVE",
"447 663 CURVE SMOOTH",
"580 663 OFFCURVE",
"615 531 OFFCURVE",
"579 350 CURVE SMOOTH",
"541 168 OFFCURVE",
"453 37 OFFCURVE",
"319 37 CURVE SMOOTH"
);
},
{
closed = 1;
nodes = (
"560 874 LINE SMOOTH",
"591 891 OFFCURVE",
"609 908 OFFCURVE",
"613 929 CURVE",
"617 946 OFFCURVE",
"610 966 OFFCURVE",
"581 966 CURVE SMOOTH",
"553 966 OFFCURVE",
"526 942 OFFCURVE",
"519 935 CURVE",
"379 816 LINE",
"394 785 LINE"
);
},
{
closed = 1;
nodes = (
"802 545 OFFCURVE",
"851 610 OFFCURVE",
"861 660 CURVE SMOOTH",
"868 691 OFFCURVE",
"870 739 OFFCURVE",
"807 739 CURVE SMOOTH",
"756 739 OFFCURVE",
"736 705 OFFCURVE",
"730 678 CURVE SMOOTH",
"724 642 OFFCURVE",
"741 620 OFFCURVE",
"772 620 CURVE SMOOTH",
"778 620 OFFCURVE",
"783 621 OFFCURVE",
"790 624 CURVE",
"770 576 OFFCURVE",
"707 530 OFFCURVE",
"680 513 CURVE",
"698 480 LINE"
);
}
);
width = 756;
}
);
leftKerningGroup = O;
note = Ohornacute;
rightKerningGroup = O;
unicode = 1EDA;
},
{
glyphname = Ohorndotbelow;
lastChange = "2015-11-29 14:55:11 +0000";
layers = (
{
layerId = "097E1CCD-D4DB-46B5-97AF-AA821C3DB512";
name = "Bold Italic";
paths = (
{
closed = 1;
nodes = (
"521 -10 OFFCURVE",
"664 127 OFFCURVE",
"710 350 CURVE SMOOTH",
"755 572 OFFCURVE",
"668 710 OFFCURVE",
"457 710 CURVE SMOOTH",
"244 710 OFFCURVE",
"103 572 OFFCURVE",
"58 350 CURVE SMOOTH",
"12 127 OFFCURVE",
"98 -10 OFFCURVE",
"310 -10 CURVE SMOOTH"
);
},
{
closed = 1;
nodes = (
"186 37 OFFCURVE",
"152 168 OFFCURVE",
"190 350 CURVE SMOOTH",
"226 531 OFFCURVE",
"314 663 OFFCURVE",
"447 663 CURVE SMOOTH",
"580 663 OFFCURVE",
"615 531 OFFCURVE",
"579 350 CURVE SMOOTH",
"541 168 OFFCURVE",
"453 37 OFFCURVE",
"319 37 CURVE SMOOTH"
);
},
{
closed = 1;
nodes = (
"802 545 OFFCURVE",
"851 610 OFFCURVE",
"861 660 CURVE SMOOTH",
"868 691 OFFCURVE",
"870 739 OFFCURVE",
"807 739 CURVE SMOOTH",
"756 739 OFFCURVE",
"736 705 OFFCURVE",
"730 678 CURVE SMOOTH",
"724 642 OFFCURVE",
"741 620 OFFCURVE",
"772 620 CURVE SMOOTH",
"778 620 OFFCURVE",
"783 621 OFFCURVE",
"790 624 CURVE",
"770 576 OFFCURVE",
"707 530 OFFCURVE",
"680 513 CURVE",
"698 480 LINE"
);
},
{
closed = 1;
nodes = (
"311 -169 OFFCURVE",
"337 -145 OFFCURVE",
"342 -113 CURVE SMOOTH",
"349 -80 OFFCURVE",
"334 -56 OFFCURVE",
"301 -56 CURVE SMOOTH",
"268 -56 OFFCURVE",
"242 -80 OFFCURVE",
"235 -113 CURVE SMOOTH",
"229 -145 OFFCURVE",
"245 -169 OFFCURVE",
"278 -169 CURVE SMOOTH"
);
}
);
width = 756;
}
);
leftKerningGroup = O;
note = Ohorndotbelow;
rightKerningGroup = O;
unicode = 1EE2;
},
{
glyphname = Ohorngrave;
lastChange = "2015-11-29 14:55:11 +0000";
layers = (
{
layerId = "097E1CCD-D4DB-46B5-97AF-AA821C3DB512";
name = "Bold Italic";
paths = (
{
closed = 1;
nodes = (
"521 -10 OFFCURVE",
"664 127 OFFCURVE",
"710 350 CURVE SMOOTH",
"755 572 OFFCURVE",
"668 710 OFFCURVE",
"457 710 CURVE SMOOTH",
"244 710 OFFCURVE",
"103 572 OFFCURVE",
"58 350 CURVE SMOOTH",
"12 127 OFFCURVE",
"98 -10 OFFCURVE",
"310 -10 CURVE SMOOTH"
);
},
{
closed = 1;
nodes = (
"186 37 OFFCURVE",
"152 168 OFFCURVE",
"190 350 CURVE SMOOTH",
"226 531 OFFCURVE",
"314 663 OFFCURVE",
"447 663 CURVE SMOOTH",
"580 663 OFFCURVE",
"615 531 OFFCURVE",
"579 350 CURVE SMOOTH",
"541 168 OFFCURVE",
"453 37 OFFCURVE",
"319 37 CURVE SMOOTH"
);
},
{
closed = 1;
nodes = (
"579 816 LINE",
"487 936 LINE SMOOTH",
"482 944 OFFCURVE",
"461 966 OFFCURVE",
"435 966 CURVE SMOOTH",
"410 966 OFFCURVE",
"393 945 OFFCURVE",
"389 928 CURVE",
"386 907 OFFCURVE",
"397 891 OFFCURVE",
"422 874 CURVE SMOOTH",
"552 785 LINE"
);
},
{
closed = 1;
nodes = (
"802 545 OFFCURVE",
"851 610 OFFCURVE",
"861 660 CURVE SMOOTH",
"868 691 OFFCURVE",
"870 739 OFFCURVE",
"807 739 CURVE SMOOTH",
"756 739 OFFCURVE",
"736 705 OFFCURVE",
"730 678 CURVE SMOOTH",
"724 642 OFFCURVE",
"741 620 OFFCURVE",
"772 620 CURVE SMOOTH",
"778 620 OFFCURVE",
"783 621 OFFCURVE",
"790 624 CURVE",
"770 576 OFFCURVE",
"707 530 OFFCURVE",
"680 513 CURVE",
"698 480 LINE"
);
}
);
width = 756;
}
);
leftKerningGroup = O;
note = Ohorngrave;
rightKerningGroup = O;
unicode = 1EDC;
},
{
glyphname = Ohornhookabove;
lastChange = "2015-11-29 14:55:10 +0000";
layers = (
{
layerId = "097E1CCD-D4DB-46B5-97AF-AA821C3DB512";
name = "Bold Italic";
paths = (
{
closed = 1;
nodes = (
"521 -10 OFFCURVE",
"664 127 OFFCURVE",
"710 350 CURVE SMOOTH",
"755 572 OFFCURVE",
"668 710 OFFCURVE",
"457 710 CURVE SMOOTH",
"244 710 OFFCURVE",
"103 572 OFFCURVE",
"58 350 CURVE SMOOTH",
"12 127 OFFCURVE",
"98 -10 OFFCURVE",
"310 -10 CURVE SMOOTH"
);
},
{
closed = 1;
nodes = (
"186 37 OFFCURVE",
"152 168 OFFCURVE",
"190 350 CURVE SMOOTH",
"226 531 OFFCURVE",
"314 663 OFFCURVE",
"447 663 CURVE SMOOTH",
"580 663 OFFCURVE",
"615 531 OFFCURVE",
"579 350 CURVE SMOOTH",
"541 168 OFFCURVE",
"453 37 OFFCURVE",
"319 37 CURVE SMOOTH"
);
},
{
closed = 1;
nodes = (
"802 545 OFFCURVE",
"851 610 OFFCURVE",
"861 660 CURVE SMOOTH",
"868 691 OFFCURVE",
"870 739 OFFCURVE",
"807 739 CURVE SMOOTH",
"756 739 OFFCURVE",
"736 705 OFFCURVE",
"730 678 CURVE SMOOTH",
"724 642 OFFCURVE",
"741 620 OFFCURVE",
"772 620 CURVE SMOOTH",
"778 620 OFFCURVE",
"783 621 OFFCURVE",
"790 624 CURVE",
"770 576 OFFCURVE",
"707 530 OFFCURVE",
"680 513 CURVE",
"698 480 LINE"
);
},
{
closed = 1;
nodes = (
"493 779 LINE",
"517 847 LINE",
"570 852 OFFCURVE",
"609 874 OFFCURVE",
"621 929 CURVE SMOOTH",
"633 992 OFFCURVE",
"585 1016 OFFCURVE",
"531 1016 CURVE SMOOTH",
"500 1016 OFFCURVE",
"468 1008 OFFCURVE",
"447 999 CURVE",
"446 963 LINE",
"469 974 OFFCURVE",
"491 979 OFFCURVE",
"508 979 CURVE SMOOTH",
"547 979 OFFCURVE",
"562 956 OFFCURVE",
"557 931 CURVE SMOOTH",
"550 895 OFFCURVE",
"519 879 OFFCURVE",
"488 879 CURVE SMOOTH",
"457 879 LINE",
"441 779 LINE"
);
}
);
width = 756;
}
);
leftKerningGroup = O;
note = Ohornhookabove;
rightKerningGroup = O;
unicode = 1EDE;
},
{
glyphname = Ohorntilde;
lastChange = "2015-11-29 14:55:10 +0000";
layers = (
{
layerId = "097E1CCD-D4DB-46B5-97AF-AA821C3DB512";
name = "Bold Italic";
paths = (
{
closed = 1;
nodes = (
"521 -10 OFFCURVE",
"664 127 OFFCURVE",
"710 350 CURVE SMOOTH",
"755 572 OFFCURVE",
"668 710 OFFCURVE",
"457 710 CURVE SMOOTH",
"244 710 OFFCURVE",
"103 572 OFFCURVE",
"58 350 CURVE SMOOTH",
"12 127 OFFCURVE",
"98 -10 OFFCURVE",
"310 -10 CURVE SMOOTH"
);
},
{
closed = 1;
nodes = (
"186 37 OFFCURVE",
"152 168 OFFCURVE",
"190 350 CURVE SMOOTH",
"226 531 OFFCURVE",
"314 663 OFFCURVE",
"447 663 CURVE SMOOTH",
"580 663 OFFCURVE",
"615 531 OFFCURVE",
"579 350 CURVE SMOOTH",
"541 168 OFFCURVE",
"453 37 OFFCURVE",
"319 37 CURVE SMOOTH"
);
},
{
closed = 1;
nodes = (
"341 786 LINE",
"355 819 OFFCURVE",
"381 840 OFFCURVE",
"410 840 CURVE SMOOTH",
"446 840 OFFCURVE",
"494 786 OFFCURVE",
"548 786 CURVE SMOOTH",
"616 786 OFFCURVE",
"657 832 OFFCURVE",
"679 900 CURVE",
"630 900 LINE",
"611 855 OFFCURVE",
"583 844 OFFCURVE",
"557 844 CURVE SMOOTH",
"518 844 OFFCURVE",
"486 897 OFFCURVE",
"422 897 CURVE SMOOTH",
"362 897 OFFCURVE",
"315 860 OFFCURVE",
"291 786 CURVE"
);
},
{
closed = 1;
nodes = (
"802 545 OFFCURVE",
"851 610 OFFCURVE",
"861 660 CURVE SMOOTH",
"868 691 OFFCURVE",
"870 739 OFFCURVE",
"807 739 CURVE SMOOTH",
"756 739 OFFCURVE",
"736 705 OFFCURVE",
"730 678 CURVE SMOOTH",
"724 642 OFFCURVE",
"741 620 OFFCURVE",
"772 620 CURVE SMOOTH",
"778 620 OFFCURVE",
"783 621 OFFCURVE",
"790 624 CURVE",
"770 576 OFFCURVE",
"707 530 OFFCURVE",
"680 513 CURVE",
"698 480 LINE"
);
}
);
width = 756;
}
);
leftKerningGroup = O;
note = Ohorntilde;
rightKerningGroup = O;
unicode = 1EE0;
},
{
glyphname = Ohungarumlaut;
lastChange = "2015-11-29 14:55:11 +0000";
layers = (
{
layerId = "097E1CCD-D4DB-46B5-97AF-AA821C3DB512";
name = "Bold Italic";
paths = (
{
closed = 1;
nodes = (
"521 -10 OFFCURVE",
"664 127 OFFCURVE",
"710 350 CURVE SMOOTH",
"755 572 OFFCURVE",
"668 710 OFFCURVE",
"457 710 CURVE SMOOTH",
"244 710 OFFCURVE",
"103 572 OFFCURVE",
"58 350 CURVE SMOOTH",
"12 127 OFFCURVE",
"98 -10 OFFCURVE",
"310 -10 CURVE SMOOTH"
);
},
{
closed = 1;
nodes = (
"186 37 OFFCURVE",
"152 168 OFFCURVE",
"190 350 CURVE SMOOTH",
"226 531 OFFCURVE",
"314 663 OFFCURVE",
"447 663 CURVE SMOOTH",
"580 663 OFFCURVE",
"615 531 OFFCURVE",
"579 350 CURVE SMOOTH",
"541 168 OFFCURVE",
"453 37 OFFCURVE",
"319 37 CURVE SMOOTH"
);
},
{
closed = 1;
nodes = (
"496 874 LINE SMOOTH",
"527 891 OFFCURVE",
"546 908 OFFCURVE",
"550 929 CURVE",
"554 946 OFFCURVE",
"545 966 OFFCURVE",
"515 966 CURVE SMOOTH",
"487 966 OFFCURVE",
"461 942 OFFCURVE",
"454 935 CURVE SMOOTH",
"316 816 LINE",
"331 784 LINE"
);
},
{
closed = 1;
nodes = (
"700 874 LINE SMOOTH",
"730 891 OFFCURVE",
"749 908 OFFCURVE",
"753 929 CURVE",
"757 946 OFFCURVE",
"748 966 OFFCURVE",
"720 966 CURVE SMOOTH",
"692 966 OFFCURVE",
"665 942 OFFCURVE",
"657 935 CURVE SMOOTH",
"519 816 LINE",
"533 784 LINE"
);
}
);
width = 719;
}
);
leftKerningGroup = O;
note = Ohungarumlaut;
rightKerningGroup = O;
unicode = 0150;
},
{
glyphname = Omacron;
lastChange = "2015-11-29 14:55:11 +0000";
layers = (
{
layerId = "097E1CCD-D4DB-46B5-97AF-AA821C3DB512";
name = "Bold Italic";
paths = (
{
closed = 1;
nodes = (
"521 -10 OFFCURVE",
"664 127 OFFCURVE",
"710 350 CURVE SMOOTH",
"755 572 OFFCURVE",
"668 710 OFFCURVE",
"457 710 CURVE SMOOTH",
"244 710 OFFCURVE",
"103 572 OFFCURVE",
"58 350 CURVE SMOOTH",
"12 127 OFFCURVE",
"98 -10 OFFCURVE",
"310 -10 CURVE SMOOTH"
);
},
{
closed = 1;
nodes = (
"186 37 OFFCURVE",
"152 168 OFFCURVE",
"190 350 CURVE SMOOTH",
"226 531 OFFCURVE",
"314 663 OFFCURVE",
"447 663 CURVE SMOOTH",
"580 663 OFFCURVE",
"615 531 OFFCURVE",
"579 350 CURVE SMOOTH",
"541 168 OFFCURVE",
"453 37 OFFCURVE",
"319 37 CURVE SMOOTH"
);
},
{
closed = 1;
nodes = (
"651 792 LINE",
"659 836 LINE",
"304 836 LINE",
"295 792 LINE"
);
}
);
width = 719;
}
);
leftKerningGroup = O;
note = Omacron;
rightKerningGroup = O;
unicode = 014C;
},
{
glyphname = Oslash;
lastChange = "2015-11-29 14:55:11 +0000";
layers = (
{
layerId = "097E1CCD-D4DB-46B5-97AF-AA821C3DB512";
name = "Bold Italic";
paths = (
{
closed = 1;
nodes = (
"521 -10 OFFCURVE",
"664 127 OFFCURVE",
"710 350 CURVE SMOOTH",
"755 572 OFFCURVE",
"668 710 OFFCURVE",
"457 710 CURVE SMOOTH",
"244 710 OFFCURVE",
"103 572 OFFCURVE",
"58 350 CURVE SMOOTH",
"12 127 OFFCURVE",
"98 -10 OFFCURVE",
"310 -10 CURVE SMOOTH"
);
},
{
closed = 1;
nodes = (
"186 37 OFFCURVE",
"152 168 OFFCURVE",
"190 350 CURVE SMOOTH",
"226 531 OFFCURVE",
"314 663 OFFCURVE",
"447 663 CURVE SMOOTH",
"580 663 OFFCURVE",
"615 531 OFFCURVE",
"579 350 CURVE SMOOTH",
"541 168 OFFCURVE",
"453 37 OFFCURVE",
"319 37 CURVE SMOOTH"
);
},
{
closed = 1;
nodes = (
"733 694 LINE",
"700 723 LINE",
"14 -5 LINE",
"44 -34 LINE"
);
}
);
width = 719;
}
);
leftKerningGroup = O;
note = Oslash;
rightKerningGroup = O;
unicode = 00D8;
},
{
glyphname = Oslashacute;
lastChange = "2015-11-29 14:55:11 +0000";
layers = (
{
layerId = "097E1CCD-D4DB-46B5-97AF-AA821C3DB512";
name = "Bold Italic";
paths = (
{
closed = 1;
nodes = (
"521 -10 OFFCURVE",
"664 127 OFFCURVE",
"710 350 CURVE SMOOTH",
"755 572 OFFCURVE",
"668 710 OFFCURVE",
"457 710 CURVE SMOOTH",
"244 710 OFFCURVE",
"103 572 OFFCURVE",
"58 350 CURVE SMOOTH",
"12 127 OFFCURVE",
"98 -10 OFFCURVE",
"310 -10 CURVE SMOOTH"
);
},
{
closed = 1;
nodes = (
"186 37 OFFCURVE",
"152 168 OFFCURVE",
"190 350 CURVE SMOOTH",
"226 531 OFFCURVE",
"314 663 OFFCURVE",
"447 663 CURVE SMOOTH",
"580 663 OFFCURVE",
"615 531 OFFCURVE",
"579 350 CURVE SMOOTH",
"541 168 OFFCURVE",
"453 37 OFFCURVE",
"319 37 CURVE SMOOTH"
);
},
{
closed = 1;
nodes = (
"733 694 LINE",
"700 723 LINE",
"14 -5 LINE",
"44 -34 LINE"
);
},
{
closed = 1;
nodes = (
"566 875 LINE SMOOTH",
"597 892 OFFCURVE",
"615 909 OFFCURVE",
"619 930 CURVE",
"623 947 OFFCURVE",
"616 967 OFFCURVE",
"587 967 CURVE SMOOTH",
"558 967 OFFCURVE",
"532 943 OFFCURVE",
"525 936 CURVE",
"385 817 LINE",
"400 786 LINE"
);
}
);
width = 719;
}
);
leftKerningGroup = O;
note = Oslashacute;
rightKerningGroup = O;
unicode = 01FE;
},
{
glyphname = Otilde;
lastChange = "2015-11-29 14:55:12 +0000";
layers = (
{
layerId = "097E1CCD-D4DB-46B5-97AF-AA821C3DB512";
name = "Bold Italic";
paths = (
{
closed = 1;
nodes = (
"521 -10 OFFCURVE",
"664 127 OFFCURVE",
"710 350 CURVE SMOOTH",
"755 572 OFFCURVE",
"668 710 OFFCURVE",
"457 710 CURVE SMOOTH",
"244 710 OFFCURVE",
"103 572 OFFCURVE",
"58 350 CURVE SMOOTH",
"12 127 OFFCURVE",
"98 -10 OFFCURVE",
"310 -10 CURVE SMOOTH"
);
},
{
closed = 1;
nodes = (
"186 37 OFFCURVE",
"152 168 OFFCURVE",
"190 350 CURVE SMOOTH",
"226 531 OFFCURVE",
"314 663 OFFCURVE",
"447 663 CURVE SMOOTH",
"580 663 OFFCURVE",
"615 531 OFFCURVE",
"579 350 CURVE SMOOTH",
"541 168 OFFCURVE",
"453 37 OFFCURVE",
"319 37 CURVE SMOOTH"
);
},
{
closed = 1;
nodes = (
"340 786 LINE",
"354 819 OFFCURVE",
"380 840 OFFCURVE",
"409 840 CURVE SMOOTH",
"445 840 OFFCURVE",
"493 786 OFFCURVE",
"547 786 CURVE SMOOTH",
"615 786 OFFCURVE",
"656 832 OFFCURVE",
"678 900 CURVE",
"629 900 LINE",
"610 855 OFFCURVE",
"582 844 OFFCURVE",
"556 844 CURVE SMOOTH",
"517 844 OFFCURVE",
"485 897 OFFCURVE",
"421 897 CURVE SMOOTH",
"361 897 OFFCURVE",
"314 860 OFFCURVE",
"290 786 CURVE"
);
}
);
width = 719;
}
);
leftKerningGroup = O;
note = Otilde;
rightKerningGroup = O;
unicode = 00D5;
},
{
glyphname = OE;
lastChange = "2015-11-29 14:55:10 +0000";
layers = (
{
layerId = "097E1CCD-D4DB-46B5-97AF-AA821C3DB512";
name = "Bold Italic";
paths = (
{
closed = 1;
nodes = (
"360 -10 OFFCURVE",
"413 7 OFFCURVE",
"465 50 CURVE",
"456 0 LINE",
"904 0 LINE",
"954 165 LINE",
"925 165 LINE",
"905 144 OFFCURVE",
"866 78 OFFCURVE",
"856 44 CURVE",
"595 44 LINE",
"654 336 LINE",
"832 336 LINE",
"830 319 OFFCURVE",
"829 280 OFFCURVE",
"833 251 CURVE",
"854 251 LINE",
"898 467 LINE",
"877 467 LINE",
"862 440 OFFCURVE",
"847 400 OFFCURVE",
"842 382 CURVE",
"664 382 LINE",
"720 654 LINE",
"976 654 LINE",
"971 625 OFFCURVE",
"976 555 OFFCURVE",
"985 533 CURVE",
"1013 533 LINE",
"1047 700 LINE",
"598 700 LINE",
"587 646 LINE",
"557 686 OFFCURVE",
"507 710 OFFCURVE",
"436 710 CURVE SMOOTH",
"222 710 OFFCURVE",
"97 539 OFFCURVE",
"58 350 CURVE SMOOTH",
"19 159 OFFCURVE",
"76 -10 OFFCURVE",
"289 -10 CURVE SMOOTH"
);
},
{
closed = 1;
nodes = (
"187 37 OFFCURVE",
"153 168 OFFCURVE",
"191 350 CURVE SMOOTH",
"227 531 OFFCURVE",
"315 663 OFFCURVE",
"447 663 CURVE SMOOTH",
"511 663 OFFCURVE",
"556 624 OFFCURVE",
"573 577 CURVE",
"480 121 LINE",
"438 70 OFFCURVE",
"384 37 OFFCURVE",
"319 37 CURVE SMOOTH"
);
}
);
width = 1007;
}
);
note = OE;
unicode = 0152;
},
{
glyphname = P;
lastChange = "2015-11-29 14:55:11 +0000";
layers = (
{
layerId = "097E1CCD-D4DB-46B5-97AF-AA821C3DB512";
name = "Bold Italic";
paths = (
{
closed = 1;
nodes = (
"265 0 LINE",
"268 16 LINE",
"244 24 OFFCURVE",
"217 32 OFFCURVE",
"194 36 CURVE",
"243 273 LINE",
"376 273 LINE SMOOTH",
"525 273 OFFCURVE",
"614 373 OFFCURVE",
"638 493 CURVE SMOOTH",
"664 617 OFFCURVE",
"621 700 OFFCURVE",
"437 700 CURVE SMOOTH",
"124 700 LINE",
"121 683 LINE",
"146 674 OFFCURVE",
"169 668 OFFCURVE",
"192 663 CURVE",
"64 37 LINE",
"53 35 OFFCURVE",
"10 25 OFFCURVE",
"-18 17 CURVE",
"-20 0 LINE"
);
},
{
closed = 1;
nodes = (
"320 654 LINE",
"421 654 LINE SMOOTH",
"506 654 OFFCURVE",
"530 592 OFFCURVE",
"510 495 CURVE SMOOTH",
"490 399 OFFCURVE",
"440 317 OFFCURVE",
"352 317 CURVE SMOOTH",
"251 317 LINE"
);
}
);
width = 608;
}
);
note = P;
unicode = 0050;
},
{
glyphname = Thorn;
lastChange = "2015-11-29 14:55:12 +0000";
layers = (
{
layerId = "097E1CCD-D4DB-46B5-97AF-AA821C3DB512";
name = "Bold Italic";
paths = (
{
closed = 1;
nodes = (
"265 0 LINE",
"268 16 LINE",
"244 24 OFFCURVE",
"217 32 OFFCURVE",
"194 36 CURVE",
"216 145 LINE",
"350 145 LINE SMOOTH",
"498 145 OFFCURVE",
"588 245 OFFCURVE",
"612 366 CURVE SMOOTH",
"636 480 OFFCURVE",
"600 571 OFFCURVE",
"436 571 CURVE SMOOTH",
"303 571 LINE",
"329 700 LINE",
"124 700 LINE",
"121 683 LINE",
"146 674 OFFCURVE",
"169 668 OFFCURVE",
"192 663 CURVE",
"64 37 LINE",
"53 35 OFFCURVE",
"11 25 OFFCURVE",
"-18 17 CURVE",
"-20 0 LINE"
);
},
{
closed = 1;
nodes = (
"294 527 LINE",
"395 527 LINE SMOOTH",
"481 527 OFFCURVE",
"504 464 OFFCURVE",
"484 367 CURVE SMOOTH",
"464 271 OFFCURVE",
"414 190 OFFCURVE",
"326 190 CURVE SMOOTH",
"225 190 LINE"
);
}
);
width = 607;
}
);
note = Thorn;
unicode = 00DE;
},
{
glyphname = Q;
lastChange = "2015-11-29 14:55:11 +0000";
layers = (
{
layerId = "097E1CCD-D4DB-46B5-97AF-AA821C3DB512";
name = "Bold Italic";
paths = (
{
closed = 1;
nodes = (
"521 -10 OFFCURVE",
"664 127 OFFCURVE",
"710 350 CURVE SMOOTH",
"755 572 OFFCURVE",
"668 710 OFFCURVE",
"457 710 CURVE SMOOTH",
"244 710 OFFCURVE",
"103 572 OFFCURVE",
"58 350 CURVE SMOOTH",
"12 127 OFFCURVE",
"98 -10 OFFCURVE",
"310 -10 CURVE SMOOTH"
);
},
{
closed = 1;
nodes = (
"187 37 OFFCURVE",
"152 168 OFFCURVE",
"190 350 CURVE SMOOTH",
"226 531 OFFCURVE",
"315 663 OFFCURVE",
"447 663 CURVE SMOOTH",
"580 663 OFFCURVE",
"615 531 OFFCURVE",
"579 350 CURVE SMOOTH",
"541 168 OFFCURVE",
"452 37 OFFCURVE",
"319 37 CURVE SMOOTH"
);
},
{
closed = 1;
nodes = (
"528 -117 LINE",
"431 -109 OFFCURVE",
"381 -57 OFFCURVE",
"389 19 CURVE",
"263 19 LINE",
"255 -77 OFFCURVE",
"338 -143 OFFCURVE",
"519 -159 CURVE"
);
}
);
width = 719;
}
);
leftKerningGroup = O;
note = Q;
rightKerningGroup = O;
unicode = 0051;
},
{
glyphname = R;
lastChange = "2015-11-29 14:55:10 +0000";
layers = (
{
layerId = "097E1CCD-D4DB-46B5-97AF-AA821C3DB512";
name = "Bold Italic";
paths = (
{
closed = 1;
nodes = (
"270 0 LINE",
"273 16 LINE",
"250 24 OFFCURVE",
"222 32 OFFCURVE",
"200 36 CURVE",
"254 299 LINE",
"397 299 LINE SMOOTH",
"532 299 OFFCURVE",
"627 378 OFFCURVE",
"652 503 CURVE SMOOTH",
"676 618 OFFCURVE",
"643 700 OFFCURVE",
"478 700 CURVE SMOOTH",
"129 700 LINE",
"126 683 LINE",
"151 674 OFFCURVE",
"174 668 OFFCURVE",
"197 663 CURVE",
"70 37 LINE",
"59 35 OFFCURVE",
"16 25 OFFCURVE",
"-12 17 CURVE",
"-15 0 LINE"
);
},
{
closed = 1;
nodes = (
"327 654 LINE",
"427 654 LINE SMOOTH",
"516 654 OFFCURVE",
"543 602 OFFCURVE",
"524 505 CURVE SMOOTH",
"504 409 OFFCURVE",
"456 344 OFFCURVE",
"364 344 CURVE SMOOTH",
"264 344 LINE"
);
},
{
closed = 1;
nodes = (
"609 0 LINE",
"612 16 LINE",
"591 25 OFFCURVE",
"564 32 OFFCURVE",
"543 36 CURVE",
"453 313 LINE",
"340 313 LINE",
"433 0 LINE"
);
}
);
width = 675;
}
);
note = R;
rightKerningGroup = R;
unicode = 0052;
},
{
glyphname = Racute;
lastChange = "2015-11-29 14:55:13 +0000";
layers = (
{
layerId = "097E1CCD-D4DB-46B5-97AF-AA821C3DB512";
name = "Bold Italic";
paths = (
{
closed = 1;
nodes = (
"270 0 LINE",
"273 16 LINE",
"250 24 OFFCURVE",
"222 32 OFFCURVE",
"200 36 CURVE",
"254 299 LINE",
"397 299 LINE SMOOTH",
"532 299 OFFCURVE",
"627 378 OFFCURVE",
"652 503 CURVE SMOOTH",
"676 618 OFFCURVE",
"643 700 OFFCURVE",
"478 700 CURVE SMOOTH",
"129 700 LINE",
"126 683 LINE",
"151 674 OFFCURVE",
"174 668 OFFCURVE",
"197 663 CURVE",
"70 37 LINE",
"59 35 OFFCURVE",
"16 25 OFFCURVE",
"-12 17 CURVE",
"-15 0 LINE"
);
},
{
closed = 1;
nodes = (
"327 654 LINE",
"427 654 LINE SMOOTH",
"516 654 OFFCURVE",
"543 602 OFFCURVE",
"524 505 CURVE SMOOTH",
"504 409 OFFCURVE",
"456 344 OFFCURVE",
"364 344 CURVE SMOOTH",
"264 344 LINE"
);
},
{
closed = 1;
nodes = (
"609 0 LINE",
"612 16 LINE",
"591 25 OFFCURVE",
"564 32 OFFCURVE",
"543 36 CURVE",
"453 313 LINE",
"340 313 LINE",
"433 0 LINE"
);
},
{
closed = 1;
nodes = (
"534 875 LINE SMOOTH",
"565 892 OFFCURVE",
"583 909 OFFCURVE",
"587 930 CURVE",
"591 947 OFFCURVE",
"584 967 OFFCURVE",
"556 967 CURVE SMOOTH",
"527 967 OFFCURVE",
"500 943 OFFCURVE",
"493 936 CURVE",
"353 817 LINE",
"368 786 LINE"
);
}
);
width = 675;
}
);
note = Racute;
rightKerningGroup = R;
unicode = 0154;
},
{
glyphname = Rcaron;
lastChange = "2015-11-29 14:55:10 +0000";
layers = (
{
layerId = "097E1CCD-D4DB-46B5-97AF-AA821C3DB512";
name = "Bold Italic";
paths = (
{
closed = 1;
nodes = (
"270 0 LINE",
"273 16 LINE",
"250 24 OFFCURVE",
"222 32 OFFCURVE",
"200 36 CURVE",
"254 299 LINE",
"397 299 LINE SMOOTH",
"532 299 OFFCURVE",
"627 378 OFFCURVE",
"652 503 CURVE SMOOTH",
"676 618 OFFCURVE",
"643 700 OFFCURVE",
"478 700 CURVE SMOOTH",
"129 700 LINE",
"126 683 LINE",
"151 674 OFFCURVE",
"174 668 OFFCURVE",
"197 663 CURVE",
"70 37 LINE",
"59 35 OFFCURVE",
"16 25 OFFCURVE",
"-12 17 CURVE",
"-15 0 LINE"
);
},
{
closed = 1;
nodes = (
"327 654 LINE",
"427 654 LINE SMOOTH",
"516 654 OFFCURVE",
"543 602 OFFCURVE",
"524 505 CURVE SMOOTH",
"504 409 OFFCURVE",
"456 344 OFFCURVE",
"364 344 CURVE SMOOTH",
"264 344 LINE"
);
},
{
closed = 1;
nodes = (
"609 0 LINE",
"612 16 LINE",
"591 25 OFFCURVE",
"564 32 OFFCURVE",
"543 36 CURVE",
"453 313 LINE",
"340 313 LINE",
"433 0 LINE"
);
},
{
closed = 1;
nodes = (
"476 786 LINE",
"508 824 OFFCURVE",
"598 894 OFFCURVE",
"645 922 CURVE",
"601 963 LINE",
"556 932 OFFCURVE",
"490 877 OFFCURVE",
"459 841 CURVE",
"455 841 LINE",
"439 877 OFFCURVE",
"395 932 OFFCURVE",
"363 963 CURVE",
"304 922 LINE",
"339 894 OFFCURVE",
"399 824 OFFCURVE",
"416 786 CURVE"
);
}
);
width = 675;
}
);
note = Rcaron;
rightKerningGroup = R;
unicode = 0158;
},
{
glyphname = Rcommaaccent;
lastChange = "2015-11-29 14:55:11 +0000";
layers = (
{
layerId = "097E1CCD-D4DB-46B5-97AF-AA821C3DB512";
name = "Bold Italic";
paths = (
{
closed = 1;
nodes = (
"270 0 LINE",
"273 16 LINE",
"250 24 OFFCURVE",
"222 32 OFFCURVE",
"200 36 CURVE",
"254 299 LINE",
"397 299 LINE SMOOTH",
"532 299 OFFCURVE",
"627 378 OFFCURVE",
"652 503 CURVE SMOOTH",
"676 618 OFFCURVE",
"643 700 OFFCURVE",
"478 700 CURVE SMOOTH",
"129 700 LINE",
"126 683 LINE",
"151 674 OFFCURVE",
"174 668 OFFCURVE",
"197 663 CURVE",
"70 37 LINE",
"59 35 OFFCURVE",
"16 25 OFFCURVE",
"-12 17 CURVE",
"-15 0 LINE"
);
},
{
closed = 1;
nodes = (
"327 654 LINE",
"427 654 LINE SMOOTH",
"516 654 OFFCURVE",
"543 602 OFFCURVE",
"524 505 CURVE SMOOTH",
"504 409 OFFCURVE",
"456 344 OFFCURVE",
"364 344 CURVE SMOOTH",
"264 344 LINE"
);
},
{
closed = 1;
nodes = (
"278 -300 OFFCURVE",
"332 -220 OFFCURVE",
"345 -151 CURVE SMOOTH",
"354 -111 OFFCURVE",
"340 -77 OFFCURVE",
"292 -77 CURVE SMOOTH",
"258 -77 OFFCURVE",
"222 -99 OFFCURVE",
"215 -138 CURVE SMOOTH",
"207 -177 OFFCURVE",
"228 -199 OFFCURVE",
"267 -200 CURVE",
"252 -243 OFFCURVE",
"214 -287 OFFCURVE",
"185 -314 CURVE",
"220 -346 LINE"
);
},
{
closed = 1;
nodes = (
"609 0 LINE",
"612 16 LINE",
"591 25 OFFCURVE",
"564 32 OFFCURVE",
"543 36 CURVE",
"453 313 LINE",
"340 313 LINE",
"433 0 LINE"
);
}
);
width = 675;
}
);
note = Rcommaaccent;
rightKerningGroup = R;
unicode = 0156;
},
{
glyphname = Rdotbelow;
lastChange = "2015-11-29 14:55:11 +0000";
layers = (
{
layerId = "097E1CCD-D4DB-46B5-97AF-AA821C3DB512";
name = "Bold Italic";
paths = (
{
closed = 1;
nodes = (
"270 0 LINE",
"273 16 LINE",
"250 24 OFFCURVE",
"222 32 OFFCURVE",
"200 36 CURVE",
"254 299 LINE",
"397 299 LINE SMOOTH",
"532 299 OFFCURVE",
"627 378 OFFCURVE",
"652 503 CURVE SMOOTH",
"676 618 OFFCURVE",
"643 700 OFFCURVE",
"478 700 CURVE SMOOTH",
"129 700 LINE",
"126 683 LINE",
"151 674 OFFCURVE",
"174 668 OFFCURVE",
"197 663 CURVE",
"70 37 LINE",
"59 35 OFFCURVE",
"16 25 OFFCURVE",
"-12 17 CURVE",
"-15 0 LINE"
);
},
{
closed = 1;
nodes = (
"327 654 LINE",
"427 654 LINE SMOOTH",
"516 654 OFFCURVE",
"543 602 OFFCURVE",
"524 505 CURVE SMOOTH",
"504 409 OFFCURVE",
"456 344 OFFCURVE",
"364 344 CURVE SMOOTH",
"264 344 LINE"
);
},
{
closed = 1;
nodes = (
"296 -169 OFFCURVE",
"322 -145 OFFCURVE",
"328 -113 CURVE SMOOTH",
"335 -80 OFFCURVE",
"319 -56 OFFCURVE",
"287 -56 CURVE SMOOTH",
"254 -56 OFFCURVE",
"227 -80 OFFCURVE",
"220 -113 CURVE SMOOTH",
"215 -145 OFFCURVE",
"231 -169 OFFCURVE",
"264 -169 CURVE SMOOTH"
);
},
{
closed = 1;
nodes = (
"609 0 LINE",
"612 16 LINE",
"591 25 OFFCURVE",
"564 32 OFFCURVE",
"543 36 CURVE",
"453 313 LINE",
"340 313 LINE",
"433 0 LINE"
);
}
);
width = 675;
}
);
note = Rdotbelow;
rightKerningGroup = R;
unicode = 1E5A;
},
{
glyphname = Rdotbelowmacron;
lastChange = "2015-11-29 14:55:12 +0000";
layers = (
{
layerId = "097E1CCD-D4DB-46B5-97AF-AA821C3DB512";
name = "Bold Italic";
paths = (
{
closed = 1;
nodes = (
"270 0 LINE",
"273 16 LINE",
"250 24 OFFCURVE",
"222 32 OFFCURVE",
"200 36 CURVE",
"254 299 LINE",
"397 299 LINE SMOOTH",
"532 299 OFFCURVE",
"627 378 OFFCURVE",
"652 503 CURVE SMOOTH",
"676 618 OFFCURVE",
"643 700 OFFCURVE",
"478 700 CURVE SMOOTH",
"129 700 LINE",
"126 683 LINE",
"151 674 OFFCURVE",
"174 668 OFFCURVE",
"197 663 CURVE",
"70 37 LINE",
"59 35 OFFCURVE",
"16 25 OFFCURVE",
"-12 17 CURVE",
"-15 0 LINE"
);
},
{
closed = 1;
nodes = (
"327 654 LINE",
"427 654 LINE SMOOTH",
"516 654 OFFCURVE",
"543 602 OFFCURVE",
"524 505 CURVE SMOOTH",
"504 409 OFFCURVE",
"456 344 OFFCURVE",
"364 344 CURVE SMOOTH",
"264 344 LINE"
);
},
{
closed = 1;
nodes = (
"296 -169 OFFCURVE",
"322 -145 OFFCURVE",
"328 -113 CURVE SMOOTH",
"335 -80 OFFCURVE",
"319 -56 OFFCURVE",
"286 -56 CURVE SMOOTH",
"253 -56 OFFCURVE",
"227 -80 OFFCURVE",
"220 -113 CURVE SMOOTH",
"215 -145 OFFCURVE",
"230 -169 OFFCURVE",
"263 -169 CURVE SMOOTH"
);
},
{
closed = 1;
nodes = (
"609 0 LINE",
"612 16 LINE",
"591 25 OFFCURVE",
"564 32 OFFCURVE",
"543 36 CURVE",
"453 313 LINE",
"340 313 LINE",
"433 0 LINE"
);
},
{
closed = 1;
nodes = (
"606 785 LINE",
"616 829 LINE",
"229 829 LINE",
"220 785 LINE"
);
}
);
width = 675;
}
);
note = Rdotbelowmacron;
rightKerningGroup = R;
unicode = 1E5C;
},
{
glyphname = Rlinebelow;
lastChange = "2015-11-29 14:55:11 +0000";
layers = (
{
layerId = "097E1CCD-D4DB-46B5-97AF-AA821C3DB512";
name = "Bold Italic";
paths = (
{
closed = 1;
nodes = (
"270 0 LINE",
"273 16 LINE",
"250 24 OFFCURVE",
"222 32 OFFCURVE",
"200 36 CURVE",
"254 299 LINE",
"397 299 LINE SMOOTH",
"532 299 OFFCURVE",
"627 378 OFFCURVE",
"652 503 CURVE SMOOTH",
"676 618 OFFCURVE",
"643 700 OFFCURVE",
"478 700 CURVE SMOOTH",
"129 700 LINE",
"126 683 LINE",
"151 674 OFFCURVE",
"174 668 OFFCURVE",
"197 663 CURVE",
"70 37 LINE",
"59 35 OFFCURVE",
"16 25 OFFCURVE",
"-12 17 CURVE",
"-15 0 LINE"
);
},
{
closed = 1;
nodes = (
"327 654 LINE",
"427 654 LINE SMOOTH",
"516 654 OFFCURVE",
"543 602 OFFCURVE",
"524 505 CURVE SMOOTH",
"504 409 OFFCURVE",
"456 344 OFFCURVE",
"364 344 CURVE SMOOTH",
"264 344 LINE"
);
},
{
closed = 1;
nodes = (
"433 -107 LINE",
"441 -64 LINE",
"86 -64 LINE",
"77 -107 LINE"
);
},
{
closed = 1;
nodes = (
"609 0 LINE",
"612 16 LINE",
"591 25 OFFCURVE",
"564 32 OFFCURVE",
"543 36 CURVE",
"453 313 LINE",
"340 313 LINE",
"433 0 LINE"
);
}
);
width = 675;
}
);
note = Rlinebelow;
rightKerningGroup = R;
unicode = 1E5E;
},
{
glyphname = S;
lastChange = "2015-11-29 14:55:12 +0000";
layers = (
{
layerId = "097E1CCD-D4DB-46B5-97AF-AA821C3DB512";
name = "Bold Italic";
paths = (
{
closed = 1;
nodes = (
"365 -10 OFFCURVE",
"491 63 OFFCURVE",
"517 191 CURVE SMOOTH",
"571 452 OFFCURVE",
"211 406 OFFCURVE",
"241 555 CURVE SMOOTH",
"256 629 OFFCURVE",
"317 663 OFFCURVE",
"403 663 CURVE SMOOTH",
"453 663 OFFCURVE",
"494 649 OFFCURVE",
"518 624 CURVE",
"512 581 OFFCURVE",
"511 539 OFFCURVE",
"514 507 CURVE",
"546 507 LINE",
"584 637 LINE",
"546 687 OFFCURVE",
"483 710 OFFCURVE",
"384 710 CURVE SMOOTH",
"239 710 OFFCURVE",
"128 652 OFFCURVE",
"104 534 CURVE SMOOTH",
"55 293 OFFCURVE",
"419 361 OFFCURVE",
"381 173 CURVE SMOOTH",
"363 80 OFFCURVE",
"278 37 OFFCURVE",
"198 37 CURVE SMOOTH",
"138 37 OFFCURVE",
"92 62 OFFCURVE",
"68 97 CURVE",
"74 138 OFFCURVE",
"79 194 OFFCURVE",
"76 227 CURVE",
"45 227 LINE",
"3 84 LINE",
"34 29 OFFCURVE",
"115 -10 OFFCURVE",
"222 -10 CURVE SMOOTH"
);
}
);
width = 559;
}
);
leftKerningGroup = S;
note = S;
rightKerningGroup = S;
unicode = 0053;
},
{
glyphname = Sacute;
lastChange = "2015-11-29 14:55:12 +0000";
layers = (
{
layerId = "097E1CCD-D4DB-46B5-97AF-AA821C3DB512";
name = "Bold Italic";
paths = (
{
closed = 1;
nodes = (
"365 -10 OFFCURVE",
"491 63 OFFCURVE",
"517 191 CURVE SMOOTH",
"571 452 OFFCURVE",
"211 406 OFFCURVE",
"241 555 CURVE SMOOTH",
"256 629 OFFCURVE",
"317 663 OFFCURVE",
"403 663 CURVE SMOOTH",
"453 663 OFFCURVE",
"494 649 OFFCURVE",
"518 624 CURVE",
"512 581 OFFCURVE",
"511 539 OFFCURVE",
"514 507 CURVE",
"546 507 LINE",
"584 637 LINE",
"546 687 OFFCURVE",
"483 710 OFFCURVE",
"384 710 CURVE SMOOTH",
"239 710 OFFCURVE",
"128 652 OFFCURVE",
"104 534 CURVE SMOOTH",
"55 293 OFFCURVE",
"419 361 OFFCURVE",
"381 173 CURVE SMOOTH",
"363 80 OFFCURVE",
"278 37 OFFCURVE",
"198 37 CURVE SMOOTH",
"138 37 OFFCURVE",
"92 62 OFFCURVE",
"68 97 CURVE",
"74 138 OFFCURVE",
"79 194 OFFCURVE",
"76 227 CURVE",
"45 227 LINE",
"3 84 LINE",
"34 29 OFFCURVE",
"115 -10 OFFCURVE",
"222 -10 CURVE SMOOTH"
);
},
{
closed = 1;
nodes = (
"486 875 LINE SMOOTH",
"517 892 OFFCURVE",
"535 909 OFFCURVE",
"539 930 CURVE",
"543 947 OFFCURVE",
"536 967 OFFCURVE",
"508 967 CURVE SMOOTH",
"479 967 OFFCURVE",
"452 943 OFFCURVE",
"445 936 CURVE",
"305 817 LINE",
"320 786 LINE"
);
}
);
width = 559;
}
);
leftKerningGroup = S;
note = Sacute;
rightKerningGroup = S;
unicode = 015A;
},
{
glyphname = Scaron;
lastChange = "2015-11-29 14:55:12 +0000";
layers = (
{
layerId = "097E1CCD-D4DB-46B5-97AF-AA821C3DB512";
name = "Bold Italic";
paths = (
{
closed = 1;
nodes = (
"365 -10 OFFCURVE",
"491 63 OFFCURVE",
"517 191 CURVE SMOOTH",
"571 452 OFFCURVE",
"211 406 OFFCURVE",
"241 555 CURVE SMOOTH",
"256 629 OFFCURVE",
"317 663 OFFCURVE",
"403 663 CURVE SMOOTH",
"453 663 OFFCURVE",
"494 649 OFFCURVE",
"518 624 CURVE",
"512 581 OFFCURVE",
"511 539 OFFCURVE",
"514 507 CURVE",
"546 507 LINE",
"584 637 LINE",
"546 687 OFFCURVE",
"483 710 OFFCURVE",
"384 710 CURVE SMOOTH",
"239 710 OFFCURVE",
"128 652 OFFCURVE",
"104 534 CURVE SMOOTH",
"55 293 OFFCURVE",
"419 361 OFFCURVE",
"381 173 CURVE SMOOTH",
"363 80 OFFCURVE",
"278 37 OFFCURVE",
"198 37 CURVE SMOOTH",
"138 37 OFFCURVE",
"92 62 OFFCURVE",
"68 97 CURVE",
"74 138 OFFCURVE",
"79 194 OFFCURVE",
"76 227 CURVE",
"45 227 LINE",
"3 84 LINE",
"34 29 OFFCURVE",
"115 -10 OFFCURVE",
"222 -10 CURVE SMOOTH"
);
},
{
closed = 1;
nodes = (
"421 786 LINE",
"454 824 OFFCURVE",
"543 894 OFFCURVE",
"590 922 CURVE",
"546 963 LINE",
"502 932 OFFCURVE",
"436 877 OFFCURVE",
"404 841 CURVE",
"400 841 LINE",
"385 877 OFFCURVE",
"340 932 OFFCURVE",
"308 963 CURVE",
"249 922 LINE",
"284 894 OFFCURVE",
"344 824 OFFCURVE",
"362 786 CURVE"
);
}
);
width = 559;
}
);
leftKerningGroup = S;
note = Scaron;
rightKerningGroup = S;
unicode = 0160;
},
{
glyphname = Scedilla;
lastChange = "2015-11-29 14:55:11 +0000";
layers = (
{
layerId = "097E1CCD-D4DB-46B5-97AF-AA821C3DB512";
name = "Bold Italic";
paths = (
{
closed = 1;
nodes = (
"365 -10 OFFCURVE",
"491 63 OFFCURVE",
"517 191 CURVE SMOOTH",
"571 452 OFFCURVE",
"211 406 OFFCURVE",
"241 555 CURVE SMOOTH",
"256 629 OFFCURVE",
"317 663 OFFCURVE",
"403 663 CURVE SMOOTH",
"453 663 OFFCURVE",
"494 649 OFFCURVE",
"518 624 CURVE",
"512 581 OFFCURVE",
"511 539 OFFCURVE",
"514 507 CURVE",
"546 507 LINE",
"584 637 LINE",
"546 687 OFFCURVE",
"483 710 OFFCURVE",
"384 710 CURVE SMOOTH",
"239 710 OFFCURVE",
"128 652 OFFCURVE",
"104 534 CURVE SMOOTH",
"55 293 OFFCURVE",
"419 361 OFFCURVE",
"381 173 CURVE SMOOTH",
"363 80 OFFCURVE",
"278 37 OFFCURVE",
"198 37 CURVE SMOOTH",
"138 37 OFFCURVE",
"92 62 OFFCURVE",
"68 97 CURVE",
"74 138 OFFCURVE",
"79 194 OFFCURVE",
"76 227 CURVE",
"45 227 LINE",
"3 84 LINE",
"34 29 OFFCURVE",
"115 -10 OFFCURVE",
"222 -10 CURVE SMOOTH"
);
},
{
closed = 1;
nodes = (
"240 -241 OFFCURVE",
"305 -208 OFFCURVE",
"319 -141 CURVE SMOOTH",
"328 -97 OFFCURVE",
"299 -62 OFFCURVE",
"224 -62 CURVE",
"279 20 LINE",
"222 20 LINE",
"162 -70 LINE",
"178 -102 LINE",
"185 -101 OFFCURVE",
"194 -100 OFFCURVE",
"201 -100 CURVE SMOOTH",
"229 -100 OFFCURVE",
"261 -109 OFFCURVE",
"255 -141 CURVE",
"246 -181 OFFCURVE",
"210 -195 OFFCURVE",
"168 -195 CURVE SMOOTH",
"144 -195 OFFCURVE",
"118 -189 OFFCURVE",
"100 -179 CURVE",
"74 -214 LINE",
"97 -232 OFFCURVE",
"134 -241 OFFCURVE",
"168 -241 CURVE SMOOTH"
);
}
);
width = 559;
}
);
leftKerningGroup = S;
note = Scedilla;
rightKerningGroup = S;
unicode = 015E;
},
{
glyphname = Scircumflex;
lastChange = "2015-11-29 14:55:12 +0000";
layers = (
{
layerId = "097E1CCD-D4DB-46B5-97AF-AA821C3DB512";
name = "Bold Italic";
paths = (
{
closed = 1;
nodes = (
"365 -10 OFFCURVE",
"491 63 OFFCURVE",
"517 191 CURVE SMOOTH",
"571 452 OFFCURVE",
"211 406 OFFCURVE",
"241 555 CURVE SMOOTH",
"256 629 OFFCURVE",
"317 663 OFFCURVE",
"403 663 CURVE SMOOTH",
"453 663 OFFCURVE",
"494 649 OFFCURVE",
"518 624 CURVE",
"512 581 OFFCURVE",
"511 539 OFFCURVE",
"514 507 CURVE",
"546 507 LINE",
"584 637 LINE",
"546 687 OFFCURVE",
"483 710 OFFCURVE",
"384 710 CURVE SMOOTH",
"239 710 OFFCURVE",
"128 652 OFFCURVE",
"104 534 CURVE SMOOTH",
"55 293 OFFCURVE",
"419 361 OFFCURVE",
"381 173 CURVE SMOOTH",
"363 80 OFFCURVE",
"278 37 OFFCURVE",
"198 37 CURVE SMOOTH",
"138 37 OFFCURVE",
"92 62 OFFCURVE",
"68 97 CURVE",
"74 138 OFFCURVE",
"79 194 OFFCURVE",
"76 227 CURVE",
"45 227 LINE",
"3 84 LINE",
"34 29 OFFCURVE",
"115 -10 OFFCURVE",
"222 -10 CURVE SMOOTH"
);
},
{
closed = 1;
nodes = (
"316 813 OFFCURVE",
"383 868 OFFCURVE",
"413 904 CURVE",
"417 904 LINE",
"434 868 OFFCURVE",
"477 813 OFFCURVE",
"509 782 CURVE",
"569 823 LINE",
"533 851 OFFCURVE",
"474 922 OFFCURVE",
"456 959 CURVE",
"396 959 LINE",
"364 922 OFFCURVE",
"274 851 OFFCURVE",
"228 823 CURVE",
"272 782 LINE"
);
}
);
width = 559;
}
);
leftKerningGroup = S;
note = Scircumflex;
rightKerningGroup = S;
unicode = 015C;
},
{
glyphname = Scommaaccent;
lastChange = "2015-11-29 14:55:12 +0000";
layers = (
{
layerId = "097E1CCD-D4DB-46B5-97AF-AA821C3DB512";
name = "Bold Italic";
paths = (
{
closed = 1;
nodes = (
"365 -10 OFFCURVE",
"491 63 OFFCURVE",
"517 191 CURVE SMOOTH",
"571 452 OFFCURVE",
"211 406 OFFCURVE",
"241 555 CURVE SMOOTH",
"256 629 OFFCURVE",
"317 663 OFFCURVE",
"403 663 CURVE SMOOTH",
"453 663 OFFCURVE",
"494 649 OFFCURVE",
"518 624 CURVE",
"512 581 OFFCURVE",
"511 539 OFFCURVE",
"514 507 CURVE",
"546 507 LINE",
"584 637 LINE",
"546 687 OFFCURVE",
"483 710 OFFCURVE",
"384 710 CURVE SMOOTH",
"239 710 OFFCURVE",
"128 652 OFFCURVE",
"104 534 CURVE SMOOTH",
"55 293 OFFCURVE",
"419 361 OFFCURVE",
"381 173 CURVE SMOOTH",
"363 80 OFFCURVE",
"278 37 OFFCURVE",
"198 37 CURVE SMOOTH",
"138 37 OFFCURVE",
"92 62 OFFCURVE",
"68 97 CURVE",
"74 138 OFFCURVE",
"79 194 OFFCURVE",
"76 227 CURVE",
"45 227 LINE",
"3 84 LINE",
"34 29 OFFCURVE",
"115 -10 OFFCURVE",
"222 -10 CURVE SMOOTH"
);
},
{
closed = 1;
nodes = (
"207 -281 OFFCURVE",
"263 -197 OFFCURVE",
"276 -128 CURVE SMOOTH",
"285 -88 OFFCURVE",
"268 -53 OFFCURVE",
"220 -53 CURVE SMOOTH",
"185 -53 OFFCURVE",
"150 -77 OFFCURVE",
"143 -116 CURVE SMOOTH",
"135 -155 OFFCURVE",
"164 -178 OFFCURVE",
"196 -178 CURVE",
"181 -222 OFFCURVE",
"143 -268 OFFCURVE",
"113 -294 CURVE",
"148 -327 LINE"
);
}
);
width = 559;
}
);
leftKerningGroup = S;
note = Scommaaccent;
rightKerningGroup = S;
unicode = 0218;
},
{
glyphname = Sdotaccent;
lastChange = "2015-11-29 14:55:12 +0000";
layers = (
{
layerId = "097E1CCD-D4DB-46B5-97AF-AA821C3DB512";
name = "Bold Italic";
paths = (
{
closed = 1;
nodes = (
"365 -10 OFFCURVE",
"491 63 OFFCURVE",
"517 191 CURVE SMOOTH",
"571 452 OFFCURVE",
"211 406 OFFCURVE",
"241 555 CURVE SMOOTH",
"256 629 OFFCURVE",
"317 663 OFFCURVE",
"403 663 CURVE SMOOTH",
"453 663 OFFCURVE",
"494 649 OFFCURVE",
"518 624 CURVE",
"512 581 OFFCURVE",
"511 539 OFFCURVE",
"514 507 CURVE",
"546 507 LINE",
"584 637 LINE",
"546 687 OFFCURVE",
"483 710 OFFCURVE",
"384 710 CURVE SMOOTH",
"239 710 OFFCURVE",
"128 652 OFFCURVE",
"104 534 CURVE SMOOTH",
"55 293 OFFCURVE",
"419 361 OFFCURVE",
"381 173 CURVE SMOOTH",
"363 80 OFFCURVE",
"278 37 OFFCURVE",
"198 37 CURVE SMOOTH",
"138 37 OFFCURVE",
"92 62 OFFCURVE",
"68 97 CURVE",
"74 138 OFFCURVE",
"79 194 OFFCURVE",
"76 227 CURVE",
"45 227 LINE",
"3 84 LINE",
"34 29 OFFCURVE",
"115 -10 OFFCURVE",
"222 -10 CURVE SMOOTH"
);
},
{
closed = 1;
nodes = (
"436 785 OFFCURVE",
"463 809 OFFCURVE",
"469 841 CURVE SMOOTH",
"476 874 OFFCURVE",
"460 898 OFFCURVE",
"428 898 CURVE SMOOTH",
"394 898 OFFCURVE",
"369 874 OFFCURVE",
"363 841 CURVE SMOOTH",
"357 809 OFFCURVE",
"371 785 OFFCURVE",
"405 785 CURVE SMOOTH"
);
}
);
width = 559;
}
);
leftKerningGroup = S;
note = Sdotaccent;
rightKerningGroup = S;
unicode = 1E60;
},
{
glyphname = Sdotbelow;
lastChange = "2015-11-29 14:55:12 +0000";
layers = (
{
layerId = "097E1CCD-D4DB-46B5-97AF-AA821C3DB512";
name = "Bold Italic";
paths = (
{
closed = 1;
nodes = (
"365 -10 OFFCURVE",
"491 63 OFFCURVE",
"517 191 CURVE SMOOTH",
"571 452 OFFCURVE",
"211 406 OFFCURVE",
"241 555 CURVE SMOOTH",
"256 629 OFFCURVE",
"317 663 OFFCURVE",
"403 663 CURVE SMOOTH",
"453 663 OFFCURVE",
"494 649 OFFCURVE",
"518 624 CURVE",
"512 581 OFFCURVE",
"511 539 OFFCURVE",
"514 507 CURVE",
"546 507 LINE",
"584 637 LINE",
"546 687 OFFCURVE",
"483 710 OFFCURVE",
"384 710 CURVE SMOOTH",
"239 710 OFFCURVE",
"128 652 OFFCURVE",
"104 534 CURVE SMOOTH",
"55 293 OFFCURVE",
"419 361 OFFCURVE",
"381 173 CURVE SMOOTH",
"363 80 OFFCURVE",
"278 37 OFFCURVE",
"198 37 CURVE SMOOTH",
"138 37 OFFCURVE",
"92 62 OFFCURVE",
"68 97 CURVE",
"74 138 OFFCURVE",
"79 194 OFFCURVE",
"76 227 CURVE",
"45 227 LINE",
"3 84 LINE",
"34 29 OFFCURVE",
"115 -10 OFFCURVE",
"222 -10 CURVE SMOOTH"
);
},
{
closed = 1;
nodes = (
"235 -169 OFFCURVE",
"261 -145 OFFCURVE",
"267 -113 CURVE SMOOTH",
"273 -80 OFFCURVE",
"258 -56 OFFCURVE",
"225 -56 CURVE SMOOTH",
"193 -56 OFFCURVE",
"166 -80 OFFCURVE",
"159 -113 CURVE SMOOTH",
"153 -145 OFFCURVE",
"170 -169 OFFCURVE",
"202 -169 CURVE SMOOTH"
);
}
);
width = 559;
}
);
leftKerningGroup = S;
note = Sdotbelow;
rightKerningGroup = S;
unicode = 1E62;
},
{
glyphname = Germandbls;
lastChange = "2015-11-29 14:55:12 +0000";
layers = (
{
layerId = "097E1CCD-D4DB-46B5-97AF-AA821C3DB512";
name = "Bold Italic";
paths = (
{
closed = 1;
nodes = (
"561 -10 OFFCURVE",
"659 89 OFFCURVE",
"683 205 CURVE SMOOTH",
"705 311 OFFCURVE",
"636 384 OFFCURVE",
"501 400 CURVE",
"674 553 LINE",
"666 627 OFFCURVE",
"597 710 OFFCURVE",
"454 710 CURVE SMOOTH",
"271 710 OFFCURVE",
"171 622 OFFCURVE",
"141 479 CURVE SMOOTH",
"51 37 LINE",
"23 31 OFFCURVE",
"-5 24 OFFCURVE",
"-31 17 CURVE",
"-34 0 LINE",
"223 0 LINE",
"227 20 LINE",
"218 26 OFFCURVE",
"190 34 OFFCURVE",
"178 37 CURVE",
"276 515 LINE SMOOTH",
"295 608 OFFCURVE",
"354 663 OFFCURVE",
"439 663 CURVE SMOOTH",
"517 663 OFFCURVE",
"563 622 OFFCURVE",
"576 572 CURVE",
"364 384 LINE",
"360 358 LINE",
"438 358 LINE SMOOTH",
"536 358 OFFCURVE",
"573 295 OFFCURVE",
"555 205 CURVE SMOOTH",
"534 104 OFFCURVE",
"471 34 OFFCURVE",
"385 34 CURVE SMOOTH",
"346 34 OFFCURVE",
"306 41 OFFCURVE",
"269 55 CURVE",
"260 8 LINE",
"292 -4 OFFCURVE",
"332 -10 OFFCURVE",
"379 -10 CURVE SMOOTH"
);
}
);
width = 717;
}
);
note = uni1E9E;
unicode = 1E9E;
},
{
glyphname = Schwa;
lastChange = "2015-11-29 14:55:11 +0000";
layers = (
{
layerId = "097E1CCD-D4DB-46B5-97AF-AA821C3DB512";
name = "Bold Italic";
paths = (
{
closed = 1;
nodes = (
"496 -10 OFFCURVE",
"656 111 OFFCURVE",
"704 344 CURVE SMOOTH",
"748 559 OFFCURVE",
"641 710 OFFCURVE",
"412 710 CURVE SMOOTH",
"274 710 OFFCURVE",
"185 665 OFFCURVE",
"134 631 CURVE",
"141 588 LINE",
"233 643 OFFCURVE",
"307 661 OFFCURVE",
"388 661 CURVE SMOOTH",
"556 661 OFFCURVE",
"609 498 OFFCURVE",
"575 329 CURVE SMOOTH",
"544 176 OFFCURVE",
"447 34 OFFCURVE",
"292 34 CURVE SMOOTH",
"168 34 OFFCURVE",
"146 173 OFFCURVE",
"171 296 CURVE",
"578 296 LINE",
"587 343 LINE",
"54 343 LINE",
"49 312 LINE SMOOTH",
"13 138 OFFCURVE",
"74 -10 OFFCURVE",
"287 -10 CURVE SMOOTH"
);
}
);
width = 713;
}
);
note = uni018F;
unicode = 018F;
},
{
glyphname = T;
lastChange = "2015-11-29 14:55:12 +0000";
layers = (
{
layerId = "097E1CCD-D4DB-46B5-97AF-AA821C3DB512";
name = "Bold Italic";
paths = (
{
closed = 1;
nodes = (
"421 0 LINE",
"424 16 LINE",
"400 24 OFFCURVE",
"366 32 OFFCURVE",
"344 36 CURVE",
"471 654 LINE",
"630 654 LINE",
"626 625 OFFCURVE",
"627 536 OFFCURVE",
"635 515 CURVE",
"664 515 LINE",
"701 700 LINE",
"127 700 LINE",
"90 515 LINE",
"119 515 LINE",
"135 536 OFFCURVE",
"172 625 OFFCURVE",
"181 654 CURVE",
"340 654 LINE",
"214 37 LINE",
"184 30 OFFCURVE",
"154 24 OFFCURVE",
"127 17 CURVE",
"124 0 LINE"
);
}
);
width = 638;
}
);
leftKerningGroup = T;
note = T;
rightKerningGroup = T;
unicode = 0054;
},
{
glyphname = Tbar;
lastChange = "2015-11-29 14:55:11 +0000";
layers = (
{
layerId = "097E1CCD-D4DB-46B5-97AF-AA821C3DB512";
name = "Bold Italic";
paths = (
{
closed = 1;
nodes = (
"421 0 LINE",
"424 16 LINE",
"400 24 OFFCURVE",
"366 32 OFFCURVE",
"344 36 CURVE",
"471 654 LINE",
"630 654 LINE",
"626 625 OFFCURVE",
"627 536 OFFCURVE",
"635 515 CURVE",
"664 515 LINE",
"701 700 LINE",
"127 700 LINE",
"90 515 LINE",
"119 515 LINE",
"135 536 OFFCURVE",
"172 625 OFFCURVE",
"181 654 CURVE",
"340 654 LINE",
"214 37 LINE",
"184 30 OFFCURVE",
"154 24 OFFCURVE",
"127 17 CURVE",
"124 0 LINE"
);
},
{
closed = 1;
nodes = (
"544 306 LINE",
"553 350 LINE",
"143 350 LINE",
"134 306 LINE"
);
}
);
width = 638;
}
);
leftKerningGroup = T;
note = Tbar;
rightKerningGroup = T;
unicode = 0166;
},
{
glyphname = Tcaron;
lastChange = "2015-11-29 14:55:12 +0000";
layers = (
{
layerId = "097E1CCD-D4DB-46B5-97AF-AA821C3DB512";
name = "Bold Italic";
paths = (
{
closed = 1;
nodes = (
"421 0 LINE",
"424 16 LINE",
"400 24 OFFCURVE",
"366 32 OFFCURVE",
"344 36 CURVE",
"471 654 LINE",
"630 654 LINE",
"626 625 OFFCURVE",
"627 536 OFFCURVE",
"635 515 CURVE",
"664 515 LINE",
"701 700 LINE",
"127 700 LINE",
"90 515 LINE",
"119 515 LINE",
"135 536 OFFCURVE",
"172 625 OFFCURVE",
"181 654 CURVE",
"340 654 LINE",
"214 37 LINE",
"184 30 OFFCURVE",
"154 24 OFFCURVE",
"127 17 CURVE",
"124 0 LINE"
);
},
{
closed = 1;
nodes = (
"460 786 LINE",
"492 824 OFFCURVE",
"581 894 OFFCURVE",
"628 922 CURVE",
"584 963 LINE",
"540 932 OFFCURVE",
"474 877 OFFCURVE",
"442 841 CURVE",
"438 841 LINE",
"423 877 OFFCURVE",
"379 932 OFFCURVE",
"346 963 CURVE",
"288 922 LINE",
"322 894 OFFCURVE",
"383 824 OFFCURVE",
"400 786 CURVE"
);
}
);
width = 638;
}
);
leftKerningGroup = T;
note = Tcaron;
rightKerningGroup = T;
unicode = 0164;
},
{
glyphname = Tcedilla;
lastChange = "2015-11-29 14:55:12 +0000";
layers = (
{
layerId = "097E1CCD-D4DB-46B5-97AF-AA821C3DB512";
name = "Bold Italic";
paths = (
{
closed = 1;
nodes = (
"421 0 LINE",
"424 16 LINE",
"400 24 OFFCURVE",
"366 32 OFFCURVE",
"344 36 CURVE",
"471 654 LINE",
"630 654 LINE",
"626 625 OFFCURVE",
"627 536 OFFCURVE",
"635 515 CURVE",
"664 515 LINE",
"701 700 LINE",
"127 700 LINE",
"90 515 LINE",
"119 515 LINE",
"135 536 OFFCURVE",
"172 625 OFFCURVE",
"181 654 CURVE",
"340 654 LINE",
"214 37 LINE",
"184 30 OFFCURVE",
"154 24 OFFCURVE",
"127 17 CURVE",
"124 0 LINE"
);
},
{
closed = 1;
nodes = (
"265 -241 OFFCURVE",
"331 -208 OFFCURVE",
"345 -141 CURVE SMOOTH",
"353 -99 OFFCURVE",
"329 -64 OFFCURVE",
"259 -62 CURVE SMOOTH",
"256 -62 OFFCURVE",
"251 -62 OFFCURVE",
"249 -62 CURVE",
"304 20 LINE",
"247 20 LINE",
"186 -70 LINE",
"203 -102 LINE",
"210 -101 OFFCURVE",
"218 -100 OFFCURVE",
"225 -100 CURVE SMOOTH",
"254 -100 OFFCURVE",
"286 -109 OFFCURVE",
"280 -141 CURVE",
"271 -181 OFFCURVE",
"234 -195 OFFCURVE",
"193 -195 CURVE SMOOTH",
"168 -195 OFFCURVE",
"142 -189 OFFCURVE",
"124 -179 CURVE",
"98 -214 LINE",
"122 -232 OFFCURVE",
"159 -241 OFFCURVE",
"193 -241 CURVE SMOOTH"
);
}
);
width = 638;
}
);
leftKerningGroup = T;
note = Tcedilla;
rightKerningGroup = T;
unicode = 0162;
},
{
glyphname = Tcommaaccent;
lastChange = "2015-11-29 14:55:11 +0000";
layers = (
{
layerId = "097E1CCD-D4DB-46B5-97AF-AA821C3DB512";
name = "Bold Italic";
paths = (
{
closed = 1;
nodes = (
"421 0 LINE",
"424 16 LINE",
"400 24 OFFCURVE",
"366 32 OFFCURVE",
"344 36 CURVE",
"471 654 LINE",
"630 654 LINE",
"626 625 OFFCURVE",
"627 536 OFFCURVE",
"635 515 CURVE",
"664 515 LINE",
"701 700 LINE",
"127 700 LINE",
"90 515 LINE",
"119 515 LINE",
"135 536 OFFCURVE",
"172 625 OFFCURVE",
"181 654 CURVE",
"340 654 LINE",
"214 37 LINE",
"184 30 OFFCURVE",
"154 24 OFFCURVE",
"127 17 CURVE",
"124 0 LINE"
);
},
{
closed = 1;
nodes = (
"241 -300 OFFCURVE",
"294 -220 OFFCURVE",
"308 -151 CURVE SMOOTH",
"316 -111 OFFCURVE",
"303 -77 OFFCURVE",
"254 -77 CURVE SMOOTH",
"220 -77 OFFCURVE",
"185 -99 OFFCURVE",
"177 -138 CURVE SMOOTH",
"170 -177 OFFCURVE",
"191 -199 OFFCURVE",
"229 -200 CURVE",
"215 -243 OFFCURVE",
"176 -287 OFFCURVE",
"148 -314 CURVE",
"182 -346 LINE"
);
}
);
width = 638;
}
);
leftKerningGroup = T;
note = Tcommaaccent;
rightKerningGroup = T;
unicode = 021A;
},
{
glyphname = Tdotbelow;
lastChange = "2015-11-29 14:55:11 +0000";
layers = (
{
layerId = "097E1CCD-D4DB-46B5-97AF-AA821C3DB512";
name = "Bold Italic";
paths = (
{
closed = 1;
nodes = (
"421 0 LINE",
"424 16 LINE",
"400 24 OFFCURVE",
"366 32 OFFCURVE",
"344 36 CURVE",
"471 654 LINE",
"630 654 LINE",
"626 625 OFFCURVE",
"627 536 OFFCURVE",
"635 515 CURVE",
"664 515 LINE",
"701 700 LINE",
"127 700 LINE",
"90 515 LINE",
"119 515 LINE",
"135 536 OFFCURVE",
"172 625 OFFCURVE",
"181 654 CURVE",
"340 654 LINE",
"214 37 LINE",
"184 30 OFFCURVE",
"154 24 OFFCURVE",
"127 17 CURVE",
"124 0 LINE"
);
},
{
closed = 1;
nodes = (
"270 -169 OFFCURVE",
"296 -145 OFFCURVE",
"302 -113 CURVE SMOOTH",
"309 -80 OFFCURVE",
"293 -56 OFFCURVE",
"261 -56 CURVE SMOOTH",
"228 -56 OFFCURVE",
"201 -80 OFFCURVE",
"195 -113 CURVE SMOOTH",
"189 -145 OFFCURVE",
"205 -169 OFFCURVE",
"238 -169 CURVE SMOOTH"
);
}
);
width = 638;
}
);
leftKerningGroup = T;
note = Tdotbelow;
rightKerningGroup = T;
unicode = 1E6C;
},
{
glyphname = Tlinebelow;
lastChange = "2015-11-29 14:55:12 +0000";
layers = (
{
layerId = "097E1CCD-D4DB-46B5-97AF-AA821C3DB512";
name = "Bold Italic";
paths = (
{
closed = 1;
nodes = (
"421 0 LINE",
"424 16 LINE",
"400 24 OFFCURVE",
"366 32 OFFCURVE",
"344 36 CURVE",
"471 654 LINE",
"630 654 LINE",
"626 625 OFFCURVE",
"627 536 OFFCURVE",
"635 515 CURVE",
"664 515 LINE",
"701 700 LINE",
"127 700 LINE",
"90 515 LINE",
"119 515 LINE",
"135 536 OFFCURVE",
"172 625 OFFCURVE",
"181 654 CURVE",
"340 654 LINE",
"214 37 LINE",
"184 30 OFFCURVE",
"154 24 OFFCURVE",
"127 17 CURVE",
"124 0 LINE"
);
},
{
closed = 1;
nodes = (
"427 -107 LINE",
"436 -64 LINE",
"80 -64 LINE",
"72 -107 LINE"
);
}
);
width = 638;
}
);
leftKerningGroup = T;
note = Tlinebelow;
rightKerningGroup = T;
unicode = 1E6E;
},
{
glyphname = U;
lastChange = "2015-11-29 14:55:10 +0000";
layers = (
{
layerId = "097E1CCD-D4DB-46B5-97AF-AA821C3DB512";
name = "Bold Italic";
paths = (
{
closed = 1;
nodes = (
"512 -10 OFFCURVE",
"620 66 OFFCURVE",
"651 218 CURVE SMOOTH",
"741 662 LINE",
"757 664 OFFCURVE",
"787 672 OFFCURVE",
"823 684 CURVE",
"826 700 LINE",
"617 700 LINE",
"614 684 LINE",
"639 674 OFFCURVE",
"662 668 OFFCURVE",
"688 664 CURVE",
"594 205 LINE SMOOTH",
"568 79 OFFCURVE",
"473 37 OFFCURVE",
"378 37 CURVE SMOOTH",
"281 37 OFFCURVE",
"204 75 OFFCURVE",
"231 205 CURVE SMOOTH",
"324 662 LINE",
"352 668 OFFCURVE",
"381 674 OFFCURVE",
"405 682 CURVE",
"409 700 LINE",
"124 700 LINE",
"122 684 LINE",
"146 674 OFFCURVE",
"171 668 OFFCURVE",
"194 663 CURVE",
"103 218 LINE SMOOTH",
"71 58 OFFCURVE",
"159 -10 OFFCURVE",
"336 -10 CURVE SMOOTH"
);
}
);
width = 759;
}
);
leftKerningGroup = U;
note = U;
rightKerningGroup = U;
unicode = 0055;
},
{
glyphname = Uacute;
lastChange = "2015-11-29 14:55:11 +0000";
layers = (
{
layerId = "097E1CCD-D4DB-46B5-97AF-AA821C3DB512";
name = "Bold Italic";
paths = (
{
closed = 1;
nodes = (
"512 -10 OFFCURVE",
"620 66 OFFCURVE",
"651 218 CURVE SMOOTH",
"741 662 LINE",
"757 664 OFFCURVE",
"787 672 OFFCURVE",
"823 684 CURVE",
"826 700 LINE",
"617 700 LINE",
"614 684 LINE",
"639 674 OFFCURVE",
"662 668 OFFCURVE",
"688 664 CURVE",
"594 205 LINE SMOOTH",
"568 79 OFFCURVE",
"473 37 OFFCURVE",
"378 37 CURVE SMOOTH",
"281 37 OFFCURVE",
"204 75 OFFCURVE",
"231 205 CURVE SMOOTH",
"324 662 LINE",
"352 668 OFFCURVE",
"381 674 OFFCURVE",
"405 682 CURVE",
"409 700 LINE",
"124 700 LINE",
"122 684 LINE",
"146 674 OFFCURVE",
"171 668 OFFCURVE",
"194 663 CURVE",
"103 218 LINE SMOOTH",
"71 58 OFFCURVE",
"159 -10 OFFCURVE",
"336 -10 CURVE SMOOTH"
);
},
{
closed = 1;
nodes = (
"612 875 LINE SMOOTH",
"643 892 OFFCURVE",
"661 909 OFFCURVE",
"665 930 CURVE",
"669 947 OFFCURVE",
"662 967 OFFCURVE",
"633 967 CURVE SMOOTH",
"604 967 OFFCURVE",
"578 943 OFFCURVE",
"571 936 CURVE",
"431 817 LINE",
"446 786 LINE"
);
}
);
width = 759;
}
);
leftKerningGroup = U;
note = Uacute;
rightKerningGroup = U;
unicode = 00DA;
},
{
glyphname = Ubreve;
lastChange = "2015-11-29 14:55:10 +0000";
layers = (
{
layerId = "097E1CCD-D4DB-46B5-97AF-AA821C3DB512";
name = "Bold Italic";
paths = (
{
closed = 1;
nodes = (
"512 -10 OFFCURVE",
"620 66 OFFCURVE",
"651 218 CURVE SMOOTH",
"741 662 LINE",
"757 664 OFFCURVE",
"787 672 OFFCURVE",
"823 684 CURVE",
"826 700 LINE",
"617 700 LINE",
"614 684 LINE",
"639 674 OFFCURVE",
"662 668 OFFCURVE",
"688 664 CURVE",
"594 205 LINE SMOOTH",
"568 79 OFFCURVE",
"473 37 OFFCURVE",
"378 37 CURVE SMOOTH",
"281 37 OFFCURVE",
"204 75 OFFCURVE",
"231 205 CURVE SMOOTH",
"324 662 LINE",
"352 668 OFFCURVE",
"381 674 OFFCURVE",
"405 682 CURVE",
"409 700 LINE",
"124 700 LINE",
"122 684 LINE",
"146 674 OFFCURVE",
"171 668 OFFCURVE",
"194 663 CURVE",
"103 218 LINE SMOOTH",
"71 58 OFFCURVE",
"159 -10 OFFCURVE",
"336 -10 CURVE SMOOTH"
);
},
{
closed = 1;
nodes = (
"588 779 OFFCURVE",
"660 821 OFFCURVE",
"691 910 CURVE",
"618 910 LINE",
"595 836 OFFCURVE",
"548 826 OFFCURVE",
"508 826 CURVE SMOOTH",
"469 826 OFFCURVE",
"425 836 OFFCURVE",
"433 910 CURVE",
"361 910 LINE",
"356 821 OFFCURVE",
"409 779 OFFCURVE",
"499 779 CURVE SMOOTH"
);
}
);
width = 759;
}
);
leftKerningGroup = U;
note = Ubreve;
rightKerningGroup = U;
unicode = 016C;
},
{
glyphname = Ucaron;
lastChange = "2015-11-29 14:55:11 +0000";
layers = (
{
layerId = "097E1CCD-D4DB-46B5-97AF-AA821C3DB512";
name = "Bold Italic";
paths = (
{
closed = 1;
nodes = (
"512 -10 OFFCURVE",
"620 66 OFFCURVE",
"651 218 CURVE SMOOTH",
"741 662 LINE",
"757 664 OFFCURVE",
"787 672 OFFCURVE",
"823 684 CURVE",
"826 700 LINE",
"617 700 LINE",
"614 684 LINE",
"639 674 OFFCURVE",
"662 668 OFFCURVE",
"688 664 CURVE",
"594 205 LINE SMOOTH",
"568 79 OFFCURVE",
"473 37 OFFCURVE",
"378 37 CURVE SMOOTH",
"281 37 OFFCURVE",
"204 75 OFFCURVE",
"231 205 CURVE SMOOTH",
"324 662 LINE",
"352 668 OFFCURVE",
"381 674 OFFCURVE",
"405 682 CURVE",
"409 700 LINE",
"124 700 LINE",
"122 684 LINE",
"146 674 OFFCURVE",
"171 668 OFFCURVE",
"194 663 CURVE",
"103 218 LINE SMOOTH",
"71 58 OFFCURVE",
"159 -10 OFFCURVE",
"336 -10 CURVE SMOOTH"
);
},
{
closed = 1;
nodes = (
"520 786 LINE",
"553 824 OFFCURVE",
"642 894 OFFCURVE",
"689 922 CURVE",
"645 963 LINE",
"601 932 OFFCURVE",
"534 877 OFFCURVE",
"503 841 CURVE",
"499 841 LINE",
"484 877 OFFCURVE",
"439 932 OFFCURVE",
"407 963 CURVE",
"348 922 LINE",
"383 894 OFFCURVE",
"443 824 OFFCURVE",
"460 786 CURVE"
);
}
);
width = 759;
}
);
leftKerningGroup = U;
note = Ucaron;
rightKerningGroup = U;
unicode = 01D3;
},
{
glyphname = Ucircumflex;
lastChange = "2015-11-29 14:55:11 +0000";
layers = (
{
layerId = "097E1CCD-D4DB-46B5-97AF-AA821C3DB512";
name = "Bold Italic";
paths = (
{
closed = 1;
nodes = (
"512 -10 OFFCURVE",
"620 66 OFFCURVE",
"651 218 CURVE SMOOTH",
"741 662 LINE",
"757 664 OFFCURVE",
"787 672 OFFCURVE",
"823 684 CURVE",
"826 700 LINE",
"617 700 LINE",
"614 684 LINE",
"639 674 OFFCURVE",
"662 668 OFFCURVE",
"688 664 CURVE",
"594 205 LINE SMOOTH",
"568 79 OFFCURVE",
"473 37 OFFCURVE",
"378 37 CURVE SMOOTH",
"281 37 OFFCURVE",
"204 75 OFFCURVE",
"231 205 CURVE SMOOTH",
"324 662 LINE",
"352 668 OFFCURVE",
"381 674 OFFCURVE",
"405 682 CURVE",
"409 700 LINE",
"124 700 LINE",
"122 684 LINE",
"146 674 OFFCURVE",
"171 668 OFFCURVE",
"194 663 CURVE",
"103 218 LINE SMOOTH",
"71 58 OFFCURVE",
"159 -10 OFFCURVE",
"336 -10 CURVE SMOOTH"
);
},
{
closed = 1;
nodes = (
"416 813 OFFCURVE",
"484 868 OFFCURVE",
"514 904 CURVE",
"518 904 LINE",
"534 868 OFFCURVE",
"578 813 OFFCURVE",
"610 782 CURVE",
"670 823 LINE",
"634 851 OFFCURVE",
"575 922 OFFCURVE",
"556 959 CURVE",
"497 959 LINE",
"465 922 OFFCURVE",
"375 851 OFFCURVE",
"329 823 CURVE",
"373 782 LINE"
);
}
);
width = 759;
}
);
leftKerningGroup = U;
note = Ucircumflex;
rightKerningGroup = U;
unicode = 00DB;
},
{
glyphname = Udieresis;
lastChange = "2015-11-29 14:55:12 +0000";
layers = (
{
layerId = "097E1CCD-D4DB-46B5-97AF-AA821C3DB512";
name = "Bold Italic";
paths = (
{
closed = 1;
nodes = (
"512 -10 OFFCURVE",
"620 66 OFFCURVE",
"651 218 CURVE SMOOTH",
"741 662 LINE",
"757 664 OFFCURVE",
"787 672 OFFCURVE",
"823 684 CURVE",
"826 700 LINE",
"617 700 LINE",
"614 684 LINE",
"639 674 OFFCURVE",
"662 668 OFFCURVE",
"688 664 CURVE",
"594 205 LINE SMOOTH",
"568 79 OFFCURVE",
"473 37 OFFCURVE",
"378 37 CURVE SMOOTH",
"281 37 OFFCURVE",
"204 75 OFFCURVE",
"231 205 CURVE SMOOTH",
"324 662 LINE",
"352 668 OFFCURVE",
"381 674 OFFCURVE",
"405 682 CURVE",
"409 700 LINE",
"124 700 LINE",
"122 684 LINE",
"146 674 OFFCURVE",
"171 668 OFFCURVE",
"194 663 CURVE",
"103 218 LINE SMOOTH",
"71 58 OFFCURVE",
"159 -10 OFFCURVE",
"336 -10 CURVE SMOOTH"
);
},
{
closed = 1;
nodes = (
"431 785 OFFCURVE",
"458 809 OFFCURVE",
"463 841 CURVE SMOOTH",
"470 874 OFFCURVE",
"454 898 OFFCURVE",
"420 898 CURVE SMOOTH",
"389 898 OFFCURVE",
"364 874 OFFCURVE",
"357 841 CURVE SMOOTH",
"351 809 OFFCURVE",
"366 785 OFFCURVE",
"397 785 CURVE SMOOTH"
);
},
{
closed = 1;
nodes = (
"654 785 OFFCURVE",
"681 809 OFFCURVE",
"687 841 CURVE SMOOTH",
"694 874 OFFCURVE",
"677 898 OFFCURVE",
"645 898 CURVE SMOOTH",
"611 898 OFFCURVE",
"586 874 OFFCURVE",
"580 841 CURVE SMOOTH",
"574 809 OFFCURVE",
"588 785 OFFCURVE",
"622 785 CURVE SMOOTH"
);
}
);
width = 759;
}
);
leftKerningGroup = U;
note = Udieresis;
rightKerningGroup = U;
unicode = 00DC;
},
{
glyphname = Udieresisacute;
lastChange = "2015-11-29 14:55:12 +0000";
layers = (
{
layerId = "097E1CCD-D4DB-46B5-97AF-AA821C3DB512";
name = "Bold Italic";
paths = (
{
closed = 1;
nodes = (
"512 -10 OFFCURVE",
"620 66 OFFCURVE",
"651 218 CURVE SMOOTH",
"741 662 LINE",
"757 664 OFFCURVE",
"787 672 OFFCURVE",
"823 684 CURVE",
"826 700 LINE",
"617 700 LINE",
"614 684 LINE",
"639 674 OFFCURVE",
"662 668 OFFCURVE",
"688 664 CURVE",
"594 205 LINE SMOOTH",
"568 79 OFFCURVE",
"473 37 OFFCURVE",
"378 37 CURVE SMOOTH",
"281 37 OFFCURVE",
"204 75 OFFCURVE",
"231 205 CURVE SMOOTH",
"324 662 LINE",
"352 668 OFFCURVE",
"381 674 OFFCURVE",
"405 682 CURVE",
"409 700 LINE",
"124 700 LINE",
"122 684 LINE",
"146 674 OFFCURVE",
"171 668 OFFCURVE",
"194 663 CURVE",
"103 218 LINE SMOOTH",
"71 58 OFFCURVE",
"159 -10 OFFCURVE",
"336 -10 CURVE SMOOTH"
);
},
{
closed = 1;
nodes = (
"434 785 OFFCURVE",
"460 809 OFFCURVE",
"466 841 CURVE SMOOTH",
"473 873 OFFCURVE",
"457 898 OFFCURVE",
"424 898 CURVE SMOOTH",
"390 898 OFFCURVE",
"365 873 OFFCURVE",
"359 841 CURVE SMOOTH",
"352 809 OFFCURVE",
"367 785 OFFCURVE",
"401 785 CURVE SMOOTH"
);
},
{
closed = 1;
nodes = (
"657 785 OFFCURVE",
"683 809 OFFCURVE",
"690 841 CURVE SMOOTH",
"697 873 OFFCURVE",
"680 898 OFFCURVE",
"648 898 CURVE SMOOTH",
"615 898 OFFCURVE",
"589 873 OFFCURVE",
"582 841 CURVE SMOOTH",
"576 809 OFFCURVE",
"592 785 OFFCURVE",
"625 785 CURVE SMOOTH"
);
},
{
closed = 1;
nodes = (
"663 1008 LINE SMOOTH",
"694 1025 OFFCURVE",
"712 1042 OFFCURVE",
"716 1063 CURVE",
"720 1080 OFFCURVE",
"711 1102 OFFCURVE",
"682 1102 CURVE SMOOTH",
"653 1102 OFFCURVE",
"628 1076 OFFCURVE",
"622 1070 CURVE",
"497 960 LINE",
"511 929 LINE"
);
}
);
width = 759;
}
);
leftKerningGroup = U;
note = Udieresisacute;
rightKerningGroup = U;
unicode = 01D7;
},
{
glyphname = Udieresiscaron;
lastChange = "2015-11-29 14:55:12 +0000";
layers = (
{
layerId = "097E1CCD-D4DB-46B5-97AF-AA821C3DB512";
name = "Bold Italic";
paths = (
{
closed = 1;
nodes = (
"512 -10 OFFCURVE",
"620 66 OFFCURVE",
"651 218 CURVE SMOOTH",
"741 662 LINE",
"757 664 OFFCURVE",
"787 672 OFFCURVE",
"823 684 CURVE",
"826 700 LINE",
"617 700 LINE",
"614 684 LINE",
"639 674 OFFCURVE",
"662 668 OFFCURVE",
"688 664 CURVE",
"594 205 LINE SMOOTH",
"568 79 OFFCURVE",
"473 37 OFFCURVE",
"378 37 CURVE SMOOTH",
"281 37 OFFCURVE",
"204 75 OFFCURVE",
"231 205 CURVE SMOOTH",
"324 662 LINE",
"352 668 OFFCURVE",
"381 674 OFFCURVE",
"405 682 CURVE",
"409 700 LINE",
"124 700 LINE",
"122 684 LINE",
"146 674 OFFCURVE",
"171 668 OFFCURVE",
"194 663 CURVE",
"103 218 LINE SMOOTH",
"71 58 OFFCURVE",
"159 -10 OFFCURVE",
"336 -10 CURVE SMOOTH"
);
},
{
closed = 1;
nodes = (
"433 785 OFFCURVE",
"459 808 OFFCURVE",
"465 841 CURVE SMOOTH",
"471 873 OFFCURVE",
"455 897 OFFCURVE",
"422 897 CURVE SMOOTH",
"389 897 OFFCURVE",
"364 873 OFFCURVE",
"359 841 CURVE SMOOTH",
"352 808 OFFCURVE",
"367 785 OFFCURVE",
"400 785 CURVE SMOOTH"
);
},
{
closed = 1;
nodes = (
"657 785 OFFCURVE",
"683 808 OFFCURVE",
"690 841 CURVE SMOOTH",
"696 873 OFFCURVE",
"679 897 OFFCURVE",
"646 897 CURVE SMOOTH",
"613 897 OFFCURVE",
"588 873 OFFCURVE",
"582 841 CURVE SMOOTH",
"576 808 OFFCURVE",
"591 785 OFFCURVE",
"624 785 CURVE SMOOTH"
);
},
{
closed = 1;
nodes = (
"567 911 LINE",
"601 949 OFFCURVE",
"689 1019 OFFCURVE",
"736 1047 CURVE",
"692 1088 LINE",
"647 1057 OFFCURVE",
"582 1002 OFFCURVE",
"551 966 CURVE",
"547 966 LINE",
"531 1002 OFFCURVE",
"486 1057 OFFCURVE",
"455 1088 CURVE",
"394 1047 LINE",
"429 1019 OFFCURVE",
"491 949 OFFCURVE",
"508 911 CURVE"
);
}
);
width = 759;
}
);
leftKerningGroup = U;
note = Udieresiscaron;
rightKerningGroup = U;
unicode = 01D9;
},
